<svg width="54" height="54" viewBox="0 0 54 54" fill="none" xmlns="http://www.w3.org/2000/svg">
<circle cx="23.5" cy="30.5" r="23.5" fill="#383D45"/>
<circle cx="39" cy="15" r="13.5" stroke="#EFBC50" stroke-width="3"/>
<mask id="path-3-inside-1_37_30" fill="white">
<path d="M38.2181 34.5983C35.6086 35.8927 32.6628 36.349 29.7839 35.9048C26.905 35.4606 24.2337 34.1376 22.1357 32.1168C20.0377 30.096 18.6154 27.4763 18.0635 24.6161C17.5116 21.7559 17.8571 18.795 19.0527 16.1387L21.6213 17.2949C20.664 19.4217 20.3874 21.7923 20.8293 24.0824C21.2711 26.3725 22.4099 28.47 24.0898 30.088C25.7696 31.706 27.9084 32.7653 30.2134 33.121C32.5185 33.4766 34.8771 33.1113 36.9665 32.0749L38.2181 34.5983Z"/>
</mask>
<path d="M38.2181 34.5983C35.6086 35.8927 32.6628 36.349 29.7839 35.9048C26.905 35.4606 24.2337 34.1376 22.1357 32.1168C20.0377 30.096 18.6154 27.4763 18.0635 24.6161C17.5116 21.7559 17.8571 18.795 19.0527 16.1387L21.6213 17.2949C20.664 19.4217 20.3874 21.7923 20.8293 24.0824C21.2711 26.3725 22.4099 28.47 24.0898 30.088C25.7696 31.706 27.9084 32.7653 30.2134 33.121C32.5185 33.4766 34.8771 33.1113 36.9665 32.0749L38.2181 34.5983Z" stroke="#EFBC50" stroke-width="6" mask="url(#path-3-inside-1_37_30)"/>
<mask id="path-4-inside-2_37_30" fill="white">
<path d="M26.7882 37.6686C25.3193 38.7004 23.5369 39.1882 21.7472 39.0483C19.9576 38.9083 18.2727 38.1492 16.9821 36.9015C15.6915 35.6538 14.8759 33.9955 14.6754 32.2117C14.475 30.4278 14.9023 28.6298 15.8839 27.1269L18.0015 28.5099C17.3415 29.5206 17.0541 30.7297 17.1889 31.9293C17.3237 33.1289 17.8721 34.244 18.74 35.0831C19.6079 35.9221 20.741 36.4326 21.9445 36.5267C23.148 36.6208 24.3466 36.2928 25.3344 35.5989L26.7882 37.6686Z"/>
</mask>
<path d="M26.7882 37.6686C25.3193 38.7004 23.5369 39.1882 21.7472 39.0483C19.9576 38.9083 18.2727 38.1492 16.9821 36.9015C15.6915 35.6538 14.8759 33.9955 14.6754 32.2117C14.475 30.4278 14.9023 28.6298 15.8839 27.1269L18.0015 28.5099C17.3415 29.5206 17.0541 30.7297 17.1889 31.9293C17.3237 33.1289 17.8721 34.244 18.74 35.0831C19.6079 35.9221 20.741 36.4326 21.9445 36.5267C23.148 36.6208 24.3466 36.2928 25.3344 35.5989L26.7882 37.6686Z" stroke="#EFBC50" stroke-width="6" mask="url(#path-4-inside-2_37_30)"/>
</svg>
