<svg width="54" height="54" fill="none" xmlns="http://www.w3.org/2000/svg"><circle cx="23.5" cy="30.5" r="23.5" fill="#383D45"/><circle cx="39" cy="15" r="13.5" stroke="#567CF3" stroke-width="3"/><mask id="a" fill="#fff"><path d="M38.218 34.598a14.13 14.13 0 01-19.165-18.46l2.568 1.157a11.314 11.314 0 0015.346 14.78l1.251 2.523z"/></mask><path d="M38.218 34.598a14.13 14.13 0 01-19.165-18.46l2.568 1.157a11.314 11.314 0 0015.346 14.78l1.251 2.523z" stroke="#567CF3" stroke-width="6" mask="url(#a)"/><mask id="b" fill="#fff"><path d="M26.788 37.669a7.723 7.723 0 01-10.904-10.542L18 28.51a5.193 5.193 0 007.333 7.089l1.454 2.07z"/></mask><path d="M26.788 37.669a7.723 7.723 0 01-10.904-10.542L18 28.51a5.193 5.193 0 007.333 7.089l1.454 2.07z" stroke="#567CF3" stroke-width="6" mask="url(#b)"/></svg>