<svg width="30" height="45" fill="none" xmlns="http://www.w3.org/2000/svg"><path d="M16.474 33.047V2.109H8.036L1.005 9.141l3.516 4.218 4.921-4.921v24.609h-7.03v7.031h21.093v-7.031h-7.031z" fill="#FFB07B"/><path d="M2.411 40.078l2.813 2.813h21.093l-2.812-2.813H2.41z" fill="#9E734C"/><path d="M23.505 33.047l2.812 2.812v7.032l-2.812-2.813v-7.031zM4.52 13.359l2.109 2.11 2.812-2.813V8.437l-4.92 4.923zM16.474 2.11l2.812 2.813v28.125h-2.812V2.109z" fill="#C09267"/><path d="M6.133 15.966a.703.703 0 00.994 0l1.612-1.612v17.99H2.411a.703.703 0 00-.703.703v7.031c.01.078.025.154.046.23.042.095.095.184.16.266l2.812 2.812a.702.702 0 00.497.208h21.094a.703.703 0 00.703-.703v-7.032a.703.703 0 00-.206-.497l-2.812-2.812a.703.703 0 00-.497-.206h-3.516V4.922a.703.703 0 00-.206-.497L16.97 1.612a.703.703 0 00-.497-.206H8.036a.703.703 0 00-.497.206L.508 8.644a.703.703 0 00-.043.947l5.668 6.375zm.497-1.491l-1.115-1.116 3.224-3.224v2.23l-2.11 2.11zm17.578 20.27l1.406 1.406v5.042l-1.406-1.406v-5.043zm.412 7.443H5.515L4.108 40.78h19.106l1.406 1.407zM17.176 3.806l1.407 1.406v27.13h-1.406V3.808zm-8.849-.994h7.443v30.234a.703.703 0 00.703.703h6.329v5.625H3.114V33.75h6.328a.703.703 0 00.703-.703V8.437a.703.703 0 00-1.2-.497l-4.378 4.378-2.611-3.134 6.371-6.371z" fill="#222831"/></svg>