<svg width="27" height="45" fill="none" xmlns="http://www.w3.org/2000/svg"><g clip-path="url(#clip0_61_1827)"><path d="M4.896 2.11L.677 6.327v8.438h7.031V9.14h8.438v6.328L.677 30.234v9.844h22.5v-7.031H8.412L23.177 18.28V6.328L18.96 2.11H4.896z" fill="#FFD87D"/><path d="M.677 40.078l2.813 2.813h22.5l-2.813-2.813H.677z" fill="#9E964C"/><path d="M23.177 33.047l2.813 2.812v7.032l-2.813-2.813v-7.031z" fill="#C0A767"/><path d="M.677 14.766l2.813 2.812h7.031l-2.813-2.812H.678z" fill="#FFD87D"/><path d="M10.521 17.578v-5.625L7.708 9.141v5.625l2.813 2.812z" fill="#C0A767"/><path d="M16.146 11.953h-5.625L7.708 9.141h8.438v2.812z" fill="#9E964C"/><path d="M23.177 6.328l2.813 2.813v11.953l-2.813-2.813V6.328z" fill="#C0A767"/><path d="M25.99 21.094L14.037 33.047H8.412L23.177 18.28l2.813 2.813z" fill="#9E964C"/><path d="M19.456 1.612a.703.703 0 00-.497-.206H4.896a.703.703 0 00-.497.206L.18 5.831a.703.703 0 00-.206.497v8.438c0 .186.074.365.206.497l2.813 2.812a.7.7 0 00.497.206h7.031a.703.703 0 00.703-.703v-4.922h4.219v2.512L.193 29.726a.703.703 0 00-.219.508v9.844c0 .187.074.365.206.497l2.813 2.813a.7.7 0 00.497.206h22.5a.704.704 0 00.65-.434 1.3 1.3 0 00.053-.27v-7.03a.704.704 0 00-.206-.498l-2.813-2.812a.703.703 0 00-.497-.206h-7.443l10.748-10.758a.703.703 0 00.21-.492V9.14a.704.704 0 00-.205-.497l-7.031-7.032zM3.78 16.875l-1.406-1.406h5.042l1.407 1.406H3.78zm6.037-.994l-1.406-1.406v-3.637l1.406 1.406v3.637zm.994-4.631L9.406 9.844h6.037v1.406h-4.63zM23.88 34.744l1.407 1.407v5.042l-1.407-1.406v-5.043zm.412 7.444H3.781L2.375 40.78h20.511l1.406 1.407zm-1.818-8.438v5.625H1.38v-8.84l15.251-14.554a.704.704 0 00.218-.512V9.14a.703.703 0 00-.703-.704H7.708a.703.703 0 00-.703.704v4.921H1.38V6.62l3.807-3.806h13.48l3.807 3.806v11.37L7.914 32.55a.703.703 0 00.498 1.2h14.062zm-8.729-1.406H10.11l13.068-13.069 1.819 1.819-11.25 11.25zm11.542-12.948L23.88 17.99V8.025l1.407 1.407v9.964z" fill="#222831"/></g><defs><clipPath id="clip0_61_1827"><path fill="#fff" d="M0 0h26.667v45H0z"/></clipPath></defs></svg>