<svg width="27" height="45" fill="none" xmlns="http://www.w3.org/2000/svg"><path d="M20.531 2.11H3.656L.844 5.624v6.328h7.031V7.734h8.438v10.547H7.874v7.032h8.438v9.14H7.874v-4.219H.844v6.328l2.812 3.516h16.875l2.813-3.516V5.625L20.53 2.109z" fill="#FFB07B"/><path d="M3.656 40.078l2.813 2.813h16.875l-2.813-2.813H3.656z" fill="#9E734C"/><path d="M20.531 40.078l2.813-3.516 2.812 2.813-2.812 3.516-2.813-2.813z" fill="#9E734C"/><path d="M23.344 5.625l2.812 4.219v29.531l-2.812-2.813V5.625z" fill="#C09267"/><path d="M.844 11.953l2.812 2.813h7.031l-2.812-2.813H.844z" fill="#9E734C"/><path d="M7.875 7.734l2.813 2.813v4.219l-2.813-2.813V7.734z" fill="#C09267"/><path d="M10.688 10.547h5.624V7.734H7.876l2.813 2.813zM7.874 25.312l2.813 2.813h5.624v-2.813H7.876z" fill="#9E734C"/><path d="M7.875 30.234l2.813 2.813v1.406H7.874v-4.219z" fill="#C09267"/><path d="M3.107 40.518l.052.057 2.813 2.813a.7.7 0 00.497.206h16.914a.704.704 0 00.51-.263l2.808-3.52a.697.697 0 00.158-.436V9.844a.707.707 0 00-.118-.39l-2.812-4.22a2.363 2.363 0 00-.036-.048L21.08 1.67a.704.704 0 00-.549-.264H3.656a.703.703 0 00-.549.264L.295 5.186a.703.703 0 00-.154.439v6.328a.7.7 0 00.206.498l2.813 2.812a.7.7 0 00.496.206h7.031a.703.703 0 00.704-.703V11.25h4.218v6.328H7.875a.703.703 0 00-.703.703v7.032a.699.699 0 00.207.497l2.812 2.813c.132.131.31.205.496.205h4.922v4.922h-4.218v-.703a.703.703 0 00-.206-.497l-2.813-2.813a.7.7 0 00-.497-.206H.844a.703.703 0 00-.703.703v6.328c0 .16.054.315.154.44l2.812 3.516zm3.653 1.67L5.354 40.78H20.24l1.406 1.407H6.76zM24.047 7.944l1.406 2.11v27.623l-1.406-1.407V7.945zm1.167 31.48l-1.929 2.41-1.812-1.809 1.93-2.409 1.811 1.808zM3.947 14.063l-1.406-1.407h5.043l1.406 1.406H3.947zm6.037-.995l-1.406-1.406v-2.23l1.406 1.406v2.23zm.995-3.224L9.572 8.438h6.037v1.406h-4.63zm0 17.578l-1.407-1.406h6.037v1.406h-4.63zm-2.4 4.51l1.405 1.406v.412H8.578v-1.818zm-7.032-.994h5.625v3.515a.703.703 0 00.703.703h8.438a.703.703 0 00.703-.703v-9.14a.703.703 0 00-.703-.704H8.578v-5.625h7.735a.703.703 0 00.703-.703V7.734a.703.703 0 00-.703-.703H7.874a.703.703 0 00-.703.703v3.516H1.547V5.872l2.447-3.06h16.2l2.447 3.06v30.445l-2.447 3.058h-16.2l-2.447-3.06v-5.377z" fill="#222831"/></svg>