<svg width="34" height="45" fill="none" xmlns="http://www.w3.org/2000/svg"><path d="M28.453 28.125h-5.625V2.109h-7.031L1.734 28.125l4.22 5.625h11.25v6.328h5.624V33.75h5.625v-5.625zm-19.687 0l8.437-17.578v17.578H8.766z" fill="#FFB07B"/><path d="M17.203 40.078l2.813 2.813h5.625l-2.813-2.813h-5.625z" fill="#9E734C"/><path d="M22.828 33.75v6.328l2.813 2.813v-6.328l-2.813-2.813z" fill="#C09267"/><path d="M25.64 36.563h5.626l-2.813-2.813h-5.625l2.813 2.813z" fill="#9E734C"/><path d="M28.453 28.125l2.813 2.813v5.625l-2.813-2.813v-5.625z" fill="#C09267"/><path d="M5.953 33.75l2.813 2.813h8.437V33.75H5.953z" fill="#9E734C"/><path d="M8.766 28.125l8.437-17.578v7.031l-4.922 10.547H8.766zM22.828 2.109l2.813 2.813v23.203h-2.813V2.109z" fill="#C09267"/><path d="M17.906 10.547a.702.702 0 00-1.336-.305L8.133 27.82a.703.703 0 00.633 1.008h8.437a.703.703 0 00.703-.703V10.547zM16.5 27.422h-3.115l3.115-6.674v6.674zm0-10l-4.667 10h-1.95L16.5 13.636v3.786z" fill="#222831"/><path d="M28.951 27.629a.7.7 0 00-.498-.207h-2.109v-22.5a.704.704 0 00-.206-.497l-2.813-2.813a.699.699 0 00-.497-.206h-7.03a.703.703 0 00-.62.369L1.116 27.79a.703.703 0 00.056.757l4.219 5.625c.02.027.065.075.065.075L8.27 37.06c.132.131.31.206.497.206H16.5v2.812a.7.7 0 00.207.498l2.812 2.812c.132.132.31.206.497.206h5.625a.703.703 0 00.703-.703v-5.625h4.922a.702.702 0 00.65-.434c.027-.088.045-.178.053-.27v-5.624a.704.704 0 00-.206-.498l-2.812-2.811zm-5.42-23.822l1.407 1.406v22.209h-1.406V3.807zm-7.03 32.052H9.056L7.65 34.453h8.85v1.406zm.702-2.812H6.305l-3.737-4.984 13.651-25.25h5.906v25.312a.703.703 0 00.703.703h4.922v4.219h-4.922a.703.703 0 00-.703.703v5.625h-4.218V33.75a.703.703 0 00-.704-.703zm3.104 9.14L18.9 40.782h3.636l1.407 1.407h-3.637zm4.63-.994l-1.405-1.406v-4.34l1.406 1.407v4.34zm.995-5.334l-1.406-1.406h3.636l1.407 1.406h-3.637zm4.63-.994l-1.405-1.406v-3.637l1.406 1.407v3.636z" fill="#222831"/></svg>