<svg width="29" height="45" fill="none" xmlns="http://www.w3.org/2000/svg"><path d="M23.64 9.14V2.11H2.548v19.687H16.61v12.656H9.58v-4.922H2.546v6.328l2.812 4.22h15.47l2.812-5.626V21.797l-5.625-5.625H9.578V9.14h14.063z" fill="#FFD87D"/><path d="M23.64 9.14l2.813 2.813V4.922l-2.812-2.813v7.032zM5.36 40.078l2.812 2.813H23.64l-2.813-2.813H5.36zm15.468 0l2.813-5.625 2.812 2.813-2.812 5.625-2.813-2.813z" fill="#9E964C"/><path d="M23.64 21.797l2.813 2.812v12.657l-2.812-2.813V21.797zm-21.093 0l2.812 2.812h11.25v-2.812H2.547zm7.031 7.734l2.813 2.813v2.11H9.578V29.53zM23.64 9.14H9.579l2.813 2.813h14.062l-2.812-2.812z" fill="#9E964C"/><path d="M12.39 11.953v4.219H9.579V9.14l2.813 2.812z" fill="#9E964C"/><path d="M4.774 40.468c.028.037.057.073.088.107l2.813 2.813c.132.132.31.206.497.206H23.64a.699.699 0 00.623-.391l2.818-5.625c.038-.1.063-.206.074-.312V24.609a.703.703 0 00-.206-.497l-8.437-8.437a.703.703 0 00-.497-.206h-4.922v-2.813h13.36a.704.704 0 00.649-.434 1.3 1.3 0 00.053-.269V4.922a.703.703 0 00-.206-.497l-2.812-2.813a.699.699 0 00-.497-.206H2.547a.703.703 0 00-.703.703v19.688a.699.699 0 00.206.498l2.813 2.812a.7.7 0 00.496.206h10.547v8.437h-2.812v-1.406a.704.704 0 00-.206-.497l-2.813-2.813a.698.698 0 00-.497-.206H2.547a.703.703 0 00-.703.703v6.328c0 .14.041.275.118.39l2.812 4.22zm3.689 1.72L7.057 40.78h13.48l1.406 1.407H8.463zm15.88-18.694l1.407 1.407v10.667l-1.406-1.406V23.494zm1.254 13.912l-2.149 4.3-1.764-1.769 2.15-4.3 1.763 1.77zm-1.253-33.6l1.406 1.407v5.043L24.344 8.85V3.807zm.412 7.444H12.682l-1.407-1.406H23.35l1.407 1.406zm-13.069.994v3.225h-1.406v-4.631l1.406 1.406zM5.65 23.906L4.244 22.5h11.662v1.406H5.65zm4.631 7.323l1.406 1.406v1.115h-1.406v-2.521zm-7.031-.995h5.625v4.22a.703.703 0 00.703.702h7.031a.703.703 0 00.703-.703V21.797a.703.703 0 00-.703-.703H3.25V2.812h19.688v5.626H9.578a.703.703 0 00-.703.703v7.03a.703.703 0 00.703.704h8.146l5.213 5.213v12.2l-2.543 5.087H5.736L3.25 35.648v-5.414z" fill="#222831"/></svg>