<svg width="28" height="45" fill="none" xmlns="http://www.w3.org/2000/svg"><path d="M17.719 40.078l4.218-4.219V23.906l-3.515-3.515H7.875V7.734h8.438v7.032h5.625V6.328l-4.22-4.219H6.469L2.25 6.33v29.53l4.219 4.22h11.25zM7.875 26.016h8.438v8.437H7.874v-8.437z" fill="#FFB07B"/><path d="M7.875 26.016l2.813 2.812v5.625H7.874v-8.437zm2.813 2.812h5.624v-2.812H7.876l2.813 2.812zM7.875 7.734l2.813 2.813v9.844H7.874V7.734zm2.813 2.813h5.624V7.734H7.876l2.813 2.813zm5.624 4.219l2.813 2.812h5.625l-2.813-2.812h-5.625zm5.626-8.438l2.812 2.813v8.437l-2.813-2.812V6.328zM6.469 40.078l2.812 2.813h11.25l-2.812-2.813H6.469z" fill="#AC8560"/><path d="M17.712 40.078l4.218-4.219 2.813 2.813-4.22 4.218-2.811-2.812z" fill="#9E734C"/><path d="M21.938 35.86l2.812 2.812V26.719l-2.813-2.813V35.86z" fill="#AC8560"/><path d="M7.172 34.453a.703.703 0 00.703.703h8.438a.703.703 0 00.703-.703v-8.437a.703.703 0 00-.703-.703H7.874a.703.703 0 00-.703.703v8.437zm8.437-.703h-4.218v-4.219h4.218v4.219zm0-7.031v1.406h-4.63l-1.407-1.406h6.037zm-7.03.994l1.405 1.406v4.631H8.578v-6.037z" fill="#222831"/><path d="M18.216 1.612a.703.703 0 00-.497-.206H6.469a.703.703 0 00-.497.206l-4.22 4.219a.703.703 0 00-.205.497V35.86a.7.7 0 00.206.497l7.031 7.032c.132.132.31.206.497.206h11.25a.703.703 0 00.492-.211l4.22-4.219a.703.703 0 00.21-.492V26.719a.703.703 0 00-.206-.497l-6.328-6.329a.703.703 0 00-.497-.206H11.39V11.25h4.218v3.516c0 .186.075.365.206.497l2.813 2.812c.132.132.31.206.497.206h5.625a.702.702 0 00.65-.434c.027-.087.045-.178.053-.269V9.141a.703.703 0 00-.206-.497l-7.031-7.032zM9.572 42.187l-1.406-1.406h9.262l1.406 1.407H9.572zm13.069-16.583l1.406 1.406v9.964l-1.406-1.406v-9.964zm1.115 13.068l-3.225 3.224-1.818-1.818 3.224-3.224 1.819 1.818zM15.609 9.844h-4.63L9.572 8.438h6.037v1.406zm-5.625.994v8.85H8.578V9.431l1.406 1.406zm6.329-3.807H7.874a.703.703 0 00-.703.703v12.657a.703.703 0 00.703.703H18.13l3.103 3.103v11.371l-3.806 3.807H6.76l-3.807-3.807V6.62L6.76 2.813h10.668l3.806 3.806v7.444h-4.218V7.734a.703.703 0 00-.703-.703zm3.103 9.844l-1.406-1.406h3.636l1.407 1.406h-3.637zm4.63-.994l-1.405-1.406v-6.45l1.406 1.407v6.449z" fill="#222831"/></svg>