<svg width="126" height="126" fill="none" xmlns="http://www.w3.org/2000/svg"><path d="M63 0l.012 62.938L87.11 4.796 63.035 62.948l44.513-44.496-44.496 44.513 58.152-24.074-58.142 24.097L126 63l-62.938.012 58.142 24.097-58.152-24.074 44.496 44.513-44.513-44.496 24.074 58.152-24.097-58.142L63 126l-.012-62.938-24.097 58.142 24.074-58.152-44.513 44.496 44.496-44.513L4.796 87.11l58.142-24.097L0 63l62.938-.012L4.796 38.89l58.152 24.074-44.496-44.513 44.513 44.496L38.89 4.796l24.097 58.142L63 0z" fill="#567CF3" stroke="#567CF3" stroke-width="2.88"/></svg>