<svg width="195" height="195" fill="none" xmlns="http://www.w3.org/2000/svg"><path d="M97.5 0l.019 97.404 37.293-89.982-37.258 89.997 68.889-68.862-68.862 68.889 89.997-37.258-89.982 37.293L195 97.5l-97.404.019 89.982 37.293-89.997-37.258 68.862 68.889-68.889-68.862 37.258 89.997-37.293-89.982L97.5 195l-.019-97.404-37.293 89.982 37.258-89.997-68.889 68.862L97.42 97.554 7.422 134.812l89.982-37.293L0 97.5l97.404-.019L7.422 60.188l89.997 37.258-68.862-68.889L97.446 97.42 60.188 7.422l37.293 89.982L97.5 0z" fill="#222831" stroke="#222831" stroke-width="1.928"/></svg>