<svg width="175" height="175" fill="none" xmlns="http://www.w3.org/2000/svg"><path d="M87.5 0l.017 87.414L120.985 6.66 87.549 87.427l61.823-61.799-61.8 61.823 80.767-33.436-80.753 33.468L175 87.5l-87.414.017 80.753 33.468-80.766-33.436 61.799 61.823-61.823-61.8 33.436 80.767-33.468-80.753L87.5 175l-.017-87.414-33.468 80.753 33.436-80.766-61.823 61.799 61.8-61.823L6.66 120.985l80.753-33.468L0 87.5l87.414-.017L6.66 54.015l80.766 33.436-61.799-61.823 61.823 61.8L54.015 6.66l33.468 80.753L87.5 0z" fill="#F0C3D2" stroke="#222831" stroke-width="4"/></svg>