<svg width="126" height="126" viewBox="0 0 126 126" fill="none" xmlns="http://www.w3.org/2000/svg">
<path d="M63 0L63.0122 62.938L87.1092 4.79557L63.0351 62.9477L107.548 18.4523L63.0523 62.9649L121.204 38.8908L63.062 62.9878L126 63L63.062 63.0122L121.204 87.1092L63.0523 63.0351L107.548 107.548L63.0351 63.0523L87.1092 121.204L63.0122 63.062L63 126L62.9878 63.062L38.8908 121.204L62.9649 63.0523L18.4523 107.548L62.9477 63.0351L4.79557 87.1092L62.938 63.0122L0 63L62.938 62.9878L4.79557 38.8908L62.9477 62.9649L18.4523 18.4523L62.9649 62.9477L38.8908 4.79557L62.9878 62.938L63 0Z" fill="#567CF3" stroke="#567CF3" stroke-width="2.88"/>
</svg>
