<svg width="26" height="26" fill="none" xmlns="http://www.w3.org/2000/svg"><g clip-path="url(#clip0_61_1905)"><mask id="a" style="mask-type:luminance" maskUnits="userSpaceOnUse" x="0" y="0" width="26" height="26"><path d="M0 0h26v26H0V0z" fill="#fff"/></mask><g mask="url(#a)" stroke="#222831"><path d="M21.833 21.833c-4.878 4.879-12.788 4.879-17.666 0-4.879-4.878-4.879-12.788 0-17.666 4.878-4.879 12.788-4.879 17.666 0 4.879 4.878 4.879 12.788 0 17.666z" fill="#567CF3"/><path d="M17.35 7.102l-6.05 6.051-2.65-2.649-2.872 2.873 2.65 2.649 2.872 2.872 2.873-2.872 6.051-6.052-2.873-2.872z" fill="#fff"/></g></g><defs><clipPath id="clip0_61_1905"><path fill="#fff" d="M0 0h26v26H0z"/></clipPath></defs></svg>