<svg width="96" height="94" viewBox="0 0 96 94" fill="none" xmlns="http://www.w3.org/2000/svg">
<path fill-rule="evenodd" clip-rule="evenodd" d="M29.8762 0.370328C29.1841 0.566358 28.2543 0.965018 27.8099 1.25626C27.3655 1.54751 26.913 1.78574 26.8043 1.78574C26.5627 1.78574 24.6012 4.20351 24.0075 5.23286C23.4615 6.1796 22.953 7.86226 22.953 8.72319V9.38689H12.6759C7.0235 9.38689 2.10523 9.44509 1.74666 9.5161C1.31578 9.60132 0.96449 9.85596 0.711173 10.2662C0.343923 10.8613 0.330186 11.4254 0.378668 23.8891L0.42917 36.891L5.95206 36.991C11.1699 37.0855 11.4933 37.1133 11.8103 37.4927C12.2155 37.978 13.9507 39.3914 14.1412 39.3914C14.3426 39.3914 16.2868 40.8554 16.2868 41.007C16.2868 41.0787 16.673 41.3947 17.1453 41.7096C17.6176 42.0242 18.5196 42.6665 19.15 43.137C19.7805 43.6072 20.394 43.9921 20.5136 43.9921C20.6332 43.9921 20.7309 44.0711 20.7309 44.1677C20.7309 44.2645 21.2309 44.7254 21.842 45.1923L22.953 46.041V65.9834C22.953 88.1403 22.8845 86.9724 24.3149 89.1895C25.5617 91.1218 26.3106 91.8761 27.7343 92.6334C30.4376 94.0716 29.4829 94.016 50.3737 93.9546L69.1117 93.8996L70.5258 93.3203C72.3952 92.5542 73.4789 91.7661 74.2973 90.5771C74.6671 90.0396 75.0358 89.5996 75.1162 89.5994C75.3566 89.5988 75.9048 88.4082 76.3085 87.0104C76.6414 85.8576 76.687 84.9627 76.687 79.5803V73.4607L77.3446 72.8786C78.1219 72.1901 81.7047 69.3959 81.8099 69.3959C81.8499 69.3959 82.2364 69.0655 82.6685 68.6616C83.1008 68.2578 83.9088 67.6367 84.4643 67.281C85.0198 66.9255 85.6751 66.4459 85.9204 66.215C86.3458 65.8148 86.5735 65.7954 90.8191 65.7954H95.2717V54.305V42.8145L94.8227 42.5033C94.433 42.2328 93.2074 42.1918 85.5303 42.1918H76.687V25.2313C76.687 10.5993 76.6442 8.10709 76.3755 7.07854C76.0487 5.82715 75.4075 4.44794 74.9883 4.09469C74.8522 3.97987 74.3554 3.41719 73.8842 2.8443C73.004 1.77414 71.151 0.704579 69.3137 0.206704C68.7538 0.0548809 62.7693 -0.00832857 49.82 0.000872816C32.5278 0.0130747 31.0406 0.0404788 29.8762 0.370328ZM67.7351 1.17265C69.0178 1.35648 71.1615 2.1836 72.018 2.8253C72.2832 3.02413 72.8963 3.70403 73.3806 4.33653C73.8648 4.96882 74.3647 5.60832 74.4918 5.75734C74.6187 5.90636 74.8918 6.56706 75.0988 7.22536C75.4532 8.35313 75.475 9.39989 75.475 25.3037V42.1848L59.0948 42.2384L42.7146 42.2918L42.2272 42.8531L41.7397 43.4144V51.668C41.7397 58.4825 41.7934 60.1011 42.0478 60.949C42.2173 61.5139 42.4673 62.0928 42.6035 62.2356C42.7399 62.3783 43.0677 62.8099 43.3323 63.195C44.0363 64.2193 44.8498 64.801 46.315 65.3277L47.6163 65.7954H61.5455H75.475V71.3962V76.9971H49.82H24.1651L24.1647 62.8449C24.1645 55.0612 24.1045 46.06 24.0311 42.8419L23.898 36.991H41.17C55.2512 36.991 58.6128 36.9402 59.3659 36.7158C60.2616 36.4488 62.1425 35.2716 62.1425 34.9779C62.1425 34.8983 62.4069 34.5527 62.7301 34.2102C64.0264 32.836 64.0377 32.7324 64.1183 21.5887C64.1698 14.4444 64.1242 11.263 63.9622 10.7215C63.5424 9.31948 64.5874 9.38689 43.2612 9.38689H24.1651V8.68678C24.1651 8.30172 24.256 7.98667 24.3671 7.98667C24.4782 7.98667 24.5699 7.78404 24.5711 7.53661C24.5741 6.8399 25.4472 5.19625 26.434 4.02928C27.6968 2.53625 29.2621 1.67232 31.4373 1.26806C33.0235 0.973219 65.7429 0.887206 67.7351 1.17265ZM75.475 81.8768C75.475 85.0009 75.4136 85.7532 75.0677 86.8619C74.8437 87.58 74.5938 88.1971 74.5122 88.2332C74.4306 88.2692 74.0975 88.6588 73.772 89.0989C72.3166 91.0664 71.2181 91.8435 68.9833 92.4868C67.9813 92.7752 65.8891 92.8036 49.2962 92.7544L30.7303 92.6994L29.4173 92.0447C27.4095 91.0436 27.2665 90.9404 26.4213 89.8842C25.5108 88.7462 24.881 87.5771 24.6788 86.6485C24.6008 86.2909 24.4533 85.9984 24.3511 85.9984C24.244 85.9984 24.1651 84.3404 24.1651 82.0978V78.1972H49.82H75.475V81.8768ZM42.4574 85.1431C42.1435 85.9526 42.6629 86.006 50.3165 85.9508L57.5973 85.8984L57.6611 85.3483L57.7252 84.7982H50.158C43.1818 84.7982 42.5805 84.8252 42.4574 85.1431Z" fill="#FFFEFF"/>
<path fill-rule="evenodd" clip-rule="evenodd" d="M29.8762 0.370328C29.1841 0.566358 28.2543 0.965018 27.8099 1.25626C27.3655 1.54751 26.913 1.78574 26.8043 1.78574C26.5627 1.78574 24.6012 4.20351 24.0075 5.23286C23.4615 6.1796 22.953 7.86226 22.953 8.72319V9.38689H12.6759C7.02351 9.38689 2.10523 9.44509 1.74666 9.5161C1.31578 9.60132 0.96449 9.85596 0.711173 10.2662C0.343923 10.8613 0.330186 11.4254 0.378668 23.8891L0.42917 36.891L5.95206 36.991C11.1699 37.0855 11.4933 37.1133 11.8103 37.4927C12.2155 37.978 13.9507 39.3914 14.1412 39.3914C14.3426 39.3914 16.2868 40.8554 16.2868 41.007C16.2868 41.0787 16.673 41.3947 17.1453 41.7096C17.6176 42.0242 18.5196 42.6665 19.15 43.137C19.7805 43.6072 20.394 43.9921 20.5136 43.9921C20.6332 43.9921 20.7309 44.0711 20.7309 44.1677C20.7309 44.2645 21.2309 44.7254 21.842 45.1923L22.953 46.041V65.9834C22.953 88.1403 22.8845 86.9724 24.3149 89.1895C25.5617 91.1218 26.3106 91.8761 27.7343 92.6334C30.4376 94.0716 29.4829 94.016 50.3737 93.9546L69.1117 93.8996L70.5258 93.3203C72.3952 92.5542 73.4789 91.7661 74.2973 90.5771C74.6672 90.0396 75.0358 89.5996 75.1162 89.5994C75.3566 89.5988 75.9049 88.4082 76.3085 87.0104C76.6422 85.8552 76.687 84.9603 76.687 79.4708V73.2419L76.081 73.1539L75.475 73.0657V75.0314V76.9971H49.82H24.1651L24.1647 62.8449C24.1645 55.0612 24.1045 46.0598 24.0311 42.8419L23.898 36.991H41.1701C55.2512 36.991 58.6128 36.9402 59.3659 36.7158C60.2616 36.4488 62.1425 35.2716 62.1425 34.9779C62.1425 34.8983 62.4069 34.5527 62.7301 34.2102C64.0264 32.836 64.0377 32.7324 64.1183 21.5887C64.1698 14.4444 64.1242 11.263 63.9622 10.7215C63.5424 9.31948 64.5874 9.38689 43.2612 9.38689H24.1651V8.68678C24.1651 8.30172 24.256 7.98667 24.3671 7.98667C24.4782 7.98667 24.5699 7.78404 24.5711 7.53661C24.5763 6.34643 26.6536 3.35838 28.019 2.57686C29.4154 1.77754 30.3988 1.42089 31.7989 1.20585C33.5606 0.935013 65.8689 0.905409 67.7351 1.17265C69.0178 1.35648 71.1615 2.1836 72.018 2.8253C72.2833 3.02413 72.8963 3.70403 73.3806 4.33653C73.8648 4.96882 74.3567 5.59952 74.4734 5.73794C74.5904 5.87656 74.8409 6.37163 75.03 6.8381C75.3419 7.60742 75.3835 9.31067 75.475 25.0892L75.576 42.4919L76.1315 42.5551L76.687 42.6185V25.4447C76.687 10.6205 76.6444 8.10769 76.3755 7.07854C76.0487 5.82715 75.4075 4.44794 74.9883 4.09469C74.8522 3.97987 74.3555 3.41719 73.8842 2.8443C73.004 1.77414 71.151 0.704579 69.3138 0.206704C68.7538 0.0548809 62.7693 -0.00832857 49.82 0.000872816C32.5278 0.0130747 31.0406 0.0404788 29.8762 0.370328ZM43.0736 43.5692C42.758 43.9145 42.7338 44.643 42.7897 52.1205C42.8497 60.1647 42.8582 60.3103 43.3156 61.2947C44.0171 62.8041 45.5086 64.1875 46.9919 64.7048C47.2697 64.8018 53.9965 64.9292 61.9405 64.9881L76.384 65.0953L76.4394 68.5608C76.4731 70.6793 76.5707 72.0011 76.6901 71.9613C76.8812 71.8977 81.377 68.4292 84.2288 66.1454L85.665 64.9953H90.1654H94.6657V54.4079C94.6657 45.0499 94.6289 43.7841 94.3483 43.5062C94.0631 43.224 91.4609 43.192 68.7247 43.192C44.1826 43.192 43.4079 43.2034 43.0736 43.5692ZM57.7329 52.5244C58.2637 53 58.2193 54.0898 57.6533 54.4823C56.7014 55.1426 55.4762 54.6167 55.4762 53.5479C55.4762 53.2053 55.6267 52.7604 55.8106 52.5592C56.2271 52.1033 57.2426 52.0849 57.7329 52.5244ZM71.8388 52.5934C72.355 53.1045 72.3507 53.6039 71.8241 54.2666C71.2567 54.9811 70.3961 54.9749 69.822 54.2522C68.7693 52.927 70.63 51.3964 71.8388 52.5934ZM56.3305 53.0277C55.719 53.6331 56.5137 54.4141 57.2159 53.8976C57.5201 53.6737 57.5521 53.5437 57.3737 53.2553C57.0937 52.8024 56.6547 52.7066 56.3305 53.0277ZM70.3515 53.0487C69.9557 53.3353 70.0723 53.8936 70.567 54.0816C70.7391 54.147 71.0048 54.098 71.1575 53.9726C71.5324 53.6645 71.5084 53.0643 71.1152 52.9148C70.7088 52.7604 70.7625 52.751 70.3515 53.0487ZM75.475 81.8768C75.475 85.0009 75.4136 85.7532 75.0677 86.8619C74.8437 87.58 74.5938 88.1971 74.5122 88.2332C74.4306 88.2692 74.0975 88.6588 73.7721 89.0989C72.3166 91.0664 71.2181 91.8435 68.9833 92.4868C67.9813 92.7752 65.8891 92.8036 49.2962 92.7544L30.7303 92.6994L29.4173 92.0447C27.4095 91.0436 27.2665 90.9404 26.4213 89.8842C25.5108 88.7462 24.881 87.5771 24.6788 86.6485C24.6008 86.2909 24.4533 85.9984 24.3511 85.9984C24.244 85.9984 24.1651 84.3404 24.1651 82.0978V78.1972H49.82H75.475V81.8768ZM42.4574 85.1431C42.1435 85.9526 42.6629 86.006 50.3166 85.9508L57.5973 85.8984L57.6611 85.3483L57.7252 84.7982H50.158C43.1818 84.7982 42.5805 84.8252 42.4574 85.1431Z" fill="#567CF3"/>
<path fill-rule="evenodd" clip-rule="evenodd" d="M29.8762 0.370328C29.1841 0.566358 28.2543 0.965018 27.8099 1.25626C27.3655 1.54751 26.913 1.78574 26.8043 1.78574C26.5627 1.78574 24.6012 4.20351 24.0075 5.23286C23.4615 6.1796 22.953 7.86226 22.953 8.72319V9.38689H12.6759C7.02351 9.38689 2.10523 9.44509 1.74666 9.5161C1.31578 9.60132 0.96449 9.85596 0.711173 10.2662C0.343923 10.8613 0.330186 11.4254 0.378668 23.8891L0.42917 36.891L5.95206 36.991C11.1699 37.0855 11.4933 37.1133 11.8103 37.4927C12.2155 37.978 13.9507 39.3914 14.1412 39.3914C14.3426 39.3914 16.2868 40.8554 16.2868 41.007C16.2868 41.0787 16.673 41.3947 17.1453 41.7096C17.6176 42.0242 18.5196 42.6665 19.15 43.137C19.7805 43.6072 20.394 43.9921 20.5136 43.9921C20.6332 43.9921 20.7309 44.0711 20.7309 44.1677C20.7309 44.2645 21.2309 44.7254 21.842 45.1923L22.953 46.041V65.9834C22.953 88.1403 22.8845 86.9724 24.3149 89.1895C25.5617 91.1218 26.3106 91.8761 27.7343 92.6334C30.4376 94.0716 29.4829 94.016 50.3737 93.9546L69.1117 93.8996L70.5258 93.3203C72.3952 92.5542 73.4789 91.7661 74.2973 90.5771C74.6672 90.0396 75.0358 89.5996 75.1162 89.5994C75.3566 89.5988 75.9049 88.4082 76.3085 87.0104C76.6422 85.8552 76.687 84.9603 76.687 79.4708V73.2419L76.081 73.1539L75.475 73.0657V75.0314V76.9971H49.82H24.1651L24.1647 62.8449C24.1645 55.0612 24.1045 46.0598 24.0311 42.8419L23.898 36.991H41.1701C55.2512 36.991 58.6128 36.9402 59.3659 36.7158C60.2616 36.4488 62.1425 35.2716 62.1425 34.9779C62.1425 34.8983 62.4069 34.5527 62.7301 34.2102C64.0264 32.836 64.0377 32.7324 64.1183 21.5887C64.1698 14.4444 64.1242 11.263 63.9622 10.7215C63.5424 9.31948 64.5874 9.38689 43.2612 9.38689H24.1651V8.68678C24.1651 8.30172 24.256 7.98667 24.3671 7.98667C24.4782 7.98667 24.5699 7.78404 24.5711 7.53661C24.5763 6.34643 26.6536 3.35838 28.019 2.57686C29.4154 1.77754 30.3988 1.42089 31.7989 1.20585C33.5606 0.935013 65.8689 0.905409 67.7351 1.17265C69.0178 1.35648 71.1615 2.1836 72.018 2.8253C72.2833 3.02413 72.8963 3.70403 73.3806 4.33653C73.8648 4.96882 74.3567 5.59952 74.4734 5.73794C74.5904 5.87656 74.8409 6.37163 75.03 6.8381C75.3419 7.60742 75.3835 9.31067 75.475 25.0892L75.576 42.4919L76.1315 42.5551L76.687 42.6185V25.4447C76.687 10.6205 76.6444 8.10769 76.3755 7.07854C76.0487 5.82715 75.4075 4.44794 74.9883 4.09469C74.8522 3.97987 74.3555 3.41719 73.8842 2.8443C73.004 1.77414 71.151 0.704579 69.3138 0.206704C68.7538 0.0548809 62.7693 -0.00832857 49.82 0.000872816C32.5278 0.0130747 31.0406 0.0404788 29.8762 0.370328ZM56.0475 43.342C63.0834 43.3712 74.5373 43.3712 81.5005 43.342C88.4635 43.3128 82.7068 43.289 68.7077 43.289C54.7086 43.289 49.0114 43.3128 56.0475 43.342ZM42.8419 51.6933C42.8419 56.0939 42.8685 57.8658 42.9011 55.6304C42.9336 53.3953 42.9336 49.7948 42.9011 47.6292C42.8683 45.4639 42.8417 47.2926 42.8419 51.6933ZM94.4637 54.2896V64.7874L90.07 64.8454L85.6764 64.9034L90.171 64.9494L94.6657 64.9953V54.3937C94.6657 48.5628 94.6202 43.7921 94.5647 43.7921C94.5091 43.7921 94.4637 48.516 94.4637 54.2896ZM55.7601 52.4434C55.3756 52.893 55.3756 52.893 55.7952 52.5434C56.0261 52.351 56.4893 52.1933 56.8244 52.1933C57.5488 52.1933 58.0357 52.6686 58.1563 53.4935L58.2437 54.0936L58.274 53.4783C58.3371 52.1985 56.5859 51.4774 55.7601 52.4434ZM69.7087 52.4844C69.1366 53.0507 69.0964 53.3907 69.5083 54.1792C69.824 54.7841 70.1852 54.9938 70.911 54.9938C71.3409 54.9938 72.2429 54.2554 72.2429 53.9038C72.2429 53.8134 72.0505 53.9818 71.8154 54.2776C71.2603 54.9763 70.3355 54.9253 69.7644 54.1644C68.9239 53.0443 70.0753 51.8329 71.4926 52.3462C72.0804 52.5592 72.1049 52.5536 71.7498 52.2873C71.154 51.8407 70.2727 51.9257 69.7087 52.4844ZM56.3305 53.0277C56.0455 53.3099 56.0053 53.723 56.2487 53.8718C56.3402 53.9278 56.4085 53.7756 56.4002 53.5335C56.3897 53.2219 56.5032 53.0935 56.7893 53.0935C57.0802 53.0935 57.1886 53.2213 57.1765 53.5501C57.1648 53.872 57.223 53.9442 57.3741 53.7946C57.525 53.6451 57.5236 53.4807 57.369 53.2379C57.0909 52.8006 56.6501 52.7112 56.3305 53.0277ZM55.3136 53.4935C55.3177 53.8236 55.3629 53.9344 55.4142 53.7398C55.4655 53.5451 55.4621 53.2751 55.4067 53.1397C55.3514 53.0042 55.3096 53.1635 55.3136 53.4935ZM70.1331 53.1755C69.8129 53.6884 70.7062 54.4119 71.115 53.9708C71.2758 53.7974 71.2645 53.7738 71.0724 53.8814C70.7284 54.0744 70.2163 53.6429 70.3573 53.2789C70.4793 52.964 70.3129 52.8872 70.1331 53.1755ZM55.8522 54.5777C56.1144 54.8065 56.5362 54.9938 56.7893 54.9938C57.0424 54.9938 57.4642 54.8065 57.7264 54.5777L58.2033 54.1616L57.7038 54.4777C57.4292 54.6515 57.0175 54.7937 56.7893 54.7937C56.561 54.7937 56.1493 54.6515 55.8748 54.4777L55.3752 54.1616L55.8522 54.5777ZM43.5578 61.866C43.5578 62.3929 46.2279 64.608 46.8364 64.5858C46.9776 64.5808 46.6723 64.3596 46.1582 64.0945C45.6443 63.8293 44.8488 63.1908 44.3907 62.6755C43.9325 62.16 43.5578 61.7958 43.5578 61.866ZM47.3582 64.7318C47.5038 64.7896 47.6781 64.7824 47.7452 64.716C47.8123 64.6496 47.6931 64.6024 47.4802 64.611C47.2448 64.6206 47.1969 64.668 47.3582 64.7318ZM62.1425 64.9933L76.384 65.0953L76.4394 68.5458C76.4901 71.7157 76.6117 72.4026 77.0092 71.7653C77.0987 71.6223 77.0648 71.5886 76.9203 71.6773C76.7476 71.7829 76.687 70.9702 76.687 68.5476C76.687 66.2692 76.6135 65.2025 76.4446 65.0353C76.2598 64.8522 72.8428 64.8066 62.0516 64.8432L47.9009 64.8912L62.1425 64.9933ZM84.4451 65.8454L84.0603 66.2954L84.5148 65.9144C84.9419 65.5563 85.0612 65.3953 84.8996 65.3953C84.8613 65.3953 84.6568 65.5977 84.4451 65.8454ZM82.8483 67.0176C81.3086 68.2489 81.073 68.5768 82.4859 67.5218C83.5587 66.7207 84.1508 66.1762 83.9207 66.2026C83.8864 66.2064 83.4038 66.5733 82.8483 67.0176ZM79.1111 70.0128L78.2021 70.8287L79.1616 70.0882C80.0028 69.4391 80.2521 69.1945 80.0706 69.1965C80.043 69.1967 79.6111 69.5641 79.1111 70.0128ZM77.5769 71.2462L77.192 71.6963L77.6466 71.3152C78.0736 70.9572 78.193 70.7961 78.0314 70.7961C77.993 70.7961 77.7886 70.9986 77.5769 71.2462ZM75.475 81.8768C75.475 85.0009 75.4136 85.7532 75.0677 86.8619C74.8437 87.58 74.5938 88.1971 74.5122 88.2332C74.4306 88.2692 74.0975 88.6588 73.7721 89.0989C72.3166 91.0664 71.2181 91.8435 68.9833 92.4868C67.9813 92.7752 65.8891 92.8036 49.2962 92.7544L30.7303 92.6994L29.4173 92.0447C27.4095 91.0436 27.2665 90.9404 26.4213 89.8842C25.5108 88.7462 24.881 87.5771 24.6788 86.6485C24.6008 86.2909 24.4533 85.9984 24.3511 85.9984C24.244 85.9984 24.1651 84.3404 24.1651 82.0978V78.1972H49.82H75.475V81.8768ZM42.4574 85.1431C42.1435 85.9526 42.6629 86.006 50.3166 85.9508L57.5973 85.8984L57.6611 85.3483L57.7252 84.7982H50.158C43.1818 84.7982 42.5805 84.8252 42.4574 85.1431Z" fill="#FFC746"/>
<path fill-rule="evenodd" clip-rule="evenodd" d="M29.8762 0.370328C29.1841 0.566358 28.2543 0.965018 27.8099 1.25626C27.3655 1.54751 26.913 1.78574 26.8043 1.78574C26.5627 1.78574 24.6012 4.20351 24.0075 5.23286C23.4615 6.1796 22.953 7.86226 22.953 8.72319V9.38689H12.6759C7.0235 9.38689 2.10523 9.44509 1.74666 9.5161C1.31578 9.60132 0.96449 9.85596 0.711173 10.2662C0.343923 10.8613 0.330186 11.4254 0.378668 23.8891L0.42917 36.891L5.95206 36.991C11.1699 37.0855 11.4933 37.1133 11.8103 37.4927C12.2155 37.978 13.9507 39.3914 14.1412 39.3914C14.3426 39.3914 16.2868 40.8554 16.2868 41.007C16.2868 41.0787 16.673 41.3947 17.1453 41.7096C17.6176 42.0242 18.5196 42.6665 19.15 43.137C19.7805 43.6072 20.394 43.9921 20.5136 43.9921C20.6332 43.9921 20.7309 44.0711 20.7309 44.1677C20.7309 44.2645 21.2309 44.7254 21.842 45.1923L22.953 46.041V65.9834C22.953 88.1403 22.8845 86.9724 24.3149 89.1895C25.5617 91.1218 26.3106 91.8761 27.7343 92.6334C30.4376 94.0716 29.4829 94.016 50.3737 93.9546L69.1117 93.8996L70.5258 93.3203C72.3952 92.5542 73.4789 91.7661 74.2973 90.5771C74.6671 90.0396 75.0358 89.5996 75.1162 89.5994C75.3566 89.5988 75.9048 88.4082 76.3085 87.0104C76.6422 85.8548 76.687 84.9597 76.687 79.448V73.1965H76.081H75.475V75.0968V76.9971H49.82H24.1651L24.1647 62.8449C24.1645 55.0612 24.1045 46.0598 24.0311 42.8419L23.898 36.991H41.17C55.2512 36.991 58.6128 36.9402 59.3659 36.7158C60.2616 36.4488 62.1425 35.2716 62.1425 34.9779C62.1425 34.8983 62.4069 34.5527 62.7301 34.2102C64.0264 32.836 64.0377 32.7324 64.1183 21.5887C64.1698 14.4444 64.1242 11.263 63.9622 10.7215C63.5424 9.31948 64.5874 9.38689 43.2612 9.38689H24.1651V8.68678C24.1651 8.30172 24.256 7.98667 24.3671 7.98667C24.4782 7.98667 24.5699 7.78404 24.5711 7.53661C24.5763 6.34643 26.6536 3.35838 28.019 2.57686C29.4154 1.77754 30.3988 1.42089 31.7989 1.20585C33.5606 0.935013 65.8689 0.905409 67.7351 1.17265C69.0178 1.35648 71.1615 2.1836 72.018 2.8253C72.2832 3.02413 72.8963 3.70403 73.3806 4.33653C73.8648 4.96882 74.3567 5.59952 74.4734 5.73794C74.5904 5.87656 74.8409 6.37163 75.03 6.8381C75.3419 7.60742 75.3835 9.31067 75.475 25.0892L75.576 42.4919H76.081H76.586L76.6377 25.3985C76.6826 10.5357 76.6486 8.1475 76.3777 7.09574C76.0527 5.83475 75.413 4.45274 74.9883 4.09469C74.8522 3.97987 74.3554 3.41719 73.8842 2.8443C73.004 1.77414 71.151 0.704579 69.3137 0.206704C68.7538 0.0548809 62.7693 -0.00832857 49.82 0.000872816C32.5278 0.0130747 31.0406 0.0404788 29.8762 0.370328ZM62.7309 10.8661C62.9028 11.0713 62.9495 13.8332 62.9071 21.3177L62.8495 31.4902L62.3707 32.5388C61.8183 33.7494 60.6757 34.8513 59.339 35.4634C58.4134 35.8871 58.2518 35.8917 40.7297 35.9909L23.054 36.0909L22.953 40.2683L22.852 44.4458L21.842 43.6824C20.056 42.3328 18.4238 41.1021 17.8018 40.6362C15.7686 39.1134 13.4348 37.3369 12.6506 36.7154L11.7416 35.9947L6.6409 35.9929L1.54021 35.9909V23.529C1.54021 14.1032 1.5992 11.0087 1.78262 10.8271C1.96907 10.6425 9.01348 10.5871 32.2611 10.5871C57.8767 10.5871 62.5328 10.6297 62.7309 10.8661ZM13.3577 17.7325C12.6326 17.9086 11.3505 18.5595 10.7316 19.0655C10.1597 19.5332 10.1449 19.5806 10.4698 19.9085C10.7962 20.2377 10.8534 20.2287 11.5808 19.7332C13.5879 18.3656 15.3218 18.4426 17.4794 19.9955C18.9539 21.0566 19.8776 21.3799 21.438 21.3807C22.9459 21.3815 23.1924 21.2821 26.0841 19.5046C27.2164 18.8087 27.384 18.7641 28.6316 18.8289C29.7193 18.8853 30.1255 19.0085 30.8216 19.4934C32.9807 20.9968 33.8883 21.3771 35.3324 21.3831C36.9305 21.3897 37.5828 21.1539 39.4291 19.9021C41.0185 18.8243 41.386 18.7097 42.8631 18.8309C43.7622 18.9049 44.2222 19.0939 45.3367 19.8479C47.1911 21.1026 47.963 21.3887 49.493 21.3887C50.5691 21.3887 51.0165 21.2751 52.0732 20.7334C52.8245 20.3483 53.3814 19.9251 53.4238 19.7072C53.5539 19.0375 53.0237 19.0007 51.9431 19.6046C49.924 20.733 48.4821 20.602 46.1839 19.0817C45.4617 18.6041 44.3781 18.0572 43.7759 17.8666C42.3455 17.4135 40.9757 17.6777 39.2985 18.7299C37.3574 19.9473 36.6806 20.2481 35.6651 20.3447C34.6012 20.4459 33.5689 20.0385 31.279 18.6137C29.0478 17.2253 27.4568 17.3109 24.905 18.9567C21.9967 20.8326 20.8245 20.8462 18.0426 19.0367C16.153 17.8076 14.7071 17.4051 13.3577 17.7325ZM27.4667 25.9982C26.4441 26.1978 25.331 26.7469 24.3028 27.5588C23.2815 28.3651 22.3282 28.6544 21.0404 28.5486C19.9958 28.4628 19.6417 28.2945 17.2116 26.7297C16.3492 26.1742 16.0074 26.08 14.6317 26.018C13.2472 25.9558 12.9096 26.0128 11.9713 26.4673C10.7819 27.0435 10.1166 27.6516 10.3197 27.9771C10.5118 28.2847 11.3485 28.2381 11.6285 27.9043C11.9426 27.5292 13.5625 26.9895 14.3735 26.9895C15.3371 26.9895 16.2334 27.3536 17.8483 28.4009C19.4668 29.4505 20.956 29.904 22.0999 29.6953C23.1075 29.5117 24.3549 28.9448 24.9731 28.3893C25.2508 28.1399 25.9641 27.7122 26.5582 27.439C27.8939 26.8249 29.0957 26.8889 30.6848 27.6588C31.2874 27.9509 31.9306 28.1897 32.1141 28.1897C32.6746 28.1897 32.4827 27.5152 31.7894 27.0493C30.3699 26.095 28.8559 25.7269 27.4667 25.9982ZM56.1485 43.342C63.1289 43.3712 74.4918 43.3712 81.3995 43.342C88.3069 43.3128 82.5957 43.289 68.7077 43.289C54.8197 43.289 49.1679 43.3128 56.1485 43.342ZM94.5124 54.2396L94.4637 64.7874L90.07 64.8454L85.6764 64.9034L90.0763 64.9494C93.445 64.9845 94.499 64.9366 94.573 64.7452C94.6263 64.6078 94.6453 59.8145 94.6154 54.0936L94.5611 43.692L94.5124 54.2396ZM42.8417 51.6933C42.8417 55.9839 42.8683 57.7108 42.9011 55.5306C42.9338 53.3505 42.9336 49.84 42.9009 47.7295C42.8683 45.6189 42.8415 47.4026 42.8417 51.6933ZM56.0073 52.1515C55.953 52.2385 56.2245 52.2731 56.6105 52.2285C57.4908 52.1269 58.0908 52.6178 58.1326 53.4745L58.1629 54.0936L58.249 53.5227C58.368 52.735 57.6486 51.9933 56.766 51.9933C56.403 51.9933 56.0616 52.0645 56.0073 52.1515ZM70.8357 52.1777C71.2284 52.2539 71.6829 52.3854 71.8457 52.4698C72.0085 52.554 71.9653 52.4814 71.7497 52.3081C71.534 52.1349 71.0795 52.0037 70.7397 52.0163C70.125 52.0391 70.1256 52.0401 70.8357 52.1777ZM69.5273 52.638C69.3543 52.8824 69.2206 53.2649 69.2301 53.4881C69.243 53.7912 69.2905 53.7516 69.4182 53.3307C69.5119 53.0211 69.6972 52.6386 69.8295 52.4806C69.962 52.3225 70.0187 52.1933 69.9559 52.1933C69.8931 52.1933 69.7002 52.3934 69.5273 52.638ZM56.3305 53.0277C56.0455 53.3099 56.0053 53.723 56.2487 53.8718C56.3402 53.9278 56.4085 53.7756 56.4002 53.5335C56.3897 53.2219 56.5032 53.0935 56.7893 53.0935C57.0802 53.0935 57.1886 53.2213 57.1765 53.5501C57.1648 53.872 57.223 53.9442 57.3741 53.7946C57.525 53.6451 57.5236 53.4807 57.369 53.2379C57.0909 52.8006 56.6501 52.7112 56.3305 53.0277ZM55.3136 53.4935C55.3176 53.8236 55.3629 53.9344 55.4142 53.7398C55.4655 53.5451 55.4621 53.2751 55.4067 53.1397C55.3514 53.0042 55.3096 53.1635 55.3136 53.4935ZM70.1553 53.2789C70.0945 53.4359 70.1985 53.679 70.3862 53.8194C70.668 54.0296 70.6864 54.0278 70.491 53.8096C70.3609 53.6639 70.3024 53.4207 70.3612 53.2691C70.4199 53.1175 70.4226 52.9935 70.367 52.9935C70.3115 52.9935 70.2163 53.1219 70.1553 53.2789ZM55.8522 54.5777C56.1144 54.8065 56.5362 54.9938 56.7893 54.9938C57.0424 54.9938 57.4642 54.8065 57.7264 54.5777L58.2033 54.1616L57.7038 54.4777C57.4292 54.6515 57.0175 54.7937 56.7893 54.7937C56.561 54.7937 56.1493 54.6515 55.8748 54.4777L55.3752 54.1616L55.8522 54.5777ZM69.9079 54.7001C70.4403 55.099 71.327 55.0704 71.6528 54.6437C71.8805 54.3459 71.878 54.3311 71.6372 54.5437C71.2987 54.8427 70.2977 54.8757 70.1218 54.5937C70.0531 54.4837 69.8887 54.3965 69.7563 54.4001C69.624 54.4035 69.6923 54.5385 69.9079 54.7001ZM44.5678 63.095C44.9448 63.48 45.2985 63.7951 45.354 63.7951C45.4096 63.7951 45.1468 63.48 44.7698 63.095C44.3929 62.7099 44.0392 62.3949 43.9836 62.3949C43.9281 62.3949 44.1909 62.7099 44.5678 63.095ZM45.5779 63.8931C45.5779 64.0301 46.8147 64.6372 46.9071 64.5458C46.9509 64.5024 46.6699 64.3172 46.2823 64.1341C45.8948 63.9513 45.5779 63.8429 45.5779 63.8931ZM47.3582 64.7318C47.5038 64.7896 47.6781 64.7824 47.7452 64.716C47.8123 64.6496 47.6931 64.6024 47.4802 64.611C47.2448 64.6206 47.1969 64.668 47.3582 64.7318ZM62.2435 64.9933L76.384 65.0953L76.4394 68.5458C76.4901 71.7157 76.6117 72.4026 77.0092 71.7653C77.0987 71.6223 77.0648 71.5886 76.9203 71.6773C76.7476 71.7829 76.687 70.9702 76.687 68.5476C76.687 66.2692 76.6135 65.2025 76.4446 65.0353C76.2598 64.8522 72.8652 64.8066 62.1526 64.8432L48.103 64.8912L62.2435 64.9933ZM84.5395 65.7454C84.2884 66.0626 84.2954 66.0696 84.6158 65.821C84.9524 65.5595 85.0592 65.3953 84.893 65.3953C84.8512 65.3953 84.692 65.5529 84.5395 65.7454ZM82.8483 67.0176C81.3106 68.2473 81.0635 68.5888 82.5075 67.4886C83.6229 66.6385 84.128 66.1788 83.9207 66.2026C83.8864 66.2064 83.4038 66.5733 82.8483 67.0176ZM79.1111 70.0128L78.2021 70.8287L79.1616 70.0882C80.0028 69.4391 80.252 69.1945 80.0706 69.1965C80.043 69.1967 79.6111 69.5641 79.1111 70.0128ZM77.5769 71.2462L77.192 71.6963L77.6466 71.3152C78.0736 70.9572 78.193 70.7961 78.0314 70.7961C77.993 70.7961 77.7886 70.9986 77.5769 71.2462ZM75.475 81.8768C75.475 85.0009 75.4136 85.7532 75.0677 86.8619C74.8437 87.58 74.5938 88.1971 74.5122 88.2332C74.4306 88.2692 74.0975 88.6588 73.772 89.0989C72.3166 91.0664 71.2181 91.8435 68.9833 92.4868C67.9813 92.7752 65.8891 92.8036 49.2962 92.7544L30.7303 92.6994L29.4173 92.0447C27.4095 91.0436 27.2665 90.9404 26.4213 89.8842C25.5108 88.7462 24.881 87.5771 24.6788 86.6485C24.6008 86.2909 24.4533 85.9984 24.3511 85.9984C24.244 85.9984 24.1651 84.3404 24.1651 82.0978V78.1972H49.82H75.475V81.8768ZM42.4574 85.1431C42.1435 85.9526 42.6629 86.006 50.3165 85.9508L57.5973 85.8984L57.6611 85.3483L57.7252 84.7982H50.158C43.1818 84.7982 42.5805 84.8252 42.4574 85.1431Z" fill="#78A79F"/>
<path fill-rule="evenodd" clip-rule="evenodd" d="M29.8762 0.370328C29.1841 0.566358 28.2543 0.965018 27.8099 1.25626C27.3655 1.54751 26.913 1.78574 26.8043 1.78574C26.5627 1.78574 24.6012 4.20351 24.0075 5.23286C23.4615 6.1796 22.953 7.86226 22.953 8.72319V9.38689H12.6759C7.0235 9.38689 2.10523 9.44509 1.74666 9.5161C1.31578 9.60132 0.96449 9.85596 0.711173 10.2662C0.343923 10.8613 0.330186 11.4254 0.378668 23.8891L0.42917 36.891L5.89711 36.991L11.3653 37.0911L12.6484 38.2412C13.354 38.8739 14.0093 39.3914 14.1043 39.3914C14.3315 39.3914 16.2868 40.8388 16.2868 41.007C16.2868 41.0787 16.673 41.3947 17.1453 41.7096C17.6176 42.0242 18.5196 42.6665 19.15 43.137C19.7805 43.6072 20.394 43.9921 20.5136 43.9921C20.6332 43.9921 20.7309 44.0711 20.7309 44.1677C20.7309 44.2645 21.2309 44.7254 21.842 45.1923L22.953 46.041V65.9834C22.953 87.7467 22.9142 86.9758 24.1061 88.8795C25.3363 90.8446 26.2558 91.8189 27.5624 92.5424C30.3093 94.0634 29.333 93.9996 49.8237 93.9996C69.6428 93.9996 69.0719 94.0286 71.4772 92.9009C72.6939 92.3304 73.6961 91.4726 74.4649 90.3435C74.7427 89.9354 75.0358 89.6012 75.1162 89.6004C75.3568 89.5982 75.905 88.4072 76.3085 87.0104C76.6416 85.8574 76.687 84.9625 76.687 79.5708V73.4419L76.081 73.3539L75.475 73.2657V75.1314V76.9971H49.82H24.1651L24.1647 62.8449C24.1645 55.0612 24.1045 46.0598 24.0311 42.8419L23.898 36.991H41.17C55.2512 36.991 58.6128 36.9402 59.3659 36.7158C60.2616 36.4488 62.1425 35.2716 62.1425 34.9779C62.1425 34.8983 62.4069 34.5527 62.7301 34.2102C64.0264 32.836 64.0377 32.7324 64.1183 21.5887C64.1698 14.4444 64.1242 11.263 63.9622 10.7215C63.5424 9.31948 64.5874 9.38689 43.2612 9.38689H24.1651V8.68678C24.1651 8.30172 24.256 7.98667 24.3671 7.98667C24.4782 7.98667 24.5699 7.78404 24.5711 7.53661C24.5763 6.34643 26.6536 3.35838 28.019 2.57686C29.4154 1.77754 30.3988 1.42089 31.7989 1.20585C33.5606 0.935013 65.8689 0.905409 67.7351 1.17265C69.0178 1.35648 71.1615 2.1836 72.018 2.8253C72.2832 3.02413 72.8963 3.70403 73.3806 4.33653C73.8648 4.96882 74.3567 5.59952 74.4734 5.73794C74.5904 5.87656 74.8409 6.37163 75.03 6.8381C75.3419 7.60722 75.3835 9.30487 75.475 24.9892L75.576 42.2918H76.081H76.586L76.6377 25.2987C76.6826 10.5257 76.6486 8.1473 76.3777 7.09594C76.0527 5.83475 75.413 4.45274 74.9883 4.09469C74.8522 3.97987 74.3554 3.41719 73.8842 2.8443C73.004 1.77414 71.151 0.704579 69.3137 0.206704C68.7538 0.0548809 62.7693 -0.00832857 49.82 0.000872816C32.5278 0.0130747 31.0406 0.0404788 29.8762 0.370328ZM62.8568 10.8701C63.1398 11.2978 63.1693 12.5078 63.1139 21.4217L63.0515 31.4902L62.4897 32.6226C61.8429 33.9268 60.6793 35.0498 59.339 35.6634C58.411 36.0883 58.2985 36.0913 40.7802 36.1461L23.155 36.2015V40.4182C23.155 44.0567 23.114 44.6194 22.8565 44.5216C22.6922 44.4592 20.679 42.9867 18.3826 41.2497C16.0862 39.5124 13.6292 37.6637 12.9225 37.1411L11.6378 36.1909H6.58899H1.54021V23.529C1.54021 13.9476 1.5992 10.8087 1.78262 10.6271C1.96907 10.4424 9.01792 10.387 32.2811 10.387H62.5372L62.8568 10.8701ZM13.0447 18.0606C11.7818 18.3978 10.6306 19.1342 10.6306 19.6048C10.6306 20.0975 10.7047 20.0889 11.5885 19.4942C11.9923 19.2226 12.7979 18.8949 13.3787 18.7661C14.826 18.4454 15.9506 18.7543 17.8503 19.9947C20.737 21.8794 22.1731 21.8524 25.1408 19.8577C27.6473 18.173 29.1827 18.1764 31.6834 19.8719C32.3918 20.3521 33.4023 20.89 33.9285 21.067C35.7037 21.6637 36.776 21.4255 39.0296 19.9337C41.5102 18.2914 43.3362 18.2182 45.3894 19.6788C47.6452 21.2837 49.111 21.6627 50.8715 21.0966C52.0819 20.7074 53.2541 19.9113 53.2541 19.4782C53.2541 19.0541 52.9766 19.1177 51.9124 19.786C50.0101 20.9806 48.5615 20.8552 46.1867 19.2904C43.3437 17.4167 41.5498 17.3999 38.8001 19.221C37.1929 20.2853 36.4027 20.5912 35.2769 20.5842C34.4757 20.5792 33.1661 20.0423 32.1936 19.3204C30.9107 18.368 29.795 17.9418 28.5197 17.9166C27.082 17.8882 26.3997 18.1378 24.4008 19.4236C21.9399 21.0068 20.673 20.9806 18.1129 19.2938C17.0998 18.6261 16.0995 18.1386 15.4664 18.0042C14.2534 17.7465 14.2172 17.7475 13.0447 18.0606ZM13.4368 26.172C12.2658 26.4052 10.7402 27.2826 10.6669 27.7647C10.5827 28.3195 10.8507 28.3011 11.7604 27.69C13.4312 26.5671 15.1341 26.5683 16.9154 27.693C19.0028 29.0112 20.1241 29.4565 21.3559 29.4565C22.733 29.4565 23.396 29.2071 25.3357 27.9593C27.5612 26.5277 29.1468 26.4627 31.1064 27.7232C31.6492 28.0723 31.9508 28.1613 32.0977 28.0159C32.4055 27.711 31.952 27.252 30.743 26.6447C29.9568 26.25 29.4164 26.1312 28.4068 26.1308C26.9885 26.1306 26.1593 26.4501 24.3103 27.7096C22.1504 29.1807 20.4724 29.1209 18.0739 27.4872C16.2845 26.2684 14.9101 25.8786 13.4368 26.172ZM75.475 81.8768C75.475 85.0009 75.4136 85.7532 75.0677 86.8619C74.8437 87.58 74.5938 88.1971 74.5122 88.2332C74.4306 88.2692 74.0975 88.6588 73.772 89.0989C72.3166 91.0664 71.2181 91.8435 68.9833 92.4868C67.9813 92.7752 65.8891 92.8036 49.2962 92.7544L30.7303 92.6994L29.4173 92.0447C27.4095 91.0436 27.2665 90.9404 26.4213 89.8842C25.5108 88.7462 24.881 87.5771 24.6788 86.6485C24.6008 86.2909 24.4533 85.9984 24.3511 85.9984C24.244 85.9984 24.1651 84.3404 24.1651 82.0978V78.1972H49.82H75.475V81.8768ZM42.4574 85.1431C42.1435 85.9526 42.6629 86.006 50.3165 85.9508L57.5973 85.8984L57.6611 85.3483L57.7252 84.7982H50.158C43.1818 84.7982 42.5805 84.8252 42.4574 85.1431Z" fill="#2A2A2A"/>
</svg>
