<svg width="107" height="94" viewBox="0 0 107 94" fill="none" xmlns="http://www.w3.org/2000/svg">
<path fill-rule="evenodd" clip-rule="evenodd" d="M0.198148 0.521155C0.0716663 0.853906 0 15.8992 0 42.1161C0 80.0735 0.0253776 83.2107 0.335797 83.4684C0.615559 83.7006 4.98355 83.7556 26.627 83.7999L52.5824 83.8529V88.3171V92.7813H36.87C22.7296 92.7813 21.1452 92.8134 21.0344 93.1025C20.6698 94.0525 18.7717 93.9995 53.1915 93.9995C78.8838 93.9995 85.4706 93.9477 85.4653 93.7457C85.4618 93.6062 85.3376 93.3319 85.1892 93.1366C84.9364 92.8037 83.9453 92.7813 69.4616 92.7813H54.0035V88.3149V83.8484H79.8639C101.377 83.8484 105.762 83.8021 105.953 83.5733C106.12 83.3709 106.167 72.2791 106.13 41.7003L106.078 0.102323L53.2374 0.0511613L0.396297 0L0.198148 0.521155ZM105.165 34.2098V67.2007H53.293H1.42115V34.2098V1.21894H53.293H105.165V34.2098ZM47.4054 7.61653C47.182 7.65511 46.0171 7.79803 44.8169 7.93426C43.6166 8.07028 42.6344 8.2595 42.6344 8.35471C42.6344 8.44973 42.4462 8.52769 42.2162 8.52769C41.5537 8.52769 37.2866 9.53102 37.163 9.71577C37.1015 9.80753 36.3206 10.0796 35.4277 10.32C34.5349 10.5605 33.7758 10.8427 33.7411 10.9469C33.7061 11.0512 33.1838 11.292 32.5802 11.4818C31.6441 11.7762 31.3752 11.9829 30.7542 12.8847L30.0258 13.9421L30.0873 25.8864C30.1352 35.2172 30.204 37.849 30.4024 37.915C30.5421 37.9614 30.6561 38.2028 30.6561 38.4515C30.6561 39.0569 31.4804 42.3039 31.6666 42.4322C31.7476 42.488 32.0178 43.1503 32.2667 43.9041C32.5158 44.6579 32.7844 45.2745 32.8636 45.2745C32.943 45.2745 33.2595 45.8226 33.5671 46.4926C33.8746 47.1626 34.2043 47.7107 34.3 47.7107C34.3956 47.7107 34.5665 47.9621 34.6798 48.269C34.7931 48.5762 35.1181 49.1014 35.4022 49.4364C37.0064 51.3283 38.1909 52.5917 39.183 53.4694C41.5878 55.5964 41.8824 55.8315 42.1423 55.8315C42.2903 55.8315 42.4841 55.9534 42.5735 56.1022C42.6628 56.2512 43.1927 56.5937 43.751 56.8635C44.3093 57.1331 44.8118 57.4094 44.8676 57.4774C45.0296 57.6748 46.9214 58.4708 47.2281 58.4708C47.3814 58.4708 47.5069 58.5537 47.5069 58.655C47.5069 58.7563 48.0321 58.9989 48.6743 59.194C49.3162 59.3893 50.2499 59.7289 50.7489 59.9488C51.5102 60.2844 51.963 60.3327 53.5624 60.2489C54.6226 60.1935 55.5301 60.0501 55.6068 59.9257C55.6827 59.8028 56.3809 59.5062 57.1583 59.2667C57.9355 59.0273 58.6172 58.7682 58.673 58.6911C58.7289 58.6139 59.277 58.3386 59.8912 58.0794C60.5053 57.8199 61.0534 57.5497 61.1093 57.4789C61.1651 57.408 61.6905 57.1297 62.2766 56.8607C62.8628 56.5915 63.3425 56.2973 63.3425 56.2069C63.3425 56.1168 63.7124 55.8541 64.1645 55.6235C64.6167 55.3928 65.0375 55.0712 65.0999 54.9088C65.1622 54.7464 65.3226 54.6134 65.4562 54.6134C65.5897 54.6134 66.0139 54.2859 66.3988 53.8856C66.7835 53.4852 67.3497 53.026 67.6567 52.8652C67.9637 52.7044 68.215 52.4462 68.215 52.2915C68.215 52.1368 68.4676 51.7965 68.7762 51.5354C69.0847 51.2743 69.5539 50.755 69.8187 50.3815C70.0836 50.0081 70.5162 49.4693 70.7804 49.1844C71.0443 48.8996 71.2603 48.5401 71.2603 48.3853C71.2603 48.2306 71.3827 48.0571 71.5324 47.9996C71.682 47.9422 72.0673 47.3055 72.3887 46.5848C72.7103 45.8642 73.0372 45.2745 73.1153 45.2745C73.1935 45.2745 73.4611 44.6579 73.7102 43.9041C73.9591 43.1503 74.2275 42.488 74.3064 42.4322C74.5001 42.2949 74.8375 41.1678 75.1264 39.6914C75.2574 39.0214 75.4379 38.3819 75.5274 38.2702C75.9018 37.8027 76.1328 32.3083 76.1316 23.8956C76.1306 14.8774 76.0498 13.6942 75.3896 13.0339C75.2247 12.8691 74.9608 12.5371 74.803 12.2966C74.6453 12.056 74.035 11.6879 73.4467 11.479C72.8583 11.2699 72.3242 11.0202 72.2598 10.9239C72.1954 10.8279 71.4189 10.5542 70.5341 10.3159C69.6494 10.0778 68.8754 9.80753 68.8139 9.71577C68.6903 9.53102 64.4232 8.52769 63.7607 8.52769C63.5307 8.52769 63.3425 8.45298 63.3425 8.36162C63.3425 7.96796 59.4884 7.66282 53.8005 7.60618C50.5065 7.57329 47.6287 7.57796 47.4054 7.61653Z" fill="#282A2C"/>
<path fill-rule="evenodd" clip-rule="evenodd" d="M47.7099 8.65019C42.4857 9.24951 36.6877 10.7464 33.2753 12.3762C32.2192 12.8807 31.8712 13.1715 31.4968 13.8617L31.0313 14.7199L31.0989 25.7845C31.1458 33.4764 31.2367 37.0039 31.3969 37.3567C31.5238 37.6359 31.7839 38.5952 31.9749 39.4885C32.4837 41.8689 33.8216 44.9193 35.4921 47.5078C36.3979 48.9117 38.9245 51.8806 39.8976 52.6848C40.303 53.0198 40.7877 53.4378 40.9746 53.6138C41.3843 53.9994 43.3484 55.3184 44.8182 56.195C45.8817 56.8295 47.4153 57.5108 49.537 58.2918C50.1512 58.5178 50.8731 58.8106 51.1411 58.9421C51.7646 59.2483 54.1984 59.2527 54.8357 58.9492C55.1037 58.8213 55.7799 58.5578 56.3382 58.3635C57.2762 58.037 57.7287 57.8501 59.6881 56.9789C64.3293 54.9158 69.1095 50.3415 71.7075 45.4776C72.9344 43.1806 73.5851 41.4862 74.2556 38.842L74.8125 36.6462L74.8129 25.3785C74.8131 14.4355 74.8014 14.0944 74.4071 13.5424C73.4966 12.2674 67.2114 10.1063 61.2107 9.00467C59.6515 8.71841 49.4497 8.45062 47.7099 8.65019ZM55.4573 18.4362C57.2985 19.0436 58.6596 20.3318 59.682 22.4347C60.096 23.2866 60.1891 23.8335 60.2612 25.8353L60.3473 28.2208H61.7266C63.9663 28.2208 63.7485 27.2473 63.7485 37.2552C63.7485 45.0815 63.7134 46.0566 63.4273 46.1664C63.0079 46.3274 42.9689 46.3274 42.5495 46.1664C42.2634 46.0566 42.2283 45.0815 42.2283 37.2552C42.2283 27.2481 42.0111 28.2208 44.2467 28.2208H45.623L45.7263 25.8769C45.8228 23.6959 45.8808 23.4299 46.5652 22.0455C48.1876 18.7627 51.8907 17.2595 55.4573 18.4362ZM51.8115 18.9208C50.4845 19.1224 49.9112 19.4127 48.6563 20.5186C47.1146 21.877 46.6154 23.1481 46.5283 25.9368L46.4568 28.2208H52.9709H59.4851V26.0846C59.4851 24.1588 59.4274 23.824 58.9004 22.684C57.5706 19.8088 54.9882 18.438 51.8115 18.9208ZM43.1882 29.2899C43.0331 29.6943 43.0016 43.948 43.1541 44.7609L43.2893 45.4814L53.0621 45.4288L62.8349 45.3761V37.2552V29.1344L53.0617 29.0816C45.2486 29.0396 43.2682 29.0814 43.1882 29.2899ZM53.8352 36.4746C54.389 36.9757 54.3131 37.8866 53.6833 38.2994C52.559 39.0359 51.3092 37.7861 52.0458 36.6618C52.4473 36.0493 53.27 35.9632 53.8352 36.4746ZM52.5824 37.3567C52.5824 37.6274 52.7178 37.7628 52.9884 37.7628C53.259 37.7628 53.3944 37.6274 53.3944 37.3567C53.3944 37.0861 53.259 36.9507 52.9884 36.9507C52.7178 36.9507 52.5824 37.0861 52.5824 37.3567ZM1.10763 68.6737C1.05363 68.8142 1.03353 72.0347 1.06297 75.8306L1.11657 82.7319L53.1334 82.7831C104.628 82.8336 105.152 82.8302 105.363 82.4359C105.503 82.1748 105.558 79.7118 105.523 75.279L105.469 68.5204L53.3374 68.4693C11.5931 68.4283 1.186 68.4691 1.10763 68.6737Z" fill="#567CF3"/>
<path fill-rule="evenodd" clip-rule="evenodd" d="M47.7099 8.65019C42.4857 9.24951 36.6877 10.7464 33.2753 12.3762C32.2192 12.8807 31.8712 13.1715 31.4968 13.8617L31.0313 14.7199L31.0989 25.7845C31.1458 33.4764 31.2367 37.0039 31.3969 37.3567C31.5238 37.6359 31.7839 38.5952 31.9749 39.4885C32.4837 41.8689 33.8216 44.9193 35.4921 47.5078C36.3979 48.9117 38.9245 51.8806 39.8976 52.6848C40.303 53.0198 40.7877 53.4378 40.9746 53.6138C41.3843 53.9994 43.3484 55.3184 44.8182 56.195C45.8817 56.8295 47.4153 57.5108 49.537 58.2918C50.1512 58.5178 50.8731 58.8106 51.1411 58.9421C51.7646 59.2483 54.1984 59.2527 54.8357 58.9492C55.1037 58.8213 55.7799 58.5578 56.3382 58.3635C57.2762 58.037 57.7287 57.8501 59.6881 56.9789C64.3293 54.9158 69.1095 50.3415 71.7075 45.4776C72.9344 43.1806 73.5851 41.4862 74.2556 38.842L74.8125 36.6462L74.8129 25.3785C74.8131 14.4355 74.8014 14.0944 74.4071 13.5424C73.4966 12.2674 67.2114 10.1063 61.2107 9.00467C59.6515 8.71841 49.4497 8.45062 47.7099 8.65019ZM55.4573 18.4362C57.2985 19.0436 58.6596 20.3318 59.682 22.4347C60.096 23.2866 60.1891 23.8335 60.2612 25.8353L60.3473 28.2208H61.7266C63.9663 28.2208 63.7485 27.2473 63.7485 37.2552C63.7485 45.0815 63.7134 46.0566 63.4273 46.1664C63.0079 46.3274 42.9689 46.3274 42.5495 46.1664C42.2634 46.0566 42.2283 45.0815 42.2283 37.2552C42.2283 27.2481 42.0111 28.2208 44.2467 28.2208H45.623L45.7263 25.8769C45.8228 23.6959 45.8808 23.4299 46.5652 22.0455C48.1876 18.7627 51.8907 17.2595 55.4573 18.4362ZM51.8115 18.9208C50.4845 19.1224 49.9112 19.4127 48.6563 20.5186C47.1146 21.877 46.6154 23.1481 46.5283 25.9368L46.4568 28.2208H52.9709H59.4851V26.0846C59.4851 24.1588 59.4274 23.824 58.9004 22.684C57.5706 19.8088 54.9882 18.438 51.8115 18.9208ZM43.1882 29.2899C43.0331 29.6943 43.0016 43.948 43.1541 44.7609L43.2893 45.4814L53.0621 45.4288L62.8349 45.3761V37.2552V29.1344L53.0617 29.0816C45.2486 29.0396 43.2682 29.0814 43.1882 29.2899ZM53.8352 36.4746C54.389 36.9757 54.3131 37.8866 53.6833 38.2994C52.559 39.0359 51.3092 37.7861 52.0458 36.6618C52.4473 36.0493 53.27 35.9632 53.8352 36.4746ZM52.5824 37.3567C52.5824 37.6274 52.7178 37.7628 52.9884 37.7628C53.259 37.7628 53.3944 37.6274 53.3944 37.3567C53.3944 37.0861 53.259 36.9507 52.9884 36.9507C52.7178 36.9507 52.5824 37.0861 52.5824 37.3567ZM1.10763 68.6737C1.05363 68.8142 1.03353 72.0347 1.06297 75.8306L1.11657 82.7319L53.1334 82.7831C104.628 82.8336 105.152 82.8302 105.363 82.4359C105.503 82.1748 105.558 79.7118 105.523 75.279L105.469 68.5204L53.3374 68.4693C11.5931 68.4283 1.186 68.4691 1.10763 68.6737ZM105.165 75.6262V82.6304H53.1914H1.21808V75.6262V68.6219H53.1914H105.165V75.6262Z" fill="#45726D"/>
<path fill-rule="evenodd" clip-rule="evenodd" d="M48.0144 8.66095C40.6535 9.53617 32.8887 11.8951 31.6497 13.6325L31.1637 14.3139V25.074C31.1637 35.5892 31.1744 35.8844 31.6385 38.0429C32.1307 40.332 33.0987 43.073 34.1511 45.158C36.8298 50.4644 41.861 55.0997 47.5127 57.4684C51.9286 59.3191 53.2099 59.4669 56.0191 58.4498C61.3257 56.5282 65.4157 53.7568 68.7213 49.8429C71.3947 46.6776 73.1937 43.005 74.2646 38.5259L74.8111 36.2401L74.8121 25.2415C74.8134 12.5529 74.9875 13.5946 72.6725 12.4447C69.6471 10.9415 62.7756 9.13846 58.5429 8.73708C56.5092 8.54421 49.4268 8.49305 48.0144 8.66095ZM55.8396 18.5493C57.346 19.1577 58.2349 19.9069 59.1042 21.3006C60.1027 22.9018 60.1333 23.0168 60.272 25.683L60.3987 28.1193L62.0228 28.2208L63.647 28.3223V37.2552V46.1881H52.9884H42.3298V37.2552V28.3223L43.98 28.2638L45.6301 28.2052L45.7156 25.8117C45.7911 23.6881 45.8662 23.2843 46.3813 22.2319C48.2022 18.5099 52.0415 17.0151 55.8396 18.5493ZM50.1912 19.5004C47.6278 20.7813 46.3665 23.2592 46.5269 26.6981L46.5933 28.1193H52.9884H59.3836L59.4435 26.3936C59.5594 23.0484 58.3565 20.785 55.7775 19.4964C54.7291 18.9724 54.3178 18.8818 52.9884 18.8818C51.6568 18.8818 51.2483 18.9722 50.1912 19.5004ZM43.2434 37.2552V45.4776H52.9736H62.704L62.7712 37.509C62.8081 33.1262 62.8051 29.4263 62.7643 29.2867C62.7062 29.0881 60.5704 29.0329 52.9667 29.0329H43.2434V37.2552ZM53.6716 36.3564C54.2908 36.8435 54.3771 37.644 53.8705 38.2035C53.1669 38.9811 51.7672 38.4287 51.7733 37.376C51.777 36.7523 51.9325 36.4892 52.4809 36.1782C53.0268 35.8686 53.0574 35.8733 53.6716 36.3564ZM52.6729 37.1714C52.4957 37.458 52.8871 37.8495 53.1738 37.6722C53.4958 37.4733 53.4438 36.9507 53.1019 36.9507C52.9409 36.9507 52.748 37.05 52.6729 37.1714ZM105.244 71.2612C105.244 72.7686 105.276 73.3852 105.315 72.6316C105.354 71.878 105.354 70.6444 105.315 69.8908C105.276 69.1372 105.244 69.7538 105.244 71.2612ZM105.197 81.4123C105.197 81.6914 105.243 81.8057 105.299 81.666C105.356 81.5266 105.356 81.2982 105.299 81.1585C105.243 81.019 105.197 81.1331 105.197 81.4123Z" fill="#FFC746"/>
<path fill-rule="evenodd" clip-rule="evenodd" d="M48.9817 8.67355C49.2903 8.72005 49.7471 8.71883 49.9968 8.67071C50.2465 8.6226 49.9939 8.58443 49.4356 8.58585C48.8773 8.58747 48.6731 8.62686 48.9817 8.67355ZM56.1885 8.67132C56.4411 8.71984 56.8065 8.71802 57.0006 8.66726C57.1947 8.61651 56.988 8.57671 56.5414 8.57895C56.0947 8.58118 55.9359 8.6228 56.1885 8.67132ZM46.2888 8.8449C46.1213 8.88185 45.3159 9.01747 44.4992 9.14639C43.6822 9.27551 43.0526 9.41966 43.1 9.46696C43.184 9.55101 47.0053 8.99575 47.4054 8.84125C47.6496 8.74685 46.7204 8.74989 46.2888 8.8449ZM60.5003 9.13421C61.6727 9.35063 62.7211 9.50147 62.8301 9.4694C63.0993 9.38981 60.8637 8.97179 59.4852 8.84389C58.871 8.78704 59.3278 8.91759 60.5003 9.13421ZM42.1904 9.68155C42.3368 9.74023 42.512 9.73292 42.5794 9.66552C42.6468 9.59811 42.527 9.5502 42.313 9.55893C42.0765 9.56867 42.0284 9.61679 42.1904 9.68155ZM40.3632 10.0876C40.5096 10.1463 40.6848 10.139 40.7522 10.0716C40.8196 10.0042 40.6998 9.95624 40.4859 9.96497C40.2493 9.97472 40.2012 10.0228 40.3632 10.0876ZM38.5017 10.4831C37.9597 10.6496 37.5524 10.8221 37.5969 10.8666C37.6413 10.911 38.222 10.7769 38.8871 10.5681C39.5524 10.3596 39.9596 10.1871 39.7921 10.1846C39.6246 10.1822 39.044 10.3164 38.5017 10.4831ZM66.2864 10.3237C66.9141 10.5925 67.9666 10.8002 67.606 10.5842C67.4385 10.4837 66.9817 10.345 66.5909 10.2758C66.1115 10.1909 66.0125 10.2066 66.2864 10.3237ZM69.6362 11.2749C69.6362 11.3812 70.7843 11.8736 71.481 12.0662C71.8877 12.1785 71.9114 12.1641 71.6209 11.9816C71.1792 11.7043 69.6362 11.1547 69.6362 11.2749ZM34.8181 11.7796C34.3652 12.0021 34.2306 12.1233 34.5136 12.0536C35.1066 11.9075 36.1304 11.3875 35.8332 11.3835C35.7216 11.3821 35.2648 11.5603 34.8181 11.7796ZM32.1395 13.1106L31.5698 13.6329L32.2296 13.1739C32.5924 12.9214 32.8894 12.6865 32.8894 12.6515C32.8894 12.4914 32.6649 12.6288 32.1395 13.1106ZM73.6268 13.1242C73.979 13.4435 74.3646 13.8875 74.4833 14.1109C74.6021 14.3342 74.7022 14.415 74.7056 14.2905C74.7148 13.9553 73.9333 13.0249 73.427 12.7677C73.134 12.6189 73.2008 12.7384 73.6268 13.1242ZM31.2602 14.3271C31.139 14.646 31.0801 18.7174 31.1085 24.8334L31.1546 34.819L31.2608 24.5664C31.3191 18.9275 31.4407 14.1998 31.531 14.0601C31.6214 13.9206 31.6419 13.8063 31.5767 13.8063C31.5115 13.8063 31.3692 14.0406 31.2602 14.3271ZM74.8059 24.7695C74.8059 30.4084 74.8319 32.7153 74.8638 29.8957C74.8957 27.0764 74.8957 22.4627 74.8638 19.6432C74.8319 16.8238 74.8059 19.1306 74.8059 24.7695ZM50.6537 18.164C49.8717 18.5221 50.0071 18.5247 51.2628 18.1759C51.8776 18.0052 52.0777 17.8923 51.7704 17.8897C51.4912 17.887 50.9887 18.0105 50.6537 18.164ZM54.1051 18.0038C54.3284 18.0531 54.9188 18.2263 55.4168 18.3885C55.915 18.5507 56.2348 18.6035 56.1274 18.5059C55.8352 18.2399 54.611 17.8635 54.1256 17.8903C53.7183 17.9128 53.7173 17.9179 54.1051 18.0038ZM47.9519 19.8255L46.9994 20.7691L48.0145 19.8923C48.5728 19.4101 49.0678 18.9856 49.1142 18.9488C49.1607 18.9119 49.1325 18.8819 49.0515 18.8819C48.9707 18.8819 48.4757 19.3066 47.9519 19.8255ZM51.5294 19.0205C51.6758 19.0792 51.851 19.0719 51.9184 19.0045C51.9858 18.9371 51.866 18.8892 51.652 18.8979C51.4155 18.9076 51.3674 18.9557 51.5294 19.0205ZM54.1686 19.0205C54.315 19.0792 54.4902 19.0719 54.5576 19.0045C54.625 18.9371 54.5053 18.8892 54.2913 18.8979C54.0548 18.9076 54.0066 18.9557 54.1686 19.0205ZM50.3492 19.3894C50.0701 19.549 49.933 19.6795 50.0447 19.6795C50.1563 19.6795 50.4761 19.549 50.7553 19.3894C51.0344 19.2298 51.1715 19.0993 51.0598 19.0993C50.9481 19.0993 50.6284 19.2298 50.3492 19.3894ZM55.2217 19.3894C55.5009 19.549 55.8206 19.6795 55.9323 19.6795C56.044 19.6795 55.9069 19.549 55.6278 19.3894C55.3486 19.2298 55.0288 19.0993 54.9172 19.0993C54.8055 19.0993 54.9426 19.2298 55.2217 19.3894ZM57.658 19.5924C57.9203 19.8716 58.1805 20.1 58.2364 20.1C58.2922 20.1 58.1233 19.8716 57.861 19.5924C57.5987 19.3133 57.3384 19.0849 57.2826 19.0849C57.2267 19.0849 57.3957 19.3133 57.658 19.5924ZM48.4077 20.7598L47.8115 21.4196L48.4713 20.8233C49.0862 20.2675 49.2245 20.1 49.0675 20.1C49.0326 20.1 48.7356 20.397 48.4077 20.7598ZM57.475 20.8014C57.7652 21.1415 58.1535 21.6456 58.3379 21.9217C58.5222 22.1976 58.6731 22.3066 58.6731 22.1635C58.6731 22.0206 58.2847 21.5165 57.8102 21.0434C57.3358 20.5704 57.1847 20.4616 57.475 20.8014ZM59.0949 21.2812C59.4545 21.8598 59.7866 22.3332 59.8329 22.3332C59.9789 22.3332 59.0044 20.6969 58.7161 20.4575C58.5647 20.3318 58.7352 20.7025 59.0949 21.2812ZM46.4896 21.5719C46.1625 22.1083 45.9027 22.8377 46.152 22.5194C46.4543 22.1334 47.1086 20.9121 47.013 20.9121C46.9464 20.9121 46.7109 21.2091 46.4896 21.5719ZM59.2423 25.7338L59.3343 28.0178H52.9879H46.6417L46.7354 25.8353C46.7978 24.3823 46.77 23.8768 46.6522 24.3226C46.5548 24.6909 46.5018 25.6958 46.5343 26.5558L46.5933 28.1193H52.9885H59.3836L59.4425 26.4531C59.4748 25.5367 59.4224 24.486 59.3258 24.1184C59.2107 23.68 59.182 24.2363 59.2423 25.7338ZM60.3874 26.2921L60.3987 28.1193L62.055 28.2208C62.9657 28.2766 63.6684 28.2537 63.6162 28.1701C63.5642 28.0864 62.8451 28.0178 62.0187 28.0178H60.5155L60.4456 26.2414L60.376 24.4649L60.3874 26.2921ZM42.3608 28.1701C42.3086 28.2537 42.8285 28.2967 43.5161 28.2655C45.6178 28.1701 45.8667 28.0801 44.1183 28.0482C43.2037 28.0314 42.4127 28.0864 42.3608 28.1701ZM63.7474 37.3568L63.6471 46.1882H52.957C47.0775 46.1882 42.3094 46.2568 42.3612 46.3404C42.4129 46.4241 47.1894 46.4927 52.9757 46.4927C61.6189 46.4927 63.5368 46.4432 63.7259 46.2154C63.8913 46.0162 63.9409 43.4922 63.9019 37.2317L63.8479 28.5253L63.7474 37.3568ZM48.0652 29.185C50.7731 29.217 55.2041 29.217 57.9117 29.185C60.6194 29.1531 58.4041 29.1269 52.9885 29.1269C47.5729 29.1269 45.3573 29.1531 48.0652 29.185ZM62.7847 30.1495C62.7869 30.5962 62.8285 30.7549 62.877 30.5024C62.9255 30.2498 62.9237 29.8844 62.873 29.6903C62.8222 29.4962 62.7824 29.7029 62.7847 30.1495ZM31.3205 35.7326C31.3205 36.2351 31.3601 36.4407 31.4086 36.1894C31.4569 35.938 31.4569 35.5271 31.4086 35.2758C31.3601 35.0244 31.3205 35.2301 31.3205 35.7326ZM74.5599 36.0371C74.5621 36.4838 74.6037 36.6425 74.6522 36.39C74.7008 36.1374 74.6989 35.772 74.6482 35.5779C74.5974 35.3838 74.5576 35.5905 74.5599 36.0371ZM51.9734 36.3416C51.1286 37.1864 51.8104 38.7779 53.0169 38.7779C53.6558 38.7779 54.4096 37.9985 54.4096 37.3381C54.4096 36.7128 53.8818 35.9356 53.4571 35.9356C53.2343 35.9356 53.2997 36.0637 53.6716 36.3565C54.6466 37.1233 54.1766 38.5749 52.9532 38.5749C52.3228 38.5749 51.7694 37.9959 51.7734 37.3407C51.7773 36.752 51.9395 36.4852 52.4809 36.1782C52.7043 36.0515 52.7729 35.9451 52.6332 35.9417C52.4937 35.9384 52.1967 36.1183 51.9734 36.3416ZM31.5004 37.1537C31.5004 37.4329 31.5464 37.5472 31.6027 37.4075C31.6591 37.268 31.6591 37.0396 31.6027 36.9C31.5464 36.7605 31.5004 36.8746 31.5004 37.1537ZM52.673 37.1714C52.4958 37.4581 52.8872 37.8495 53.1738 37.6722C53.2953 37.5971 53.384 37.3813 53.371 37.1925C53.3497 36.8829 53.3383 36.8841 53.2546 37.2045C53.2035 37.4 53.0673 37.5598 52.9519 37.5598C52.8364 37.5598 52.7946 37.4227 52.859 37.2552C52.9944 36.9024 52.8732 36.8478 52.673 37.1714ZM74.3377 37.3568C74.3377 37.6359 74.3838 37.7502 74.4401 37.6105C74.4965 37.4711 74.4965 37.2427 74.4401 37.103C74.3838 36.9635 74.3377 37.0776 74.3377 37.3568ZM74.1187 38.4902C74.1284 38.7267 74.1766 38.7749 74.2413 38.613C74.3 38.4665 74.2927 38.2913 74.2253 38.2239C74.1579 38.1564 74.11 38.2762 74.1187 38.4902ZM32.1019 39.996C32.0985 40.1635 32.2211 40.5746 32.3746 40.9096C32.7335 41.6937 32.7388 41.3291 32.3819 40.4021C32.2314 40.0112 32.1054 39.8285 32.1019 39.996ZM73.5113 40.6262C73.374 41.0844 73.2167 41.6098 73.1617 41.7936C73.1066 41.9773 73.1937 41.8993 73.3551 41.6202C73.6511 41.1082 74.0048 39.793 73.8464 39.793C73.7993 39.793 73.6485 40.168 73.5113 40.6262ZM33.7425 44.3565C33.9853 44.8565 34.219 45.2309 34.2614 45.1883C34.3534 45.0965 33.533 43.4474 33.3956 43.4474C33.3434 43.4474 33.4995 43.8565 33.7425 44.3565ZM72.395 43.6212C72.1358 44.0408 71.8875 44.8813 72.0532 44.779C72.1535 44.7171 72.3311 44.392 72.448 44.0568C72.6509 43.4748 72.6236 43.2513 72.395 43.6212ZM48.0652 45.4266C50.7731 45.4587 55.2041 45.4587 57.9117 45.4266C60.6194 45.3948 58.4041 45.3686 52.9885 45.3686C47.5729 45.3686 45.3573 45.3948 48.0652 45.4266ZM34.6815 46.2143C34.7962 46.4233 35.038 46.7769 35.2191 47.0002C35.5246 47.377 35.5259 47.3598 35.2355 46.7593C35.0634 46.4036 34.8214 46.0499 34.6977 45.9736C34.5369 45.8741 34.5323 45.9425 34.6815 46.2143ZM70.874 46.6064C70.6395 47.0039 70.5398 47.2723 70.6523 47.2027C70.8724 47.0666 71.5314 45.8836 71.387 45.8836C71.3395 45.8836 71.1085 46.2089 70.874 46.6064ZM35.711 47.8123C35.831 48.0356 36.167 48.4924 36.4575 48.8274C36.7482 49.1624 36.8877 49.2538 36.7675 49.0304C36.6475 48.8071 36.3115 48.3503 36.021 48.0153C35.7303 47.6804 35.5908 47.589 35.711 47.8123ZM69.8108 48.2691C69.2267 48.9742 68.9794 49.335 69.0797 49.335C69.136 49.335 69.4259 49.0152 69.7239 48.6244C70.2771 47.8992 70.3441 47.6253 69.8108 48.2691ZM37.5589 50.2486C37.8212 50.5277 38.0815 50.7561 38.1373 50.7561C38.1931 50.7561 38.0242 50.5277 37.7619 50.2486C37.4996 49.9694 37.2393 49.741 37.1835 49.741C37.1277 49.741 37.2966 49.9694 37.5589 50.2486ZM68.1996 50.2993L67.7075 50.8576L68.2658 50.3655C68.5728 50.0947 68.8241 49.8435 68.8241 49.8072C68.8241 49.6478 68.6597 49.7776 68.1996 50.2993ZM38.4828 51.2174C38.5373 51.3593 38.7856 51.5997 39.0347 51.7515C39.4667 52.0149 39.4649 52.0029 38.9955 51.4933C38.4459 50.8968 38.3375 50.8386 38.4828 51.2174ZM66.9815 51.4933C66.5121 52.0029 66.5103 52.0149 66.9423 51.7515C67.1914 51.5997 67.4397 51.3593 67.4941 51.2174C67.6395 50.8386 67.5311 50.8968 66.9815 51.4933ZM40.1982 52.8878C40.4605 53.167 40.7207 53.3954 40.7766 53.3954C40.8324 53.3954 40.6635 53.167 40.4012 52.8878C40.1389 52.6087 39.8786 52.3803 39.8228 52.3803C39.767 52.3803 39.9359 52.6087 40.1982 52.8878ZM65.4615 53.0401L64.8652 53.6999L65.525 53.1037C66.14 52.5478 66.2782 52.3803 66.1213 52.3803C66.0864 52.3803 65.7894 52.6771 65.4615 53.0401ZM41.3534 53.8126C41.598 54.0857 42.1005 54.4818 42.47 54.6931C43.2695 55.1501 43.0675 54.9343 41.8223 54.001C41.1497 53.4969 41.0261 53.4472 41.3534 53.8126ZM63.2516 54.6316C61.8266 55.6516 61.3635 56.0345 61.9214 55.7314C62.4608 55.4382 64.7637 53.784 64.7637 53.6896C64.7637 53.5501 64.756 53.555 63.2516 54.6316ZM43.3314 55.2005C43.4761 55.4347 44.2586 55.9076 44.2586 55.7606C44.2586 55.7137 44.019 55.5184 43.7261 55.3263C43.4331 55.1345 43.2555 55.0778 43.3314 55.2005ZM44.8677 56.1293C44.8677 56.1851 45.3245 56.4622 45.8828 56.7452C46.4411 57.0283 46.8979 57.214 46.8979 57.1582C46.8979 57.1024 46.4411 56.8252 45.8828 56.5422C45.3245 56.2592 44.8677 56.0734 44.8677 56.1293ZM60.4495 56.3538C59.6906 56.7655 59.7367 56.9371 60.5003 56.5422C60.8352 56.369 61.1093 56.1839 61.1093 56.1309C61.1093 56.0004 61.0876 56.0077 60.4495 56.3538ZM59.0791 57.0498C58.9116 57.158 58.8659 57.2465 58.9776 57.2465C59.0893 57.2465 59.3177 57.158 59.4852 57.0498C59.6526 56.9416 59.6983 56.853 59.5867 56.853C59.475 56.853 59.2466 56.9416 59.0791 57.0498ZM57.658 57.6588C57.4905 57.767 57.4448 57.8556 57.5565 57.8556C57.6681 57.8556 57.8965 57.767 58.064 57.6588C58.2315 57.5506 58.2772 57.4621 58.1655 57.4621C58.0539 57.4621 57.8255 57.5506 57.658 57.6588ZM48.3464 57.7538C48.5295 57.937 49.9432 58.4752 49.9432 58.3617C49.9432 58.2988 49.6263 58.1148 49.2391 57.953C48.5324 57.6576 48.1692 57.5766 48.3464 57.7538ZM56.5414 58.0649C56.3826 58.3219 56.6514 58.3219 57.0489 58.0649C57.3114 57.8954 57.3059 57.8677 57.0101 57.8649C56.8213 57.8633 56.6104 57.9532 56.5414 58.0649ZM53.09 58.877L51.4658 59.0055L52.9885 59.0396C53.8259 59.0585 54.6482 58.9852 54.8157 58.877C54.9832 58.7688 55.0288 58.6955 54.9172 58.7143C54.8055 58.733 53.9833 58.8063 53.09 58.877ZM105.244 71.2612C105.244 72.7687 105.276 73.3852 105.315 72.6316C105.354 71.878 105.354 70.6445 105.315 69.8908C105.276 69.1372 105.244 69.7538 105.244 71.2612ZM105.197 81.4123C105.197 81.6914 105.243 81.8057 105.299 81.6661C105.356 81.5266 105.356 81.2982 105.299 81.1585C105.243 81.019 105.197 81.1331 105.197 81.4123Z" fill="#A1833E"/>
</svg>
