<svg width="175" height="175" viewBox="0 0 175 175" fill="none" xmlns="http://www.w3.org/2000/svg">
<path d="M87.5 0L87.5169 87.4139L120.985 6.66051L87.5487 87.4273L149.372 25.6282L87.5727 87.4513L168.339 54.015L87.5861 87.4831L175 87.5L87.5861 87.5169L168.339 120.985L87.5727 87.5487L149.372 149.372L87.5487 87.5727L120.985 168.339L87.5169 87.5861L87.5 175L87.4831 87.5861L54.015 168.339L87.4513 87.5727L25.6282 149.372L87.4273 87.5487L6.66051 120.985L87.4139 87.5169L0 87.5L87.4139 87.4831L6.66051 54.015L87.4273 87.4513L25.6282 25.6282L87.4513 87.4273L54.015 6.66051L87.4831 87.4139L87.5 0Z" fill="#F0C3D2" stroke="#222831" stroke-width="4"/>
</svg>
