<svg xmlns="http://www.w3.org/2000/svg" viewBox="0 0 279 261" width="279" height="261" fill="none">

	<g fill-rule="evenodd" clip-path="url(#a)" clip-rule="evenodd">

		<path fill="#F9743F" d="M142.22 79.906c-27.243 11.302-49.547 18.935-65.668 37.007 5.887 2.522 13.986 4.151 24.635 5.694 10.535 44.142 41.571 86.915-32.19 86.675 3.54 23.636 3.639 43.296-21.59 48.304 36.26 8.885 88.751-6.257 119.052-38.094-2.837-5.503-10.87-7.943-23.701-9.97-10.09-44.276 16.457-75.997 47.639-86.914a405.452 405.452 0 0 0-.809-9.664l-15.272-10.65c.143 7.513-.291 14.245-1.21 20.314h-56.503c6.367-11.599 17.775-23.056 38.2-33.925l-12.583-8.777Z"></path>

		<path fill="#2D3639" d="M24.759 122.607C15.84 154.247 7.894 181.089.005 209.189l246.95.555c16.958 0 27.928-8.273 29.635-27.417 1.858-20.897-18.758-26.001-32.612-16.92-.59.386-1.159.792-1.703 1.215-1.747-2.559-4.549-4.106-7.503-4.876-2.022-.53-4.391-.794-7.103-.794-.718 0-1.423.017-2.112.049l4.275-15.217h10.259l2.116-7.531 2.259-8.039 2.138-7.608H24.771l-.012.001Z"></path>

		<path fill="#fff" d="M21.07 162.719H31.17l3.71-13.207h.887c.916 0 1.673.25 2.25.749.43.389.8 1.228 1.124 2.51l2.576 9.948h11.367l-2.213-9.433c-.102-.479-.383-1.145-.842-2.024-.46-.871-.838-1.44-1.126-1.705-.441-.402-1.2-.803-2.285-1.205 1.587-.332 2.882-.766 3.89-1.28a13.79 13.79 0 0 0 4.072-3.19c1.134-1.311 1.957-2.864 2.465-4.676.581-2.068.576-3.827-.028-5.267-.602-1.446-1.65-2.431-3.145-2.963-1.487-.538-3.792-.802-6.9-.802H30.213l-9.142 32.545ZM58.819 146.467c-1.07 3.805-1.208 6.972-.426 9.504.79 2.53 2.217 4.379 4.29 5.554 2.08 1.167 4.956 1.751 8.623 1.751 3.615 0 6.813-.675 9.62-2.032a20.644 20.644 0 0 0 7.142-5.682c1.965-2.434 3.486-5.555 4.554-9.359 1.47-5.237 1.146-9.313-.964-12.215-2.115-2.91-5.882-4.365-11.3-4.365-5.281 0-9.82 1.476-13.615 4.442-3.784 2.954-6.432 7.092-7.925 12.402ZM18.852 169.082l-9.143 32.546h17.36c.742 0 2.285-.152 4.636-.447 1.765-.219 3.138-.576 4.115-1.061a13.06 13.06 0 0 0 4.12-3.198 11.79 11.79 0 0 0 2.453-4.555c.581-2.068.512-3.787-.202-5.16-.724-1.363-2.17-2.333-4.347-2.893 1.687-.533 3.059-1.26 4.12-2.174 1.585-1.38 2.647-3.034 3.187-4.957.643-2.289.343-4.215-.903-5.768-1.239-1.553-3.428-2.333-6.566-2.333h-18.83M237.094 190.85c-.643 3.289-.198 5.994 1.341 8.124 1.527 2.138 5.066 3.199 10.596 3.199 3.154 0 5.895-.455 8.22-1.366 2.332-.909 4.319-2.243 5.968-4.008 1.646-1.757 2.769-3.683 3.356-5.765.5-1.782.511-3.388.048-4.82-.457-1.441-1.508-2.638-3.139-3.609-1.629-.969-4.502-1.932-8.632-2.878-1.675-.372-2.687-.766-3.044-1.198-.366-.416-.479-.88-.335-1.393.201-.712.665-1.319 1.395-1.813.732-.499 1.679-.741 2.854-.741 1.417 0 2.436.333 3.053.991.626.667.856 1.736.694 3.2l9.637-.555c.531-3.373-.074-5.834-1.823-7.38-1.747-1.547-4.707-2.319-8.865-2.319-3.388 0-6.174.424-8.361 1.274-2.186.854-3.969 2.022-5.356 3.508-1.388 1.484-2.319 3.069-2.789 4.744-.714 2.545-.355 4.637 1.078 6.281 1.417 1.644 4.194 2.956 8.325 3.948 2.531.59 4.068 1.22 4.623 1.887.556.667.705 1.425.47 2.264-.25.888-.856 1.669-1.819 2.344-.969.674-2.171 1.008-3.601 1.008-1.924 0-3.228-.652-3.887-1.972-.407-.818-.498-2-.267-3.553l-9.74.598ZM206.326 130.177l-2.259 8.04h10.252l-6.881 24.507h10.054l6.885-24.507h10.26l2.259-8.04h-30.57ZM175.76 130.178l-9.143 32.545h27.44l2.07-7.373h-17.36l1.802-6.41h15.648l1.864-6.64h-15.648l1.453-5.175h16.869l1.952-6.948-26.947.001ZM137.942 130.178l-9.142 32.545h10.055l2.234-7.948 6.726-5.441 3.097 13.389h12.389l-6.695-20.27 15.309-12.276h-13.367l-14.003 12.299 3.454-12.299-10.057.001ZM118.798 149.427c-1.026 2.061-2.178 3.63-3.465 4.706-1.29 1.083-2.896 1.621-4.821 1.621-1.978 0-3.329-.666-4.05-2.008-.714-1.34-.574-3.812.442-7.425.818-2.917 1.883-5.055 3.183-6.419 1.727-1.833 3.734-2.751 6.006-2.751 1.008 0 1.861.205 2.562.621a3.865 3.865 0 0 1 1.562 1.773c.213.464.334 1.19.366 2.183l9.437-1.978c-.173-3.433-1.201-5.98-3.083-7.638-1.884-1.659-4.872-2.486-8.972-2.486-5.235 0-9.696 1.448-13.374 4.342-3.675 2.887-6.272 7.032-7.785 12.42-1.136 4.038-1.247 7.351-.353 9.942.9 2.591 2.332 4.404 4.287 5.432 1.948 1.025 4.697 1.54 8.235 1.54 2.909 0 5.431-.418 7.554-1.265 2.125-.842 4.06-2.092 5.799-3.752 1.738-1.66 3.249-3.72 4.535-6.19l-8.065-2.668ZM204.267 190.85c-.644 3.289-.2 5.994 1.339 8.124 1.53 2.138 5.067 3.199 10.597 3.199 3.152 0 5.895-.455 8.218-1.366 2.332-.909 4.321-2.243 5.97-4.008 1.645-1.757 2.769-3.683 3.356-5.765.499-1.782.511-3.388.048-4.82-.457-1.441-1.508-2.638-3.139-3.609-1.63-.969-4.504-1.932-8.632-2.878-1.677-.372-2.687-.766-3.044-1.198-.367-.416-.48-.88-.335-1.393.201-.712.665-1.319 1.395-1.813.732-.499 1.679-.741 2.853-.741 1.417 0 2.437.333 3.056.991.623.667.854 1.736.693 3.2l9.634-.555c.531-3.373-.073-5.834-1.82-7.38-1.749-1.547-4.708-2.319-8.867-2.319-3.387 0-6.175.424-8.36 1.274-2.188.854-3.971 2.022-5.358 3.508-1.388 1.484-2.317 3.069-2.787 4.744-.716 2.545-.357 4.637 1.076 6.281 1.419 1.644 4.194 2.956 8.327 3.948 2.531.59 4.066 1.22 4.623 1.887.554.667.705 1.425.468 2.264-.248.888-.854 1.669-1.817 2.344-.969.674-2.169 1.008-3.602 1.008-1.925 0-3.226-.652-3.888-1.972-.405-.818-.496-2-.265-3.553l-9.739.598ZM179.285 169.082l-9.144 32.546h27.438l2.072-7.374h-17.36l1.801-6.409h15.649l1.864-6.638h-15.648l1.451-5.177h16.869l1.954-6.948h-26.946ZM141.494 169.082l-9.142 32.546h9.456l5.02-17.867L154 201.628h9.48l9.142-32.546h-9.479l-5.058 18.005-7.195-18.005h-9.396ZM124.128 169.082l-9.142 32.546h10.079l9.142-32.546h-10.079ZM83.024 190.85c-.643 3.289-.2 5.994 1.34 8.124 1.53 2.138 5.065 3.199 10.598 3.199 3.153 0 5.894-.455 8.218-1.366 2.332-.909 4.321-2.243 5.969-4.008 1.645-1.757 2.77-3.683 3.354-5.765.5-1.782.513-3.388.051-4.82-.46-1.441-1.509-2.638-3.139-3.609-1.63-.969-4.504-1.932-8.633-2.878-1.677-.372-2.688-.766-3.043-1.198-.368-.416-.482-.88-.336-1.393.2-.712.666-1.319 1.396-1.813.73-.499 1.679-.741 2.852-.741 1.418 0 2.438.333 3.055.991.623.667.856 1.736.694 3.2l9.635-.555c.531-3.373-.074-5.834-1.823-7.38-1.746-1.547-4.704-2.319-8.864-2.319-3.387 0-6.174.424-8.36 1.274-2.19.854-3.973 2.022-5.358 3.508-1.387 1.484-2.317 3.069-2.788 4.744-.716 2.545-.355 4.637 1.076 6.281 1.418 1.644 4.195 2.956 8.326 3.948 2.533.59 4.068 1.22 4.624 1.887.554.667.705 1.425.469 2.264-.248.888-.856 1.669-1.817 2.344-.97.674-2.172 1.008-3.602 1.008-1.925 0-3.228-.652-3.887-1.972-.407-.818-.5-2-.268-3.553l-9.739.598ZM74.2 169.082l-5.582 19.868c-.507 1.803-1.394 3.206-2.646 4.181-1.261.987-2.765 1.48-4.491 1.48-1.75 0-2.974-.501-3.678-1.502-.7-.992-.803-2.38-.302-4.159l5.58-19.868h-10.04l-5.45 19.406c-.45 1.599-.654 3.432-.614 5.502.024 1.287.385 2.537 1.09 3.75.707 1.212 1.595 2.152 2.666 2.812 1.072.658 2.51 1.099 4.32 1.318a40.73 40.73 0 0 0 5.09.334c2.745 0 5.187-.364 7.344-1.083 1.557-.524 3.15-1.419 4.788-2.699a17.574 17.574 0 0 0 4.081-4.487 20.655 20.655 0 0 0 2.432-5.447l5.45-19.406H74.2Z"></path>

		<path fill="#fff" stroke="#2D3639" stroke-width="6.054" d="m192.105 103.185-40.738-28.573 37.931-28.161-15.488-10.777 53.916-15.41-3.41 52.907-14.794-11.704-17.417 41.718Z"></path>

		<path fill="#2D3639" d="m36.61 143.36 1.858-6.616h4.417c1.834 0 3.007.28 3.512.849.51.561.618 1.365.323 2.418-.2.711-.59 1.341-1.16 1.887-.577.545-1.22.886-1.925 1.022-1.4.296-2.327.44-2.782.44H36.61ZM68.868 146.508c.93-3.312 2.212-5.691 3.842-7.123 1.633-1.441 3.462-2.153 5.485-2.153 2.122 0 3.599.704 4.438 2.115.836 1.417.83 3.653-.032 6.722-1.022 3.637-2.33 6.16-3.908 7.57-1.575 1.401-3.448 2.105-5.607 2.105-2.1 0-3.564-.719-4.382-2.151-.815-1.44-.76-3.799.165-7.085ZM21.82 194.63l1.852-6.592h5.108c1.766 0 2.91.297 3.45.879.543.583.673 1.356.404 2.32a4.367 4.367 0 0 1-1.764 2.477c-.878.614-2.183.916-3.918.916h-5.131ZM25.411 181.85l1.735-6.176h4.441c1.524 0 2.517.267 2.988.803.463.532.559 1.274.293 2.222-.286 1.015-.808 1.795-1.576 2.34-.771.539-1.94.811-3.508.811H25.41Z"></path>

	</g>

	<defs><clipPath id="a"><path fill="#fff" d="M0 0h278.046v260.099H0z"></path></clipPath></defs>
</svg>