<svg width="107" height="94" fill="none" xmlns="http://www.w3.org/2000/svg"><path fill-rule="evenodd" clip-rule="evenodd" d="M.198.521C.072.854 0 15.9 0 42.116c0 37.957.025 41.095.336 41.352.28.233 4.648.288 26.291.332l25.955.053v8.928H36.87c-14.14 0-15.725.032-15.836.322-.364.95-2.262.897 32.157.897 25.693 0 32.28-.052 32.274-.254-.003-.14-.127-.414-.276-.61-.253-.332-1.244-.355-15.727-.355H54.003v-8.933h25.86c21.514 0 25.899-.046 26.09-.275.167-.202.214-11.294.177-41.873L106.078.102l-52.84-.05L.395 0 .198.521zM105.165 34.21V67.2H1.421V1.22h103.744v32.99zM47.405 7.617c-.223.038-1.388.181-2.588.317-1.2.136-2.183.325-2.183.42 0 .096-.188.174-.418.174-.662 0-4.93 1.003-5.053 1.188-.061.092-.842.364-1.735.604-.893.24-1.652.523-1.687.627-.035.104-.557.345-1.16.535-.937.294-1.206.5-1.827 1.403l-.728 1.057.061 11.944c.048 9.331.117 11.963.315 12.029.14.046.254.288.254.537 0 .605.824 3.852 1.01 3.98.082.056.352.718.6 1.472.25.754.518 1.37.598 1.37.079 0 .396.549.703 1.219.308.67.637 1.218.733 1.218.096 0 .267.251.38.558.113.307.438.832.722 1.167 1.604 1.892 2.789 3.156 3.781 4.033 2.405 2.127 2.7 2.362 2.96 2.362.147 0 .341.122.43.271.09.15.62.492 1.178.762.558.27 1.06.545 1.117.613.162.198 2.053.994 2.36.994.153 0 .279.083.279.184 0 .101.525.344 1.167.539.642.195 1.576.535 2.075.755.761.335 1.214.384 2.813.3 1.06-.056 1.968-.199 2.045-.323.076-.123.774-.42 1.551-.66.777-.239 1.46-.498 1.515-.575.056-.077.604-.352 1.218-.612s1.162-.53 1.218-.6c.056-.071.581-.35 1.168-.618.586-.27 1.066-.564 1.066-.654 0-.09.37-.353.822-.584.452-.23.872-.552.935-.714.062-.163.223-.296.356-.296.134 0 .558-.327.943-.727.385-.4.95-.86 1.258-1.02.307-.162.558-.42.558-.575 0-.154.253-.494.561-.756.309-.26.778-.78 1.043-1.153.265-.374.697-.913.961-1.198.264-.284.48-.644.48-.799a.45.45 0 01.272-.385c.15-.058.535-.694.857-1.415.321-.72.648-1.31.726-1.31.079 0 .346-.617.595-1.37.25-.755.518-1.417.596-1.473.194-.137.532-1.264.82-2.74.131-.67.312-1.31.401-1.422.375-.467.606-5.962.605-14.374-.001-9.019-.082-10.202-.742-10.862a5.616 5.616 0 01-.587-.737c-.158-.241-.768-.61-1.356-.818-.589-.21-1.123-.459-1.187-.555-.065-.096-.841-.37-1.726-.608s-1.659-.508-1.72-.6c-.124-.185-4.39-1.188-5.053-1.188-.23 0-.419-.075-.419-.166 0-.394-3.854-.7-9.541-.756-3.294-.033-6.172-.028-6.396.01z" fill="#282A2C"/><path fill-rule="evenodd" clip-rule="evenodd" d="M47.71 8.65c-5.224.6-11.022 2.096-14.435 3.726-1.056.505-1.404.796-1.778 1.486l-.466.858.068 11.065c.047 7.691.138 11.219.298 11.572.127.279.387 1.238.578 2.132.509 2.38 1.847 5.43 3.517 8.019.906 1.404 3.433 4.373 4.406 5.177.405.335.89.753 1.077.929.41.385 2.373 1.704 3.843 2.581 1.064.635 2.597 1.316 4.719 2.097.614.226 1.336.519 1.604.65.624.306 3.057.31 3.695.007a19.53 19.53 0 011.502-.585c.938-.327 1.39-.514 3.35-1.385 4.641-2.063 9.421-6.637 12.02-11.501 1.226-2.297 1.877-3.992 2.548-6.636l.556-2.196V25.378c.001-10.943-.01-11.284-.405-11.836-.91-1.275-7.196-3.436-13.196-4.537-1.56-.287-11.761-.554-13.501-.355zm7.747 9.786c1.841.608 3.203 1.896 4.225 3.999.414.852.507 1.399.58 3.4l.085 2.386h1.38c2.24 0 2.022-.974 2.022 9.034 0 7.826-.036 8.802-.322 8.911-.42.161-20.458.161-20.877 0-.287-.11-.322-1.084-.322-8.91 0-10.008-.217-9.035 2.019-9.035h1.376l.103-2.344c.097-2.181.155-2.447.84-3.831 1.622-3.283 5.325-4.787 8.891-3.61zm-3.645.485c-1.328.201-1.9.492-3.156 1.598-1.541 1.358-2.04 2.63-2.128 5.418l-.071 2.284h13.028v-2.136c0-1.926-.058-2.261-.585-3.401-1.33-2.875-3.912-4.246-7.088-3.763zM43.188 29.29c-.155.404-.186 14.658-.034 15.47l.135.721 9.773-.052 9.773-.053V29.134l-9.773-.052c-7.813-.042-9.794 0-9.874.208zm10.647 7.185c.554.5.478 1.412-.152 1.824a1.173 1.173 0 01-1.637-1.637c.401-.613 1.224-.699 1.79-.187zm-1.253.882c0 .27.136.406.406.406.271 0 .406-.136.406-.406s-.135-.406-.406-.406c-.27 0-.406.135-.406.406zM1.108 68.674c-.054.14-.074 3.36-.045 7.157l.054 6.9 52.016.052c51.495.05 52.019.047 52.23-.347.14-.261.195-2.724.16-7.157l-.054-6.759-52.132-.05c-41.744-.042-52.151 0-52.23.204z" fill="#567CF3"/><path fill-rule="evenodd" clip-rule="evenodd" d="M47.71 8.65c-5.224.6-11.022 2.096-14.435 3.726-1.056.505-1.404.796-1.778 1.486l-.466.858.068 11.065c.047 7.691.138 11.219.298 11.572.127.279.387 1.238.578 2.132.509 2.38 1.847 5.43 3.517 8.019.906 1.404 3.433 4.373 4.406 5.177.405.335.89.753 1.077.929.41.385 2.373 1.704 3.843 2.581 1.064.635 2.597 1.316 4.719 2.097.614.226 1.336.519 1.604.65.624.306 3.057.31 3.695.007a19.53 19.53 0 011.502-.585c.938-.327 1.39-.514 3.35-1.385 4.641-2.063 9.421-6.637 12.02-11.501 1.226-2.297 1.877-3.992 2.548-6.636l.556-2.196V25.378c.001-10.943-.01-11.284-.405-11.836-.91-1.275-7.196-3.436-13.196-4.537-1.56-.287-11.761-.554-13.501-.355zm7.747 9.786c1.841.608 3.203 1.896 4.225 3.999.414.852.507 1.399.58 3.4l.085 2.386h1.38c2.24 0 2.022-.974 2.022 9.034 0 7.826-.036 8.802-.322 8.911-.42.161-20.458.161-20.877 0-.287-.11-.322-1.084-.322-8.91 0-10.008-.217-9.035 2.019-9.035h1.376l.103-2.344c.097-2.181.155-2.447.84-3.831 1.622-3.283 5.325-4.787 8.891-3.61zm-3.645.485c-1.328.201-1.9.492-3.156 1.598-1.541 1.358-2.04 2.63-2.128 5.418l-.071 2.284h13.028v-2.136c0-1.926-.058-2.261-.585-3.401-1.33-2.875-3.912-4.246-7.088-3.763zM43.188 29.29c-.155.404-.186 14.658-.034 15.47l.135.721 9.773-.052 9.773-.053V29.134l-9.773-.052c-7.813-.042-9.794 0-9.874.208zm10.647 7.185c.554.5.478 1.412-.152 1.824a1.173 1.173 0 01-1.637-1.637c.401-.613 1.224-.699 1.79-.187zm-1.253.882c0 .27.136.406.406.406.271 0 .406-.136.406-.406s-.135-.406-.406-.406c-.27 0-.406.135-.406.406zM1.108 68.674c-.054.14-.074 3.36-.045 7.157l.054 6.9 52.016.052c51.495.05 52.019.047 52.23-.347.14-.261.195-2.724.16-7.157l-.054-6.759-52.132-.05c-41.744-.042-52.151 0-52.23.204zm104.057 6.952v7.004H1.218V68.622h103.947v7.004z" fill="#45726D"/><path fill-rule="evenodd" clip-rule="evenodd" d="M48.014 8.66c-7.36.876-15.125 3.235-16.364 4.973l-.486.68v10.761c0 10.515.01 10.81.474 12.969.493 2.289 1.46 5.03 2.513 7.115 2.679 5.306 7.71 9.942 13.362 12.31 4.416 1.851 5.697 1.999 8.506.982 5.307-1.922 9.397-4.693 12.702-8.607 2.674-3.165 4.473-6.838 5.544-11.317l.546-2.286.001-10.999c.001-12.688.175-11.646-2.14-12.796-3.025-1.504-9.896-3.307-14.13-3.708-2.033-.193-9.115-.244-10.528-.076zm7.826 9.89c1.506.608 2.395 1.357 3.264 2.75.999 1.602 1.03 1.717 1.168 4.383l.127 2.436 1.624.102 1.624.101v17.866H42.33V28.322l1.65-.058 1.65-.059.086-2.393c.075-2.124.15-2.528.665-3.58 1.821-3.722 5.66-5.217 9.459-3.683zm-5.649.95c-2.563 1.281-3.825 3.76-3.664 7.198l.066 1.421h12.791l.06-1.725c.115-3.346-1.088-5.609-3.666-6.898-1.049-.524-1.46-.614-2.79-.614-1.331 0-1.74.09-2.797.618zm-6.948 17.755v8.223h19.461l.067-7.969c.037-4.383.034-8.083-.007-8.222-.058-.199-2.194-.254-9.797-.254h-9.724v8.222zm10.429-.899c.619.487.705 1.288.199 1.847-.704.778-2.104.226-2.098-.827.004-.624.16-.887.708-1.198.546-.31.576-.305 1.19.178zm-1 .815c-.176.287.215.678.502.501.322-.199.27-.721-.072-.721-.161 0-.354.099-.43.22zm52.572 34.09c0 1.508.032 2.124.071 1.37.039-.753.039-1.987 0-2.74-.039-.754-.071-.137-.071 1.37zm-.047 10.151c0 .28.046.394.102.254a.774.774 0 000-.507c-.056-.14-.102-.026-.102.253z" fill="#FFC746"/><path fill-rule="evenodd" clip-rule="evenodd" d="M48.982 8.674c.308.046.765.045 1.015-.003.25-.048-.003-.087-.561-.085-.559.001-.763.04-.454.088zm7.206-.003c.253.049.618.047.813-.004.194-.05-.013-.09-.46-.088-.446.002-.605.044-.352.092zm-9.9.174a59.36 59.36 0 01-1.789.301c-.817.13-1.446.274-1.399.321.084.084 3.905-.471 4.305-.626.245-.094-.685-.091-1.116.004zm14.212.29c1.173.216 2.221.366 2.33.334.27-.08-1.966-.497-3.345-.625-.614-.057-.157.074 1.015.29zm-18.31.547c.147.058.322.05.39-.016.067-.068-.053-.116-.267-.107-.236.01-.285.058-.123.123zm-1.827.406c.147.058.322.051.39-.016.067-.068-.053-.116-.267-.107-.237.01-.285.058-.123.123zm-1.861.395c-.542.167-.95.34-.905.384.044.044.625-.09 1.29-.299.665-.208 1.073-.38.905-.383-.167-.003-.748.131-1.29.298zm27.784-.16c.628.27 1.68.477 1.32.261-.167-.1-.624-.239-1.015-.308-.48-.085-.578-.07-.305.048zm3.35.952c0 .106 1.148.599 1.845.791.407.112.43.098.14-.084-.442-.278-1.985-.827-1.985-.707zm-34.818.505c-.453.222-.587.343-.304.274.593-.146 1.616-.667 1.32-.67-.112-.002-.57.176-1.016.396zm-2.678 1.33l-.57.523.66-.46c.362-.252.66-.486.66-.521 0-.16-.225-.023-.75.459zm41.487.014c.352.32.738.763.856.987.12.223.22.304.223.18.009-.336-.773-1.266-1.279-1.523-.293-.15-.226-.03.2.356zM31.26 14.327c-.121.319-.18 4.39-.152 10.506l.047 9.986.106-10.253c.058-5.639.18-10.366.27-10.506.09-.14.11-.254.046-.254-.066 0-.208.235-.317.521zM74.806 24.77c0 5.638.026 7.945.058 5.126.032-2.82.032-7.433 0-10.253-.032-2.82-.058-.512-.058 5.127zm-24.152-6.606c-.782.358-.647.36.609.012.615-.17.815-.284.507-.286-.279-.003-.781.12-1.116.274zm3.451-.16c.223.05.814.222 1.312.384.498.163.818.215.71.118-.292-.266-1.516-.643-2.001-.616-.408.023-.409.028-.02.114zm-6.153 1.822l-.953.943 1.015-.877c.559-.482 1.054-.906 1.1-.943.047-.037.019-.067-.063-.067-.08 0-.575.425-1.1.944zm3.577-.806c.147.06.322.052.39-.015.067-.068-.053-.116-.267-.107-.236.01-.285.058-.123.122zm2.64 0c.146.06.321.052.389-.015.067-.068-.053-.116-.267-.107-.236.01-.284.058-.122.122zm-3.82.37c-.279.159-.416.29-.304.29.111 0 .431-.131.71-.29.28-.16.416-.29.305-.29-.112 0-.432.13-.71.29zm4.873 0c.279.159.599.29.71.29.112 0-.025-.131-.304-.29-.28-.16-.6-.29-.71-.29-.112 0 .025.13.304.29zm2.436.202c.262.28.523.508.578.508.056 0-.113-.228-.375-.508-.262-.279-.523-.507-.578-.507-.056 0 .113.228.375.507zm-9.25 1.168l-.596.66.66-.597c.614-.556.752-.723.596-.723-.035 0-.332.297-.66.66zm9.067.041c.29.34.678.845.863 1.12.184.277.335.386.335.242 0-.142-.388-.646-.863-1.12-.474-.473-.625-.581-.335-.242zm1.62.48c.36.579.692 1.052.738 1.052.146 0-.829-1.636-1.117-1.875-.151-.126.02.245.379.823zm-12.605.29c-.328.537-.587 1.267-.338.948.302-.386.957-1.607.861-1.607-.067 0-.302.297-.523.66zm12.752 4.163l.092 2.284H46.642l.093-2.183c.063-1.453.035-1.958-.083-1.512-.097.368-.15 1.373-.118 2.233l.06 1.563h12.79l.059-1.666c.032-.916-.02-1.967-.117-2.335-.115-.438-.144.118-.084 1.616zm1.145.558l.012 1.827 1.656.102c.91.056 1.613.033 1.561-.05-.052-.085-.77-.153-1.597-.153h-1.503l-.07-1.777-.07-1.776.011 1.827zM42.361 28.17c-.052.084.468.127 1.155.095 2.102-.095 2.35-.185.602-.217-.914-.017-1.705.038-1.757.122zm21.386 9.187l-.1 8.831h-10.69c-5.88 0-10.648.069-10.596.152.052.084 4.828.153 10.615.153 8.643 0 10.56-.05 10.75-.278.165-.199.215-2.723.176-8.983l-.054-8.707-.1 8.832zm-15.682-8.172c2.708.032 7.14.032 9.847 0s.492-.058-4.923-.058c-5.416 0-7.632.026-4.924.058zm14.72.965c.002.446.044.605.092.352.048-.252.047-.618-.004-.812-.05-.194-.09.013-.088.46zM31.32 35.733c0 .502.04.708.088.456a2.898 2.898 0 000-.913c-.049-.252-.088-.046-.088.457zm43.239.304c.002.447.044.605.092.353.049-.253.047-.618-.004-.812-.05-.194-.09.012-.088.46zm-22.587.305c-.844.844-.163 2.436 1.044 2.436.639 0 1.393-.78 1.393-1.44 0-.625-.528-1.402-.953-1.402-.223 0-.157.128.215.42.975.767.505 2.219-.719 2.219-.63 0-1.184-.58-1.18-1.234.004-.589.166-.856.708-1.163.223-.127.292-.233.152-.236-.14-.004-.436.176-.66.4zm-20.473.812c0 .279.046.393.103.253a.782.782 0 000-.507c-.057-.14-.103-.025-.103.254zm21.173.017c-.177.287.214.678.5.501.122-.075.211-.29.198-.48-.021-.31-.033-.308-.116.013-.052.195-.188.355-.303.355-.116 0-.157-.137-.093-.305.135-.353.014-.407-.186-.084zm21.665.186c0 .279.046.393.102.254a.782.782 0 000-.508c-.056-.14-.102-.025-.102.254zm-.22 1.133c.01.237.059.285.123.123.059-.146.052-.322-.016-.39-.067-.067-.115.053-.106.267zm-42.016 1.506c-.003.167.12.579.273.914.358.784.364.42.007-.508-.15-.39-.277-.574-.28-.406zm41.41.63l-.35 1.168c-.055.183.032.105.193-.174.296-.512.65-1.827.491-1.827-.047 0-.198.375-.335.833zm-39.77 3.73c.243.5.477.875.52.832.091-.092-.729-1.74-.866-1.74-.053 0 .103.408.346.908zm38.653-.735c-.26.42-.507 1.26-.342 1.158.1-.062.278-.387.395-.722.203-.582.176-.806-.053-.436zm-24.33 1.806c2.708.032 7.14.032 9.847 0s.492-.058-4.923-.058c-5.416 0-7.632.026-4.924.058zm-13.383.787c.114.21.356.563.537.786.306.377.307.36.017-.24-.173-.356-.415-.71-.538-.786-.161-.1-.166-.031-.017.24zm36.192.392c-.234.398-.334.666-.222.597.22-.136.88-1.32.735-1.32-.047 0-.278.326-.513.723zM35.71 47.812c.12.224.456.68.747 1.015.29.335.43.427.31.203-.12-.223-.456-.68-.747-1.015-.29-.335-.43-.426-.31-.203zm34.1.457c-.584.705-.832 1.066-.731 1.066.056 0 .346-.32.644-.71.553-.726.62-1 .087-.356zm-32.252 1.98c.262.279.523.507.578.507.056 0-.113-.228-.375-.507-.262-.28-.523-.508-.578-.508-.056 0 .113.228.375.508zm30.64.05l-.492.559.559-.492c.307-.271.558-.523.558-.559 0-.16-.164-.03-.624.492zm-29.716.918c.054.142.303.383.552.535.432.263.43.25-.04-.259-.55-.596-.657-.654-.512-.276zm28.498.276c-.469.51-.47.522-.039.258.25-.151.498-.392.552-.534.145-.378.037-.32-.513.276zm-26.783 1.395c.263.279.523.507.579.507.055 0-.114-.228-.376-.507-.262-.28-.522-.508-.578-.508-.056 0 .113.229.375.508zm25.264.152l-.597.66.66-.596c.615-.556.753-.724.596-.724-.035 0-.332.297-.66.66zm-24.109.773c.245.273.747.669 1.117.88.8.457.598.241-.648-.692-.672-.504-.796-.554-.469-.188zm21.899.819c-1.425 1.02-1.889 1.403-1.33 1.1.539-.294 2.842-1.948 2.842-2.042 0-.14-.008-.135-1.512.942zm-19.92.569c.144.234.927.707.927.56 0-.047-.24-.243-.533-.435-.293-.191-.47-.248-.395-.126zm1.536.928c0 .056.456.333 1.015.616.558.283 1.015.469 1.015.413 0-.056-.457-.333-1.015-.616-.559-.283-1.015-.469-1.015-.413zm15.581.225c-.758.412-.712.583.051.188.335-.173.61-.358.61-.411 0-.13-.022-.123-.66.223zm-1.37.696c-.167.108-.213.197-.101.197.111 0 .34-.089.507-.197.168-.108.213-.197.102-.197-.112 0-.34.089-.508.197zm-1.421.609c-.168.108-.213.197-.102.197.112 0 .34-.089.508-.197.167-.108.213-.197.102-.197-.112 0-.34.089-.508.197zm-9.312.095c.184.183 1.597.721 1.597.608 0-.063-.317-.247-.704-.409-.707-.295-1.07-.376-.893-.2zm8.195.31c-.158.258.11.258.508 0 .262-.169.257-.196-.039-.2-.189 0-.4.09-.469.2zm-3.451.813l-1.624.128 1.523.035c.837.019 1.66-.055 1.827-.163.167-.108.213-.181.101-.163a56.87 56.87 0 01-1.827.163zm52.154 12.384c0 1.508.032 2.124.071 1.37.039-.753.039-1.987 0-2.74-.039-.754-.071-.137-.071 1.37zm-.047 10.151c0 .28.046.394.102.254a.775.775 0 000-.507c-.056-.14-.102-.026-.102.253z" fill="#A1833E"/></svg>