<svg width="105" height="94" fill="none" xmlns="http://www.w3.org/2000/svg"><path fill-rule="evenodd" clip-rule="evenodd" d="M4.899.396c-1.656.456-2.7 1.3-3.858 3.12l-.9 1.415V41.81c0 33.997.038 36.956.478 37.879.263.55.581 1 .708 1s.23.17.23.378c0 .627 2.17 2.168 3.899 2.77 1.233.43 2 .523 3.182.386.856-.098 5.42-.238 10.142-.31l8.585-.132-.089-.625c-.088-.621-.139-.627-7.027-.775-3.816-.082-6.747-.182-6.514-.222.542-.094 1.987-2.36 2.257-3.54.114-.497.497-1.859.85-3.027.904-2.984 2.079-7.035 4.107-14.16a578.51 578.51 0 011.438-4.956c.37-1.246.982-3.349 1.362-4.672.38-1.324 1.022-3.555 1.427-4.956a148.18 148.18 0 001.02-3.682c.474-1.891 1.47-3.32 2.955-4.238l1.39-.86 31.985-.074 31.986-.074 1.31.64c1.542.755 2.555 1.849 3.19 3.45.509 1.277 1.665 1.824 1.665.787 0-1.141-.897-3.023-1.917-4.023-1.83-1.795-3.421-2.263-7.693-2.263h-3.7V18.076l-.983-1.536c-.777-1.214-1.337-1.714-2.682-2.393l-1.7-.858H34.409V9.313c0-4.524-.29-5.454-2.302-7.387C30.174.069 29.44-.024 17.09.004 9.145.022 5.873.127 4.9.396zm23.954 1.328c.642.182 1.64.777 2.219 1.323 1.756 1.657 1.92 2.276 1.92 7.231v4.409l24.568.08 24.567.08 1.022.707c1.585 1.099 2.416 2.272 2.765 3.908.194.909.32 4.565.32 9.27v7.77l-27.966.076-27.966.075-1.334.639c-.734.352-1.656.96-2.049 1.354-.805.805-2.092 3.45-2.323 4.775-.084.483-.45 1.834-.81 3.002-.872 2.817-2.837 9.56-4.54 15.576-.42 1.48-1.06 3.71-1.422 4.956-.363 1.246-.99 3.412-1.392 4.814-2 6.96-2.417 8.002-3.671 9.159-3.268 3.012-7.818 2.433-10.304-1.312l-1.04-1.568V5.501l.93-1.341c1.835-2.642 2.148-2.7 14.754-2.736 7.283-.02 10.95.073 11.753.3zM8.326 7.834C6.481 9.75 5.24 11.257 5.24 11.583c0 .128.776 1.042 1.723 2.032.948.99 1.845 2.022 1.993 2.294.148.273.583.496.967.496 1.233 0 .866-1.1-.993-2.974-.928-.934-1.691-1.812-1.697-1.95-.005-.137.276-.533.627-.878 1.747-1.721 2.782-3.114 2.704-3.639-.147-.988-.62-.804-2.237.872zm10.26-.846c-.168.428-1.012 2.053-1.877 3.61-2.857 5.147-3.065 5.806-1.83 5.806.342 0 .74-.39 1.08-1.062 1.881-3.716 3.809-7.332 4.03-7.561.41-.424.303-1.212-.188-1.4-.742-.285-.9-.206-1.216.607zm4.967-.59c-.376.375-.171.892.752 1.9.517.564 1.02 1.026 1.119 1.026.098 0 .644.478 1.212 1.062l1.034 1.062-2.153 2.014c-2.248 2.103-2.666 2.942-1.464 2.942.45 0 1.258-.547 2.336-1.582.906-.87 2.007-1.889 2.446-2.264.459-.391.76-.902.708-1.197-.098-.56-4.993-5.147-5.494-5.15a.793.793 0 00-.496.187zm-9.169 16.024c-.303.397-1.508 7.517-1.502 8.878.002.483-.314 2.713-.702 4.956-.388 2.243-.707 4.562-.708 5.153-.001.592-.259 2.51-.573 4.261-.313 1.752-.684 4.327-.824 5.721-.14 1.395-.528 4.384-.861 6.643-.334 2.258-.923 6.4-1.31 9.204-.385 2.803-.89 6.436-1.12 8.071-.547 3.891-.542 3.965.225 3.965.539 0 .717-.274 1.147-1.77.28-.974.817-2.79 1.193-4.036a568.034 568.034 0 001.42-4.814A899.832 899.832 0 0113.755 58.6c1.71-5.655 2.18-7.233 2.956-9.912a183.88 183.88 0 011.451-4.746c.369-1.13.67-2.257.67-2.504 0-.247.303-1.36.673-2.475a335.46 335.46 0 001.487-4.644l.814-2.618 28.887-.073c27.138-.069 28.886-.102 28.886-.562 0-.269-1.9-2.403-4.222-4.743l-4.223-4.255h-28.24c-22.259 0-28.297.075-28.51.354zm22.203 29.863c-.281.073-.631.449-.778.835-.155.408-.267 6.881-.267 15.41v14.71H53.1V94h1.136c1.159 0 1.275-.04 3.253-1.097.623-.333 5.084-2.612 9.912-5.064l8.78-4.459 10.902-.141 10.904-.142 1.416-.75c1.892-1.001 3.234-2.37 4.177-4.259l.778-1.561-.004-11.583c-.002-6.37-.098-11.723-.212-11.894-.634-.95-1.167-.963-34.244-.93-18.04.018-33.03.092-33.31.165z" fill="#567CF3"/><path fill-rule="evenodd" clip-rule="evenodd" d="M4.899.396c-1.656.456-2.7 1.3-3.858 3.12l-.9 1.415V41.81c0 33.997.038 36.956.478 37.879.263.55.581 1 .708 1s.23.17.23.378c0 .627 2.17 2.168 3.899 2.77 1.233.43 2 .523 3.182.386.856-.098 5.42-.238 10.142-.31l8.585-.132-.089-.625c-.088-.621-.139-.627-7.027-.775-3.816-.082-6.747-.182-6.514-.222.542-.094 1.987-2.36 2.257-3.54.114-.497.497-1.859.85-3.027.904-2.984 2.079-7.035 4.107-14.16a578.51 578.51 0 011.438-4.956c.37-1.246.982-3.349 1.362-4.672.38-1.324 1.022-3.555 1.427-4.956a148.18 148.18 0 001.02-3.682c.474-1.891 1.47-3.32 2.955-4.238l1.39-.86 31.985-.074 31.986-.074 1.31.64c1.542.755 2.555 1.849 3.19 3.45.509 1.277 1.665 1.824 1.665.787 0-1.141-.897-3.023-1.917-4.023-1.83-1.795-3.421-2.263-7.693-2.263h-3.7V18.076l-.983-1.536c-.777-1.214-1.337-1.714-2.682-2.393l-1.7-.858H34.409V9.313c0-4.524-.29-5.454-2.302-7.387C30.174.069 29.44-.024 17.09.004 9.145.022 5.873.127 4.9.396zm23.954 1.328c.642.182 1.64.777 2.219 1.323 1.756 1.657 1.92 2.276 1.92 7.231v4.409l24.568.08 24.567.08 1.022.707c1.585 1.099 2.416 2.272 2.764 3.908.195.909.32 4.565.32 9.27v7.77l-27.965.076-27.966.075-1.334.639c-.734.352-1.656.96-2.049 1.354-.805.805-2.092 3.45-2.323 4.775-.084.483-.45 1.834-.81 3.002-.872 2.817-2.837 9.56-4.54 15.576-.42 1.48-1.06 3.71-1.422 4.956-.363 1.246-.99 3.412-1.392 4.814-2 6.96-2.417 8.002-3.671 9.159-3.268 3.012-7.818 2.433-10.304-1.312l-1.04-1.568V5.501l.93-1.341c1.835-2.642 2.148-2.7 14.754-2.736 7.283-.02 10.95.073 11.753.3zM8.326 7.834C6.481 9.75 5.24 11.257 5.24 11.583c0 .128.776 1.042 1.723 2.032.948.99 1.845 2.022 1.993 2.294.148.273.583.496.967.496 1.233 0 .866-1.1-.993-2.974-.928-.934-1.691-1.812-1.697-1.95-.005-.137.276-.533.627-.878 1.747-1.721 2.782-3.114 2.704-3.639-.147-.988-.62-.804-2.237.872zm10.26-.846c-.168.428-1.012 2.053-1.877 3.61-2.857 5.147-3.065 5.806-1.83 5.806.342 0 .74-.39 1.08-1.062 1.881-3.716 3.809-7.332 4.03-7.561.41-.424.303-1.212-.188-1.4-.742-.285-.9-.206-1.216.607zm4.967-.59c-.376.375-.171.892.752 1.9.517.564 1.02 1.026 1.119 1.026.098 0 .644.478 1.212 1.062l1.034 1.062-2.153 2.014c-2.248 2.103-2.666 2.942-1.464 2.942.45 0 1.258-.547 2.336-1.582.906-.87 2.007-1.889 2.446-2.264.459-.391.76-.902.708-1.197-.098-.56-4.993-5.147-5.494-5.15a.793.793 0 00-.496.187zm-9.169 16.024c-.303.397-1.508 7.517-1.502 8.878.002.483-.314 2.713-.702 4.956-.388 2.243-.707 4.562-.708 5.153-.001.592-.259 2.51-.573 4.261-.313 1.752-.684 4.327-.824 5.721-.14 1.395-.528 4.384-.861 6.643-.334 2.258-.923 6.4-1.31 9.204-.385 2.803-.89 6.436-1.12 8.071-.547 3.891-.542 3.965.225 3.965.539 0 .717-.274 1.147-1.77.28-.974.817-2.79 1.193-4.036a568.034 568.034 0 001.42-4.814A899.832 899.832 0 0113.755 58.6c1.71-5.655 2.18-7.233 2.956-9.912a183.88 183.88 0 011.451-4.746c.369-1.13.67-2.257.67-2.504 0-.247.303-1.36.673-2.475a335.46 335.46 0 001.487-4.644l.814-2.618 28.887-.073c27.138-.069 28.886-.102 28.886-.562 0-.269-1.9-2.403-4.222-4.743l-4.223-4.255h-28.24c-22.259 0-28.297.075-28.51.354zm59.743 4.41c1.83 1.84 3.328 3.433 3.328 3.539 0 .106-12.734.193-28.297.193H20.861l-.571 1.77c-.315.973-1.355 4.446-2.312 7.717-2.354 8.043-3.066 10.459-3.675 12.46-.891 2.93-2.2 7.34-2.354 7.93-.56 2.15-3.052 10.17-3.204 10.308-.102.094-.092-.403.023-1.104.114-.7.31-2.103.435-3.115.125-1.013.498-3.752.829-6.089.331-2.336.98-6.988 1.44-10.337.462-3.348.972-6.98 1.133-8.07.16-1.091.614-4.34 1.006-7.222.392-2.882.9-6.53 1.127-8.108.227-1.577.413-2.947.413-3.044 0-.097 12.521-.176 27.824-.175l27.825.001 3.327 3.346zm-37.54 25.453c-.281.073-.632.449-.778.835-.155.408-.267 6.881-.267 15.41v14.71H53.1V94h1.136c1.159 0 1.275-.04 3.253-1.097.623-.333 5.084-2.612 9.912-5.064l8.78-4.459 10.902-.141 10.904-.142 1.416-.75c1.892-1.001 3.234-2.37 4.177-4.259l.778-1.561-.004-11.583c-.002-6.37-.098-11.723-.212-11.894-.634-.95-1.167-.963-34.244-.93-18.04.018-33.03.092-33.31.165z" fill="#FFC746"/><path fill-rule="evenodd" clip-rule="evenodd" d="M4.899.396c-1.656.456-2.7 1.3-3.858 3.12l-.9 1.415V41.81c0 33.997.038 36.956.478 37.879.263.55.581 1 .708 1s.23.17.23.378c0 .627 2.17 2.168 3.899 2.77 1.233.43 2 .523 3.182.386.856-.098 5.42-.238 10.142-.31l8.585-.132-.089-.625c-.088-.621-.139-.627-7.027-.775-3.816-.082-6.747-.182-6.514-.222.542-.094 1.987-2.36 2.257-3.54.114-.497.497-1.859.85-3.027.904-2.984 2.079-7.035 4.107-14.16a578.51 578.51 0 011.438-4.956c.37-1.246.982-3.349 1.362-4.672.38-1.324 1.022-3.555 1.427-4.956a148.18 148.18 0 001.02-3.682c.474-1.891 1.47-3.32 2.955-4.238l1.39-.86 31.985-.074 31.986-.074 1.31.64c1.542.755 2.555 1.849 3.19 3.45.509 1.277 1.665 1.824 1.665.787 0-1.141-.897-3.023-1.917-4.023-1.83-1.795-3.421-2.263-7.693-2.263h-3.7V18.076l-.983-1.536c-.777-1.214-1.337-1.714-2.682-2.393l-1.7-.858H34.409V9.313c0-4.524-.29-5.454-2.302-7.387C30.174.069 29.44-.024 17.09.004 9.145.022 5.873.127 4.9.396zm23.954 1.328c.642.182 1.64.777 2.219 1.323 1.756 1.657 1.92 2.276 1.92 7.231v4.409l24.568.08 24.567.08 1.022.707c1.585 1.099 2.416 2.272 2.765 3.908.194.909.32 4.565.32 9.27v7.77l-27.966.076-27.966.075-1.334.639c-.734.352-1.656.96-2.049 1.354-.805.805-2.092 3.45-2.323 4.775-.084.483-.45 1.834-.81 3.002-.872 2.817-2.837 9.56-4.54 15.576-.42 1.48-1.06 3.71-1.422 4.956-.363 1.246-.99 3.412-1.392 4.814-2 6.96-2.417 8.002-3.671 9.159-3.268 3.012-7.818 2.433-10.304-1.312l-1.04-1.568V5.501l.93-1.341c1.835-2.642 2.148-2.7 14.754-2.736 7.283-.02 10.95.073 11.753.3zM8.326 7.834C6.481 9.75 5.24 11.257 5.24 11.583c0 .128.776 1.042 1.723 2.032.948.99 1.845 2.022 1.993 2.294.148.273.583.496.967.496 1.233 0 .866-1.1-.993-2.974-.928-.934-1.691-1.812-1.697-1.95-.005-.137.276-.533.627-.878 1.747-1.721 2.782-3.114 2.704-3.639-.147-.988-.62-.804-2.237.872zm10.26-.846c-.168.428-1.012 2.053-1.877 3.61-2.857 5.147-3.065 5.806-1.83 5.806.342 0 .74-.39 1.08-1.062 1.881-3.716 3.809-7.332 4.03-7.561.41-.424.303-1.212-.188-1.4-.742-.285-.9-.206-1.216.607zm4.967-.59c-.376.375-.171.892.752 1.9.517.564 1.02 1.026 1.119 1.026.098 0 .644.478 1.212 1.062l1.034 1.062-2.153 2.014c-2.248 2.103-2.666 2.942-1.464 2.942.45 0 1.258-.547 2.336-1.582.906-.87 2.007-1.889 2.446-2.264.459-.391.76-.902.708-1.197-.098-.56-4.993-5.147-5.494-5.15a.793.793 0 00-.496.187zm-9.169 16.024c-.303.397-1.508 7.517-1.502 8.878.002.483-.314 2.713-.702 4.956-.388 2.243-.707 4.562-.708 5.153-.001.592-.259 2.51-.573 4.261-.313 1.752-.684 4.327-.824 5.721-.14 1.395-.528 4.384-.861 6.643-.334 2.258-.923 6.4-1.31 9.204-.385 2.803-.89 6.436-1.12 8.071-.547 3.891-.542 3.965.225 3.965.539 0 .717-.274 1.147-1.77.28-.974.817-2.79 1.193-4.036a568.034 568.034 0 001.42-4.814A899.832 899.832 0 0113.755 58.6c1.71-5.655 2.18-7.233 2.956-9.912a183.88 183.88 0 011.451-4.746c.369-1.13.67-2.257.67-2.504 0-.247.303-1.36.673-2.475a335.46 335.46 0 001.487-4.644l.814-2.618 28.887-.073c27.138-.069 28.886-.102 28.886-.562 0-.269-1.9-2.403-4.222-4.743l-4.223-4.255h-28.24c-22.259 0-28.297.075-28.51.354zm59.743 4.41c1.83 1.84 3.328 3.433 3.328 3.539 0 .106-12.734.193-28.297.193H20.861l-.571 1.77c-.315.973-1.355 4.446-2.312 7.717-2.354 8.043-3.066 10.459-3.675 12.46-.891 2.93-2.2 7.34-2.354 7.93-.56 2.15-3.052 10.17-3.204 10.308-.102.094-.092-.403.023-1.104.114-.7.31-2.103.435-3.115.125-1.013.498-3.752.829-6.089.331-2.336.98-6.988 1.44-10.337.462-3.348.972-6.98 1.133-8.07.16-1.091.614-4.34 1.006-7.222.392-2.882.9-6.53 1.127-8.108.227-1.577.413-2.947.413-3.044 0-.097 12.521-.176 27.824-.175l27.825.001 3.327 3.346zm-37.54 25.453c-.281.073-.631.449-.778.835-.155.408-.267 6.881-.267 15.41v14.71H53.1V94h1.136c1.159 0 1.275-.04 3.253-1.097.623-.333 5.084-2.612 9.912-5.064l8.78-4.459 10.902-.141 10.904-.142 1.416-.75c1.892-1.001 3.234-2.37 4.177-4.259l.778-1.561-.004-11.583c-.002-6.37-.098-11.723-.212-11.894-.634-.95-1.167-.963-34.244-.93-18.04.018-33.03.092-33.31.165zm66.497 12.687V76.3l-.79 1.344c-1.052 1.79-2.01 2.672-3.883 3.572l-1.557.748-10.762.142-10.761.141-10.401 5.321-10.402 5.322-.077-5.322-.077-5.32-8.85-.076-8.85-.074v-13.85c0-7.617.078-14.051.173-14.298.156-.408 3.266-.443 33.205-.378l33.032.072v11.328zM47.813 61.58c-1.721.858-2.494 1.642-2.249 2.281.167.434.225.434.813.003 1.305-.958 3.502-1.86 4.537-1.862 1.157-.004 3.302.959 4.63 2.076 1.743 1.467 3.233 2.028 5.355 2.016 2.087-.011 3.08-.415 5.086-2.068 1.253-1.031 3.542-2.022 4.673-2.022 1.189 0 3.192.956 5.579 2.66 3.008 2.15 6.005 2.043 9.17-.325 2.237-1.673 3.644-2.34 4.929-2.337 1.094.002 3.269.882 4.603 1.862.59.432.646.431.818-.016.438-1.14-2.854-2.982-5.329-2.982-1.904 0-3.151.532-5.679 2.42-3.202 2.394-4.916 2.378-8.517-.075-2.897-1.976-3.775-2.345-5.574-2.345-1.803 0-2.76.401-5.607 2.351-3.618 2.478-4.992 2.478-8.612-.002-1.25-.856-2.7-1.735-3.222-1.953-1.519-.634-3.757-.503-5.404.318zm1.098 9.693c-1.297.697-3.458 2.893-3.458 3.516 0 .816.71.612 1.667-.478 1.957-2.228 3.895-2.907 5.673-1.988.439.227 1.794 1.51 3.01 2.85 4.557 5.019 6.687 5.078 11.032.305 2.52-2.768 3.625-3.567 4.933-3.567 1.213 0 2.186.553 3.692 2.1.695.714 1.428 1.298 1.629 1.298 1.268 0-1.094-3.1-3.08-4.043-1.157-.549-2.93-.634-4.083-.196-.423.16-2.12 1.673-3.77 3.36-2.094 2.14-3.27 3.127-3.884 3.262-1.576.346-2.985-.498-5.618-3.367-1.328-1.446-2.85-2.836-3.38-3.088-1.266-.6-3.207-.584-4.363.036z" fill="#B19750"/><path fill-rule="evenodd" clip-rule="evenodd" d="M4.899.396c-1.656.456-2.7 1.3-3.858 3.12l-.9 1.415V41.81c0 33.997.038 36.956.478 37.879.263.55.581 1 .708 1s.23.17.23.378c0 .627 2.17 2.168 3.899 2.77 1.233.43 2 .523 3.182.386.856-.098 5.42-.238 10.142-.31l8.585-.132-.089-.625c-.088-.621-.139-.627-7.027-.775-3.816-.082-6.747-.181-6.514-.22.452-.076 2.266-2.862 2.266-3.48 0-.2.335-1.456.744-2.789.918-2.994 1.965-6.594 4.204-14.46a578.51 578.51 0 011.438-4.956c.37-1.246.982-3.349 1.362-4.672.38-1.324 1.022-3.555 1.427-4.956a148.18 148.18 0 001.02-3.682c.474-1.891 1.47-3.32 2.955-4.238l1.39-.86 31.985-.074 31.986-.074 1.31.64c1.542.755 2.555 1.849 3.19 3.45.509 1.277 1.665 1.824 1.665.787 0-1.141-.897-3.023-1.917-4.023-1.83-1.795-3.421-2.263-7.693-2.263h-3.7V18.076l-.983-1.536c-.777-1.214-1.337-1.714-2.682-2.393l-1.7-.858H34.409V9.313c0-4.524-.29-5.454-2.302-7.387C30.174.069 29.44-.024 17.09.004 9.145.022 5.873.127 4.9.396zm23.954 1.328c.642.182 1.64.777 2.219 1.323 1.756 1.657 1.92 2.276 1.92 7.231v4.409l24.568.08 24.567.08 1.022.707c1.585 1.099 2.416 2.272 2.765 3.908.194.909.32 4.565.32 9.27v7.77l-27.966.076-27.966.075-1.334.639c-.734.352-1.656.96-2.049 1.354-.805.805-2.092 3.45-2.323 4.775-.084.483-.45 1.834-.81 3.002-.872 2.817-2.837 9.56-4.54 15.576-.42 1.48-1.06 3.71-1.422 4.956-.363 1.246-.99 3.412-1.392 4.814-2 6.96-2.417 8.002-3.671 9.159-3.268 3.012-7.818 2.433-10.304-1.312l-1.04-1.568V5.501l.93-1.341c1.835-2.642 2.148-2.7 14.754-2.736 7.283-.02 10.95.073 11.753.3zM8.326 7.834C6.51 9.72 5.24 11.255 5.24 11.569c0 .12.777 1.034 1.727 2.031.95.998 1.846 2.037 1.992 2.31.146.272.58.495.964.495 1.233 0 .866-1.1-.993-2.974-.928-.934-1.691-1.812-1.697-1.95-.005-.137.276-.533.627-.878 1.747-1.721 2.782-3.114 2.704-3.639-.147-.988-.62-.804-2.237.872zm10.26-.846c-.168.428-1.012 2.053-1.877 3.61-2.833 5.102-3.06 5.806-1.877 5.806.526 0 .82-.47 3.36-5.38.846-1.636 1.654-3.096 1.797-3.243.41-.424.303-1.212-.188-1.4-.742-.285-.9-.206-1.216.607zm4.967-.59c-.376.375-.171.892.752 1.9.517.564 1.02 1.026 1.119 1.026.098 0 .644.478 1.212 1.062l1.034 1.062-2.153 2.014c-2.24 2.095-2.665 2.942-1.477 2.942.435 0 1.269-.567 2.336-1.588.914-.873 2.02-1.892 2.46-2.264.459-.389.76-.895.707-1.191-.098-.56-4.993-5.147-5.494-5.15a.793.793 0 00-.496.187zm-9.169 16.024c-.303.397-1.508 7.517-1.502 8.878.002.483-.314 2.713-.702 4.956-.388 2.243-.707 4.562-.708 5.153-.001.592-.259 2.51-.573 4.261-.313 1.752-.684 4.327-.824 5.721-.14 1.395-.528 4.384-.861 6.643-.334 2.258-.923 6.4-1.31 9.204-.385 2.803-.89 6.436-1.12 8.071-.547 3.891-.542 3.965.225 3.965.539 0 .717-.274 1.147-1.77.28-.974.817-2.79 1.193-4.036a568.034 568.034 0 001.42-4.814A899.832 899.832 0 0113.755 58.6c1.71-5.655 2.18-7.233 2.956-9.912a183.88 183.88 0 011.451-4.746c.369-1.13.67-2.257.67-2.504 0-.247.303-1.36.673-2.475a335.46 335.46 0 001.487-4.644l.814-2.618 28.887-.073c27.138-.069 28.886-.102 28.886-.562 0-.269-1.9-2.403-4.222-4.743l-4.223-4.255h-28.24c-22.259 0-28.297.075-28.51.354zm59.743 4.41c1.83 1.84 3.328 3.433 3.328 3.539 0 .106-12.734.193-28.297.193H20.861l-.571 1.77c-.315.973-1.355 4.446-2.312 7.717-2.354 8.043-3.066 10.459-3.675 12.46-.891 2.93-2.2 7.34-2.354 7.93-.56 2.15-3.052 10.17-3.204 10.308-.102.094-.092-.403.023-1.104.114-.7.31-2.103.435-3.115.125-1.013.498-3.752.829-6.089.331-2.336.98-6.988 1.44-10.337.462-3.348.972-6.98 1.133-8.07.16-1.091.614-4.34 1.006-7.222.392-2.882.9-6.53 1.127-8.108.227-1.577.413-2.947.413-3.044 0-.097 12.521-.176 27.824-.175l27.825.001 3.327 3.346zm-37.54 25.453c-.281.073-.631.449-.778.835-.155.408-.267 6.881-.267 15.41v14.71H53.1V94h1.136c1.159 0 1.274-.039 3.253-1.097.623-.333 5.084-2.612 9.912-5.064l8.78-4.459 10.902-.141 10.904-.142 1.416-.75c1.892-1.001 3.234-2.37 4.177-4.259l.778-1.561-.004-11.583c-.002-6.37-.098-11.723-.212-11.894-.634-.95-1.167-.963-34.244-.93-18.04.018-33.03.092-33.31.165zm66.571 12.536l.074 11.176-.727 1.487c-.4.818-1.287 1.98-1.971 2.582-2.217 1.951-2.84 2.04-14.346 2.04H76.01l-10.57 5.38c-5.814 2.96-10.714 5.381-10.89 5.381-.225 0-.319-1.58-.319-5.38v-5.381H36.686l-.076-13.897c-.042-7.644.026-14.08.15-14.303.196-.349 4.839-.396 33.276-.334l33.049.072.074 11.177zm-54.165-3.578c-1.243.407-3.54 1.83-3.54 2.193 0 .593.64.46 2.148-.448 1.346-.81 1.923-.99 3.198-.99 1.697 0 3.296.633 4.708 1.864 1.572 1.37 3.38 2.101 5.195 2.101 1.946 0 3.147-.44 4.948-1.815 2.05-1.565 3.412-2.15 5.01-2.15 1.62 0 2.577.41 4.757 2.037 2.054 1.532 3.132 1.93 5.215 1.922 1.928-.007 2.89-.433 6.047-2.676 1.397-.993 1.805-1.136 3.472-1.224 1.754-.092 2.008-.026 3.565.921 1.106.673 1.772.925 1.957.74.35-.35-.605-1.18-2.36-2.048-.884-.437-1.794-.631-2.973-.635-1.889-.004-2.843.391-5.112 2.12-3.538 2.698-5.903 2.628-9.751-.286-1.882-1.425-4.072-2.13-5.75-1.851-1.487.247-2.497.746-4.322 2.138-3.445 2.625-5.873 2.625-9.318 0-.786-.6-1.85-1.303-2.365-1.564-1.273-.644-3.359-.798-4.729-.349zm.142 10.123c-1.148.52-3.682 2.865-3.682 3.409 0 .688.688.39 1.742-.754 1.5-1.626 2.419-2.11 4.008-2.11 1.633 0 2.68.727 4.858 3.38 3.81 4.64 7.148 4.611 10.892-.094 1.936-2.433 3.176-3.286 4.776-3.286 1.57 0 2.49.49 4 2.128.85.922 1.31 1.233 1.516 1.026.39-.39-.876-2.062-2.392-3.16-2.955-2.14-5.435-1.228-9.344 3.438-2.994 3.574-5.392 3.34-8.871-.865-1.33-1.608-2.267-2.447-3.318-2.97-1.757-.876-2.505-.901-4.185-.142z" fill="#765F22"/><path fill-rule="evenodd" clip-rule="evenodd" d="M4.852.408C3.33.826 2.228 1.743.972 3.638L.142 4.89v36.9c0 34.016.037 36.976.477 37.899.263.55.581 1 .708 1s.233.16.236.355c.009.627 2.21 2.207 3.887 2.791 1.239.432 2.004.525 3.188.389.856-.1 5.42-.24 10.142-.312l8.585-.13-.089-.626c-.088-.621-.139-.627-7.027-.775-3.816-.082-6.747-.181-6.514-.22.452-.076 2.266-2.862 2.266-3.48 0-.2.335-1.456.744-2.789.918-2.994 1.965-6.594 4.204-14.46a578.51 578.51 0 011.438-4.956c.37-1.246.982-3.349 1.362-4.672.38-1.324 1.022-3.555 1.427-4.956a148.18 148.18 0 001.02-3.682c.474-1.891 1.47-3.32 2.955-4.238l1.39-.86 31.985-.074 31.986-.074 1.31.64c1.542.755 2.555 1.849 3.19 3.45.509 1.277 1.665 1.824 1.665.787 0-1.141-.897-3.023-1.917-4.023-1.83-1.795-3.421-2.263-7.693-2.263h-3.7V18.076l-.983-1.536c-.777-1.214-1.337-1.714-2.682-2.393l-1.7-.858H34.409V9.313c0-4.524-.29-5.454-2.302-7.387C30.174.069 29.44-.024 17.09.004 8.967.023 5.883.124 4.852.408zm24.002 1.316c.64.182 1.639.777 2.218 1.323 1.756 1.657 1.92 2.276 1.92 7.231v4.409l24.568.08 24.567.08 1.022.707c1.585 1.099 2.416 2.272 2.765 3.908.194.909.32 4.565.32 9.27v7.77l-27.966.076-27.966.075-1.334.639c-.734.352-1.656.96-2.049 1.354-.805.805-2.092 3.45-2.323 4.775-.084.483-.45 1.834-.81 3.002-.68 2.195-1.993 6.669-3.118 10.62a1851.48 1851.48 0 01-2.844 9.912c-.363 1.246-.99 3.412-1.392 4.814-2 6.96-2.417 8.002-3.671 9.159-3.268 3.012-7.818 2.433-10.304-1.312l-1.04-1.568V5.501l.93-1.341c1.835-2.642 2.148-2.7 14.754-2.736 7.283-.02 10.95.073 11.753.3zM8.326 7.834C6.51 9.72 5.24 11.255 5.24 11.569c0 .12.777 1.034 1.727 2.031.95.998 1.846 2.037 1.992 2.31.146.272.58.495.964.495 1.233 0 .866-1.1-.993-2.974-.928-.934-1.691-1.812-1.697-1.95-.005-.137.276-.533.627-.878 1.747-1.721 2.782-3.114 2.704-3.639-.147-.988-.62-.804-2.237.872zm10.26-.846c-.168.428-1.012 2.053-1.877 3.61-2.833 5.102-3.06 5.806-1.877 5.806.526 0 .82-.47 3.36-5.38.846-1.636 1.654-3.096 1.797-3.243.41-.424.303-1.212-.188-1.4-.742-.285-.9-.206-1.216.607zm4.967-.59c-.376.375-.171.892.752 1.9.517.564 1.02 1.026 1.119 1.026.098 0 .644.478 1.212 1.062l1.034 1.062-2.153 2.014c-2.242 2.097-2.665 2.942-1.474 2.942.844 0 5.665-4.49 5.512-5.134-.123-.512-5.068-5.056-5.506-5.06a.793.793 0 00-.496.188zM14.38 22.422c-.15.195-.541 2.202-.87 4.46-.909 6.255-1.492 10.4-1.791 12.744-.15 1.168-.536 3.824-.858 5.901-.322 2.077-.679 4.754-.793 5.947-.114 1.194-.49 4.082-.835 6.418a1179.72 1179.72 0 00-1.329 9.346c-.386 2.803-.89 6.436-1.12 8.071-.548 3.892-.543 3.965.224 3.962.539-.002.715-.276 1.14-1.77a278.7 278.7 0 011.193-4.033 454.567 454.567 0 001.428-4.814 702.47 702.47 0 011.417-4.814c.373-1.247 1.075-3.604 1.56-5.24a765.65 765.65 0 011.534-5.097 405.776 405.776 0 001.43-4.815 183.88 183.88 0 011.451-4.746c.369-1.13.67-2.257.67-2.504 0-.247.303-1.36.673-2.475a335.46 335.46 0 001.487-4.644l.814-2.618 28.887-.073c27.138-.069 28.886-.102 28.886-.562 0-.269-1.9-2.403-4.222-4.743l-4.223-4.255h-28.24c-22.257 0-28.297.075-28.513.354zm59.746 4.41c1.83 1.84 3.328 3.433 3.328 3.539 0 .106-12.734.193-28.297.193H20.861l-.571 1.77c-.315.973-1.355 4.446-2.312 7.717-2.354 8.043-3.066 10.459-3.675 12.46-.891 2.93-2.2 7.34-2.354 7.93-.56 2.15-3.052 10.17-3.204 10.308-.102.094-.092-.403.023-1.104.114-.7.31-2.103.435-3.115.125-1.013.498-3.752.829-6.089.331-2.336.98-6.988 1.44-10.337.462-3.348.972-6.98 1.133-8.07.16-1.091.614-4.34 1.006-7.222.392-2.882.9-6.53 1.127-8.108.227-1.577.413-2.947.413-3.044 0-.097 12.521-.176 27.824-.175l27.825.001 3.327 3.346zm-37.54 25.453c-.281.073-.631.449-.778.835-.155.408-.267 6.881-.267 15.41v14.71H53.1V94h1.136c1.159 0 1.274-.039 3.253-1.097.623-.333 5.084-2.612 9.912-5.064l8.78-4.459 10.902-.141 10.904-.142 1.416-.754c1.841-.982 3.112-2.274 4.132-4.202l.823-1.558-.004-11.61c-.002-6.387-.098-11.752-.212-11.923-.634-.95-1.167-.963-34.244-.93-18.04.018-33.03.092-33.31.165zm66.489 1.392c.409.408.449 1.633.375 11.399l-.084 10.941-.798 1.625c-.471.96-1.293 2.032-2.007 2.616-2.207 1.809-2.5 1.848-13.946 1.848H76.308l-10.871 5.522c-5.98 3.037-10.943 5.522-11.032 5.522-.088 0-.195-2.453-.237-5.451l-.077-5.452-8.85-.075-8.85-.074V67.956c0-13.17.034-14.162.496-14.43.328-.192 11.485-.292 33.114-.298 29.656-.008 32.659.033 33.075.449zm-54.649 7.92c-1.326.474-2.923 1.675-2.625 1.975.113.115.71-.125 1.325-.532 2.692-1.781 5.358-1.604 8.219.547 4.158 3.126 6.692 3.148 10.711.096 3.277-2.489 5.795-2.494 9.14-.019 4.156 3.075 6.607 3.055 10.788-.089 2.832-2.128 5.454-2.32 8.01-.585 1.072.727 1.584.882 1.584.478 0-.383-1.647-1.476-2.878-1.91-2.546-.898-4.934-.32-7.672 1.86-.79.63-2.106 1.335-2.944 1.579-1.363.396-1.665.397-3.003.008-.818-.238-2.266-1.011-3.217-1.718-3.878-2.882-6.662-2.852-10.584.11-.854.645-2.224 1.368-3.044 1.607-1.345.39-1.641.39-3.024-.013-.852-.247-2.177-.954-2.983-1.591-2.724-2.153-5.21-2.727-7.803-1.802zm.566 9.932c-1.09.573-3.256 2.654-3.256 3.13 0 .565.153.469 1.65-1.027 1.714-1.715 3.199-2.254 4.847-1.76 1.18.354 2.387 1.42 4.664 4.121 2.964 3.516 5.983 3.562 9.031.136 2.646-2.974 3.75-3.956 4.8-4.272 1.587-.477 3.1.083 4.792 1.775 1.497 1.496 1.65 1.592 1.65 1.028 0-.498-2.196-2.582-3.313-3.143-1.287-.647-3.125-.57-4.465.19-.617.35-1.892 1.55-2.832 2.665-2.267 2.693-3.046 3.265-4.666 3.42-2.08.2-3.044-.436-6.055-3.993-.75-.888-1.86-1.867-2.466-2.176-1.314-.67-3.204-.71-4.38-.094z" fill="#2A2A2A"/></svg>