<svg width="96" height="94" fill="none" xmlns="http://www.w3.org/2000/svg"><path fill-rule="evenodd" clip-rule="evenodd" d="M29.876.37c-.692.196-1.622.595-2.066.886-.444.292-.897.53-1.006.53-.241 0-2.203 2.418-2.796 3.447-.546.947-1.055 2.63-1.055 3.49v.664H12.676c-5.652 0-10.57.058-10.93.13-.43.084-.782.339-1.035.75-.367.594-.38 1.158-.332 13.622l.05 13.002 5.523.1c5.218.095 5.541.122 5.858.502.405.485 2.14 1.898 2.331 1.898.202 0 2.146 1.464 2.146 1.616 0 .072.386.388.858.703.473.314 1.375.956 2.005 1.427.63.47 1.244.855 1.364.855.12 0 .217.08.217.176 0 .096.5.557 1.111 1.024l1.111.849v19.942c0 22.157-.069 20.99 1.362 23.206 1.247 1.933 1.996 2.687 3.42 3.444 2.703 1.439 1.748 1.383 22.639 1.322l18.738-.055 1.414-.58c1.87-.766 2.953-1.554 3.771-2.743.37-.537.739-.977.82-.978.24 0 .788-1.19 1.191-2.589.333-1.152.379-2.047.379-7.43v-6.12l.658-.581c.777-.689 4.36-3.483 4.465-3.483.04 0 .426-.33.858-.734a15.12 15.12 0 011.796-1.381c.556-.356 1.211-.835 1.456-1.066.426-.4.653-.42 4.9-.42h4.452v-22.98l-.45-.312c-.389-.27-1.615-.311-9.292-.311h-8.843v-16.96c0-14.633-.043-17.125-.311-18.153-.327-1.252-.969-2.631-1.388-2.984-.136-.115-.633-.678-1.104-1.25-.88-1.07-2.733-2.14-4.57-2.638C68.754.055 62.769-.008 49.82 0 32.528.013 31.04.04 29.876.37zm37.86.803c1.282.183 3.425 1.01 4.282 1.652.265.2.878.879 1.363 1.512.484.632.984 1.271 1.11 1.42.128.15.4.81.608 1.468.354 1.128.376 2.175.376 18.079v16.88l-16.38.054-16.38.054-.488.561-.487.561v8.254c0 6.815.053 8.433.308 9.281.17.565.42 1.144.555 1.287.137.142.465.574.73.959.703 1.024 1.517 1.606 2.982 2.133l1.301.467h27.859v11.202h-51.31V62.845c0-7.784-.06-16.785-.134-20.003l-.133-5.851H41.17c14.081 0 17.443-.05 18.196-.275.896-.267 2.776-1.444 2.776-1.738 0-.08.265-.425.588-.768 1.296-1.374 1.308-1.478 1.388-12.621.052-7.145.006-10.326-.156-10.867-.42-1.403.625-1.335-20.7-1.335H24.164v-.7c0-.385.091-.7.202-.7.111 0 .203-.203.204-.45.003-.697.876-2.34 1.863-3.508 1.263-1.493 2.828-2.357 5.003-2.76 1.586-.296 34.306-.382 36.298-.096zm7.739 80.704c0 3.124-.061 3.876-.407 4.985-.224.718-.474 1.335-.556 1.371-.081.036-.415.426-.74.866-1.455 1.967-2.554 2.745-4.789 3.388-1.002.288-3.094.317-19.687.267L30.73 92.7l-1.313-.654c-2.008-1.001-2.15-1.105-2.996-2.16-.91-1.139-1.54-2.308-1.742-3.237-.078-.357-.226-.65-.328-.65-.107 0-.186-1.658-.186-3.9v-3.9h51.31v3.679zm-33.018 3.266c-.313.81.206.863 7.86.808l7.28-.053.064-.55.064-.55h-7.567c-6.976 0-7.578.027-7.7.345z" fill="#FFFEFF"/><path fill-rule="evenodd" clip-rule="evenodd" d="M29.876.37c-.692.196-1.622.595-2.066.886-.444.292-.897.53-1.006.53-.241 0-2.203 2.418-2.796 3.447-.546.947-1.055 2.63-1.055 3.49v.664H12.676c-5.652 0-10.57.058-10.93.13-.43.084-.782.339-1.035.75-.367.594-.38 1.158-.332 13.622l.05 13.002 5.523.1c5.218.095 5.541.122 5.858.502.405.485 2.14 1.898 2.331 1.898.202 0 2.146 1.464 2.146 1.616 0 .072.386.388.858.703.473.314 1.375.956 2.005 1.427.63.47 1.244.855 1.364.855.12 0 .217.08.217.176 0 .096.5.557 1.111 1.024l1.111.849v19.942c0 22.157-.069 20.99 1.362 23.206 1.247 1.933 1.996 2.687 3.42 3.444 2.703 1.439 1.748 1.383 22.639 1.322l18.738-.055 1.414-.58c1.87-.766 2.953-1.554 3.771-2.743.37-.537.739-.977.82-.978.24 0 .788-1.19 1.191-2.589.334-1.155.379-2.05.379-7.54v-6.228l-.606-.088-.606-.088v3.931h-51.31V62.845c0-7.784-.06-16.785-.134-20.003l-.133-5.851H41.17c14.081 0 17.443-.05 18.196-.275.896-.267 2.776-1.444 2.776-1.738 0-.08.265-.425.588-.768 1.296-1.374 1.308-1.478 1.388-12.621.052-7.145.006-10.326-.156-10.867-.42-1.403.625-1.335-20.7-1.335H24.164v-.7c0-.385.091-.7.202-.7.111 0 .203-.203.204-.45.005-1.19 2.083-4.179 3.448-4.96 1.396-.8 2.38-1.156 3.78-1.371 1.762-.271 34.07-.3 35.936-.033 1.283.183 3.427 1.01 4.283 1.652.265.2.878.879 1.363 1.512.484.632.976 1.263 1.092 1.4.117.14.368.635.557 1.101.312.77.353 2.473.445 18.251l.101 17.403.556.063.555.063V25.445c0-14.825-.043-17.337-.311-18.366-.327-1.252-.969-2.631-1.388-2.984-.136-.115-.632-.678-1.104-1.25-.88-1.07-2.733-2.14-4.57-2.638C68.754.055 62.769-.008 49.82 0 32.528.013 31.04.04 29.876.37zm13.198 43.2c-.316.344-.34 1.073-.284 8.55.06 8.045.068 8.19.526 9.175.701 1.51 2.193 2.892 3.676 3.41.278.097 7.005.224 14.949.283l14.443.107.055 3.466c.034 2.118.132 3.44.251 3.4.191-.063 4.687-3.532 7.539-5.816l1.436-1.15h9V54.408c0-9.358-.036-10.624-.317-10.902-.285-.282-2.887-.314-25.623-.314-24.542 0-25.317.011-25.651.377zm14.659 8.954c.53.476.486 1.566-.08 1.958-.952.66-2.177.135-2.177-.934 0-.343.15-.788.335-.989.416-.456 1.432-.474 1.922-.035zm14.106.07c.516.51.512 1.01-.015 1.673-.567.714-1.428.708-2.002-.015-1.053-1.325.808-2.856 2.017-1.659zm-15.508.434c-.612.605.183 1.386.885.87.304-.224.336-.354.158-.643-.28-.453-.72-.548-1.044-.227zm14.02.02c-.395.287-.279.846.216 1.034.172.065.438.016.59-.11.375-.308.351-.908-.042-1.057-.406-.155-.352-.164-.763.134zm5.124 28.829c0 3.124-.061 3.876-.407 4.985-.224.718-.474 1.335-.556 1.371-.081.036-.415.426-.74.866-1.455 1.967-2.554 2.745-4.789 3.388-1.002.288-3.094.317-19.687.267L30.73 92.7l-1.313-.654c-2.008-1.001-2.15-1.105-2.996-2.16-.91-1.139-1.54-2.308-1.742-3.237-.078-.357-.226-.65-.328-.65-.107 0-.186-1.658-.186-3.9v-3.9h51.31v3.679zm-33.018 3.266c-.313.81.206.863 7.86.808l7.28-.053.064-.55.064-.55h-7.567c-6.976 0-7.578.027-7.7.345z" fill="#567CF3"/><path fill-rule="evenodd" clip-rule="evenodd" d="M29.876.37c-.692.196-1.622.595-2.066.886-.444.292-.897.53-1.006.53-.241 0-2.203 2.418-2.796 3.447-.546.947-1.055 2.63-1.055 3.49v.664H12.676c-5.652 0-10.57.058-10.93.13-.43.084-.782.339-1.035.75-.367.594-.38 1.158-.332 13.622l.05 13.002 5.523.1c5.218.095 5.541.122 5.858.502.405.485 2.14 1.898 2.331 1.898.202 0 2.146 1.464 2.146 1.616 0 .072.386.388.858.703.473.314 1.375.956 2.005 1.427.63.47 1.244.855 1.364.855.12 0 .217.08.217.176 0 .096.5.557 1.111 1.024l1.111.849v19.942c0 22.157-.069 20.99 1.362 23.206 1.247 1.933 1.996 2.687 3.42 3.444 2.703 1.439 1.748 1.383 22.639 1.322l18.738-.055 1.414-.58c1.87-.766 2.953-1.554 3.771-2.743.37-.537.739-.977.82-.978.24 0 .788-1.19 1.191-2.589.334-1.155.379-2.05.379-7.54v-6.228l-.606-.088-.606-.088v3.931h-51.31V62.845c0-7.784-.06-16.785-.134-20.003l-.133-5.851H41.17c14.081 0 17.443-.05 18.196-.275.896-.267 2.776-1.444 2.776-1.738 0-.08.265-.425.588-.768 1.296-1.374 1.308-1.478 1.388-12.621.052-7.145.006-10.326-.156-10.867-.42-1.403.625-1.335-20.7-1.335H24.164v-.7c0-.385.091-.7.202-.7.111 0 .203-.203.204-.45.005-1.19 2.083-4.179 3.448-4.96 1.396-.8 2.38-1.156 3.78-1.371 1.762-.271 34.07-.3 35.936-.033 1.283.183 3.427 1.01 4.283 1.652.265.2.878.879 1.363 1.512.484.632.976 1.263 1.092 1.4.117.14.368.635.557 1.101.312.77.353 2.473.445 18.251l.101 17.403.556.063.555.063V25.445c0-14.825-.043-17.337-.311-18.366-.327-1.252-.969-2.631-1.388-2.984-.136-.115-.632-.678-1.104-1.25-.88-1.07-2.733-2.14-4.57-2.638C68.754.055 62.769-.008 49.82 0 32.528.013 31.04.04 29.876.37zm26.171 42.972c7.036.03 18.49.03 25.454 0 6.962-.03 1.206-.053-12.793-.053-14 0-19.697.024-12.66.053zm-13.205 8.351c0 4.4.026 6.173.06 3.937.032-2.235.032-5.835 0-8-.034-2.166-.06-.337-.06 4.063zm51.622 2.597v10.497l-4.394.058-4.394.058 4.495.046 4.495.046V54.394c0-5.831-.046-10.602-.101-10.602-.056 0-.101 4.724-.101 10.498zM55.76 52.443c-.384.45-.384.45.035.1.231-.192.694-.35 1.03-.35.724 0 1.21.476 1.331 1.3l.088.6.03-.615c.063-1.28-1.688-2-2.514-1.035zm13.949.041c-.572.567-.613.907-.2 1.695.315.605.676.815 1.402.815.43 0 1.332-.739 1.332-1.09 0-.09-.192.078-.428.374-.555.698-1.48.647-2.05-.114-.841-1.12.31-2.331 1.728-1.818.587.213.612.208.257-.059-.596-.446-1.477-.361-2.041.197zm-13.379.544c-.285.282-.325.695-.081.844.091.056.16-.096.151-.339-.01-.311.103-.44.39-.44.29 0 .399.128.386.457-.011.322.047.394.198.245.151-.15.15-.314-.005-.557-.278-.437-.719-.527-1.038-.21zm-1.016.465c.004.33.049.441.1.247.051-.195.048-.465-.007-.6-.056-.136-.097.023-.093.353zm14.82-.318c-.321.513.572 1.237.981.796.16-.174.15-.197-.043-.09-.344.193-.856-.238-.715-.602.122-.315-.044-.392-.224-.104zm-14.282 1.403c.262.228.684.416.937.416s.675-.188.937-.416l.477-.416-.5.316c-.274.173-.686.316-.914.316-.228 0-.64-.142-.914-.316l-.5-.316.477.416zm-12.294 7.288c0 .527 2.67 2.742 3.278 2.72.142-.005-.164-.226-.678-.492-.514-.265-1.31-.903-1.767-1.418-.459-.516-.833-.88-.833-.81zm3.8 2.866c.146.058.32.05.387-.016s-.052-.114-.265-.105c-.235.01-.283.057-.122.12zm14.785.261l14.241.102.055 3.45c.051 3.17.173 3.858.57 3.22.09-.143.056-.176-.089-.088-.172.106-.233-.707-.233-3.13 0-2.278-.073-3.344-.242-3.512-.185-.183-3.602-.228-14.393-.192l-14.151.048 14.241.102zm22.302.852l-.385.45.455-.38c.427-.359.546-.52.385-.52-.039 0-.243.203-.455.45zm-1.597 1.173c-1.54 1.23-1.775 1.559-.362.504 1.073-.801 1.665-1.346 1.435-1.32-.035.004-.517.371-1.073.816zm-3.737 2.995l-.909.816.96-.74c.84-.65 1.09-.894.909-.892-.028 0-.46.367-.96.816zm-1.534 1.233l-.385.45.455-.38c.427-.359.546-.52.384-.52-.038 0-.242.203-.454.45zm-2.102 10.63c0 3.125-.061 3.877-.407 4.986-.224.718-.474 1.335-.556 1.371-.081.036-.415.426-.74.866-1.455 1.967-2.554 2.745-4.789 3.388-1.002.288-3.094.317-19.687.267L30.73 92.7l-1.313-.654c-2.008-1.001-2.15-1.105-2.996-2.16-.91-1.139-1.54-2.308-1.742-3.237-.078-.357-.226-.65-.328-.65-.107 0-.186-1.658-.186-3.9v-3.9h51.31v3.679zm-33.018 3.267c-.313.81.206.863 7.86.808l7.28-.053.064-.55.064-.55h-7.567c-6.976 0-7.578.027-7.7.345z" fill="#FFC746"/><path fill-rule="evenodd" clip-rule="evenodd" d="M29.876.37c-.692.196-1.622.595-2.066.886-.444.292-.897.53-1.006.53-.241 0-2.203 2.418-2.796 3.447-.546.947-1.055 2.63-1.055 3.49v.664H12.676c-5.652 0-10.57.058-10.93.13-.43.084-.782.339-1.035.75-.367.594-.38 1.158-.332 13.622l.05 13.002 5.523.1c5.218.095 5.541.122 5.858.502.405.485 2.14 1.898 2.331 1.898.202 0 2.146 1.464 2.146 1.616 0 .072.386.388.858.703.473.314 1.375.956 2.005 1.427.63.47 1.244.855 1.364.855.12 0 .217.08.217.176 0 .096.5.557 1.111 1.024l1.111.849v19.942c0 22.157-.069 20.99 1.362 23.206 1.247 1.933 1.996 2.687 3.42 3.444 2.703 1.439 1.748 1.383 22.639 1.322l18.738-.055 1.414-.58c1.87-.766 2.953-1.554 3.771-2.743.37-.537.739-.977.82-.978.24 0 .788-1.19 1.191-2.589.334-1.155.379-2.05.379-7.562v-6.251h-1.212v3.8h-51.31V62.845c0-7.784-.06-16.785-.134-20.003l-.133-5.851H41.17c14.081 0 17.443-.05 18.196-.275.896-.267 2.776-1.444 2.776-1.738 0-.08.265-.425.588-.768 1.296-1.374 1.308-1.478 1.388-12.621.052-7.145.006-10.326-.156-10.867-.42-1.403.625-1.335-20.7-1.335H24.164v-.7c0-.385.091-.7.202-.7.111 0 .203-.203.204-.45.005-1.19 2.083-4.179 3.448-4.96 1.396-.8 2.38-1.156 3.78-1.371 1.762-.271 34.07-.3 35.936-.033 1.283.183 3.427 1.01 4.283 1.652.265.2.878.879 1.363 1.512.484.632.976 1.263 1.092 1.4.117.14.368.635.557 1.101.312.77.353 2.473.445 18.251l.101 17.403h1.01l.052-17.093c.045-14.863.01-17.252-.26-18.303-.325-1.261-.965-2.643-1.39-3.001-.136-.115-.633-.678-1.104-1.25-.88-1.07-2.733-2.14-4.57-2.638C68.754.055 62.769-.008 49.82 0 32.528.013 31.04.04 29.876.37zm32.855 10.496c.172.205.218 2.967.176 10.452L62.85 31.49l-.48 1.049c-.552 1.21-1.694 2.312-3.031 2.924-.926.424-1.087.429-18.61.528l-17.675.1-.101 4.177-.101 4.178-1.01-.764c-1.786-1.35-3.418-2.58-4.04-3.046a357.642 357.642 0 01-5.151-3.92l-.91-.721-5.1-.002-5.1-.002V23.529c0-9.426.058-12.52.242-12.702.186-.184 7.23-.24 30.478-.24 25.616 0 30.272.043 30.47.28zm-49.373 6.867c-.725.176-2.008.826-2.626 1.332-.572.468-.587.516-.262.843.326.33.383.32 1.11-.175 2.008-1.367 3.742-1.29 5.9.262 1.474 1.062 2.398 1.385 3.958 1.386 1.508 0 1.754-.099 4.646-1.876 1.132-.696 1.3-.74 2.548-.676 1.087.056 1.493.18 2.19.664 2.159 1.504 3.066 1.884 4.51 1.89 1.599.007 2.25-.23 4.097-1.48 1.59-1.079 1.957-1.193 3.434-1.072.9.074 1.36.263 2.474 1.017 1.854 1.255 2.626 1.54 4.156 1.54 1.076 0 1.523-.113 2.58-.655.752-.385 1.308-.808 1.35-1.026.13-.67-.4-.706-1.48-.102-2.019 1.128-3.46.997-5.76-.523-.721-.478-1.805-1.025-2.407-1.215-1.43-.454-2.8-.19-4.478.863-1.94 1.217-2.617 1.518-3.633 1.615-1.064.1-2.096-.306-4.386-1.731-2.231-1.389-3.822-1.303-6.374.343-2.908 1.876-4.08 1.89-6.862.08-1.89-1.23-3.336-1.632-4.685-1.304zm14.109 8.265c-1.023.2-2.136.749-3.164 1.56-1.021.807-1.975 1.096-3.263.99-1.044-.085-1.398-.253-3.828-1.818-.863-.556-1.205-.65-2.58-.712-1.385-.062-1.722-.005-2.66.45-1.19.576-1.855 1.184-1.652 1.51.192.307 1.028.26 1.309-.074.314-.375 1.934-.915 2.745-.915.963 0 1.86.365 3.474 1.412 1.619 1.05 3.108 1.503 4.252 1.294 1.008-.183 2.255-.75 2.873-1.306.278-.25.991-.677 1.585-.95 1.336-.614 2.538-.55 4.127.22.602.292 1.246.53 1.43.53.56 0 .368-.674-.326-1.14-1.42-.954-2.933-1.322-4.322-1.05zm28.681 17.344c6.98.03 18.344.03 25.252 0 6.907-.03 1.196-.053-12.692-.053s-19.54.024-12.56.053zM94.512 54.24l-.048 10.547-4.394.058-4.394.058 4.4.046c3.369.035 4.423-.012 4.497-.204.053-.137.072-4.93.042-10.651l-.054-10.402-.049 10.548zm-51.67-2.547c0 4.29.026 6.018.06 3.838.032-2.18.032-5.691-.001-7.801-.033-2.111-.06-.327-.06 3.963zm13.165.459c-.054.087.218.121.604.076.88-.101 1.48.39 1.522 1.246l.03.62.086-.571c.119-.788-.6-1.53-1.483-1.53-.363 0-.704.072-.759.158zm14.829.026c.392.076.847.207 1.01.292.162.084.12.011-.096-.162-.216-.173-.67-.304-1.01-.292-.615.023-.614.024.096.162zm-1.309.46c-.173.244-.306.627-.297.85.013.303.06.264.188-.157.094-.31.28-.692.411-.85.133-.159.19-.288.127-.288s-.256.2-.429.445zm-13.197.39c-.285.282-.325.695-.081.844.091.056.16-.096.151-.339-.01-.311.103-.44.39-.44.29 0 .399.128.386.457-.011.322.047.394.198.245.151-.15.15-.314-.005-.557-.278-.437-.719-.527-1.038-.21zm-1.016.465c.004.33.049.441.1.247.051-.195.048-.465-.007-.6-.056-.136-.097.023-.093.353zm14.841-.214c-.06.157.043.4.231.54.282.21.3.209.105-.01-.13-.145-.189-.388-.13-.54.059-.151.062-.276.006-.276s-.15.129-.212.286zm-14.303 1.299c.262.228.684.416.937.416s.675-.188.937-.416l.477-.416-.5.316c-.274.173-.686.316-.914.316-.228 0-.64-.142-.914-.316l-.5-.316.477.416zm14.056.122c.532.399 1.419.37 1.745-.056.227-.298.225-.313-.016-.1-.338.299-1.34.332-1.515.05a.462.462 0 00-.366-.194c-.132.004-.064.139.152.3zm-25.34 8.395c.377.385.73.7.786.7.056 0-.207-.315-.584-.7-.377-.385-.73-.7-.786-.7-.056 0 .207.315.584.7zm1.01.798c0 .137 1.237.744 1.33.653.043-.044-.238-.229-.626-.412-.387-.183-.704-.291-.704-.24zm1.78.839c.146.058.32.05.387-.016s-.052-.114-.265-.105c-.235.01-.283.057-.122.12zm14.886.261l14.14.102.055 3.45c.051 3.17.173 3.858.57 3.22.09-.143.056-.176-.089-.088-.172.106-.233-.707-.233-3.13 0-2.278-.073-3.344-.242-3.512-.185-.183-3.58-.228-14.292-.192l-14.05.048 14.14.102zm22.296.752c-.252.318-.245.325.076.076.336-.261.443-.426.277-.426-.042 0-.201.158-.353.35zm-1.692 1.273c-1.537 1.23-1.784 1.57-.34.47 1.115-.85 1.62-1.31 1.413-1.285-.035.003-.517.37-1.073.815zm-3.737 2.995l-.909.816.96-.74c.84-.65 1.09-.894.909-.892-.028 0-.46.367-.96.816zm-1.534 1.233l-.385.45.455-.38c.427-.359.546-.52.384-.52-.038 0-.242.203-.454.45zm-2.102 10.63c0 3.125-.061 3.877-.407 4.986-.224.718-.474 1.335-.556 1.371-.081.036-.415.426-.74.866-1.455 1.967-2.554 2.745-4.789 3.388-1.002.288-3.094.317-19.687.267L30.73 92.7l-1.313-.654c-2.008-1.001-2.15-1.105-2.996-2.16-.91-1.139-1.54-2.308-1.742-3.237-.078-.357-.226-.65-.328-.65-.107 0-.186-1.658-.186-3.9v-3.9h51.31v3.679zm-33.018 3.267c-.313.81.206.863 7.86.808l7.28-.053.064-.55.064-.55h-7.567c-6.976 0-7.578.027-7.7.345z" fill="#78A79F"/><path fill-rule="evenodd" clip-rule="evenodd" d="M29.876.37c-.692.196-1.622.595-2.066.886-.444.292-.897.53-1.006.53-.241 0-2.203 2.418-2.796 3.447-.546.947-1.055 2.63-1.055 3.49v.664H12.676c-5.652 0-10.57.058-10.93.13-.43.084-.782.339-1.035.75-.367.594-.38 1.158-.332 13.622l.05 13.002 5.468.1 5.468.1 1.283 1.15c.706.633 1.361 1.15 1.456 1.15.228 0 2.183 1.448 2.183 1.616 0 .072.386.388.858.703.473.314 1.375.956 2.005 1.427.63.47 1.244.855 1.364.855.12 0 .217.08.217.176 0 .096.5.557 1.111 1.024l1.111.849v19.942c0 21.764-.039 20.993 1.153 22.896 1.23 1.966 2.15 2.94 3.456 3.663C30.31 94.063 29.333 94 49.824 94c19.819 0 19.248.029 21.653-1.1a7.338 7.338 0 002.988-2.556c.278-.409.57-.743.651-.744.24-.002.789-1.193 1.192-2.59.334-1.153.379-2.047.379-7.44v-6.128l-.606-.088-.606-.088v3.731h-51.31V62.845c0-7.784-.06-16.785-.134-20.003l-.133-5.851H41.17c14.081 0 17.443-.05 18.196-.275.896-.267 2.776-1.444 2.776-1.738 0-.08.265-.425.588-.768 1.296-1.374 1.308-1.478 1.388-12.621.052-7.145.006-10.326-.156-10.867-.42-1.403.625-1.335-20.7-1.335H24.164v-.7c0-.385.091-.7.202-.7.111 0 .203-.203.204-.45.005-1.19 2.083-4.179 3.448-4.96 1.396-.8 2.38-1.156 3.78-1.371 1.762-.271 34.07-.3 35.936-.033 1.283.183 3.427 1.01 4.283 1.652.265.2.878.879 1.363 1.512.484.632.976 1.263 1.092 1.4.117.14.368.635.557 1.101.312.77.353 2.467.445 18.151l.101 17.303h1.01l.052-16.993c.045-14.773.01-17.152-.26-18.203-.325-1.261-.965-2.643-1.39-3.001-.136-.115-.633-.678-1.104-1.25-.88-1.07-2.733-2.14-4.57-2.638C68.754.055 62.769-.008 49.82 0 32.528.013 31.04.04 29.876.37zm32.98 10.5c.284.428.313 1.638.258 10.552L63.05 31.49l-.561 1.133c-.647 1.304-1.81 2.427-3.151 3.04-.928.425-1.04.428-18.559.483l-17.625.056v4.216c0 3.639-.041 4.201-.299 4.104-.164-.063-2.177-1.535-4.473-3.272a1002.832 1002.832 0 00-5.46-4.109l-1.285-.95H1.54V23.529c0-9.581.06-12.72.243-12.902.186-.185 7.235-.24 30.498-.24h30.256l.32.483zm-49.811 7.19c-1.263.338-2.414 1.074-2.414 1.545 0 .492.074.484.957-.11.404-.272 1.21-.6 1.79-.729 1.448-.32 2.573-.012 4.472 1.229 2.887 1.884 4.323 1.857 7.29-.137 2.507-1.685 4.043-1.682 6.543.014.709.48 1.72 1.018 2.245 1.195 1.776.597 2.848.358 5.102-1.133 2.48-1.643 4.306-1.716 6.36-.255 2.255 1.605 3.721 1.984 5.481 1.418 1.21-.39 2.383-1.186 2.383-1.619 0-.424-.277-.36-1.342.308-1.902 1.195-3.35 1.07-5.725-.496-2.843-1.873-4.637-1.89-7.387-.069-1.607 1.064-2.397 1.37-3.523 1.363-.801-.005-2.11-.542-3.083-1.264-1.283-.952-2.399-1.378-3.674-1.403-1.438-.029-2.12.22-4.12 1.507-2.46 1.583-3.727 1.557-6.287-.13-1.013-.668-2.014-1.155-2.647-1.29-1.213-.258-1.249-.257-2.421.057zm.392 8.112c-1.171.233-2.697 1.11-2.77 1.593-.084.555.184.536 1.093-.075 1.671-1.123 3.374-1.122 5.155.003 2.088 1.318 3.21 1.763 4.44 1.763 1.378 0 2.041-.249 3.98-1.497 2.226-1.431 3.812-1.496 5.771-.236.543.35.845.438.992.293.308-.305-.146-.764-1.355-1.371-.786-.395-1.327-.514-2.336-.514-1.419 0-2.248.32-4.097 1.579-2.16 1.47-3.838 1.41-6.236-.223-1.79-1.219-3.164-1.608-4.637-1.315zm62.038 55.705c0 3.124-.061 3.876-.407 4.985-.224.718-.474 1.335-.556 1.371-.081.036-.415.426-.74.866-1.455 1.967-2.554 2.745-4.789 3.388-1.002.288-3.094.317-19.687.267L30.73 92.7l-1.313-.654c-2.008-1.001-2.15-1.105-2.996-2.16-.91-1.139-1.54-2.308-1.742-3.237-.078-.357-.226-.65-.328-.65-.107 0-.186-1.658-.186-3.9v-3.9h51.31v3.679zm-33.018 3.266c-.313.81.206.863 7.86.808l7.28-.053.064-.55.064-.55h-7.567c-6.976 0-7.578.027-7.7.345z" fill="#2A2A2A"/></svg>