<svg width="105" height="94" viewBox="0 0 105 94" fill="none" xmlns="http://www.w3.org/2000/svg">
<path fill-rule="evenodd" clip-rule="evenodd" d="M4.899 0.395906C3.24314 0.851854 2.19871 1.69663 1.04128 3.51674L0.141846 4.93131V41.8096C0.141846 75.8071 0.179228 78.7663 0.619033 79.6889C0.881557 80.2394 1.20015 80.6897 1.32703 80.6897C1.4539 80.6897 1.55783 80.8596 1.55783 81.0672C1.55783 81.6937 3.72712 83.2354 5.45604 83.8375C6.6888 84.2668 7.4557 84.36 8.63777 84.2235C9.49444 84.1249 14.0584 83.9847 18.7802 83.9125L27.365 83.7811L27.2761 83.1558C27.1878 82.535 27.1374 82.5294 20.2489 82.3813C16.4328 82.2991 13.5017 82.1989 13.7353 82.1587C14.2774 82.0647 15.7217 79.7991 15.9921 78.6187C16.106 78.1223 16.4886 76.7604 16.8423 75.5922C17.746 72.6076 18.9209 68.5573 20.9492 61.4323C21.3703 59.9526 22.0174 57.7224 22.3867 56.4763C22.7563 55.2303 23.3691 53.1275 23.7489 51.8036C24.1287 50.4796 24.771 48.2495 25.1759 46.8476C25.5812 45.4458 26.0402 43.7891 26.1963 43.1661C26.6698 41.2749 27.6658 39.8461 29.1506 38.928L30.5411 38.0685L62.5263 37.994L94.5117 37.9198L95.8221 38.5604C97.3643 39.3146 98.3768 40.4089 99.0128 42.0092C99.5206 43.287 100.677 43.8341 100.677 42.7965C100.677 41.6558 99.7803 39.7736 98.7605 38.774C96.9294 36.9788 95.3386 36.5109 91.0666 36.5109H87.3666V27.2934V18.0759L86.3845 16.5404C85.6074 15.3258 85.0472 14.8259 83.7021 14.1471L82.002 13.2887H58.2055H34.4087V9.31266C34.4087 4.78858 34.1193 3.85941 32.1066 1.92574C30.1741 0.069096 29.4397 -0.0249255 17.0901 0.00367745C9.14526 0.0223685 5.87319 0.127435 4.899 0.395906ZM28.8535 1.7241C29.4947 1.90563 30.493 2.50091 31.0718 3.04692C32.8282 4.70362 32.9927 5.32326 32.9927 10.2784V14.6869L57.5601 14.7665L82.1275 14.8463L83.1493 15.5543C84.7343 16.6526 85.5647 17.8264 85.9136 19.4622C86.1075 20.371 86.2338 24.0273 86.2338 28.7329V36.5027L58.2681 36.5778L30.3024 36.6525L28.9679 37.292C28.2339 37.6437 27.3118 38.2529 26.919 38.6457C26.1136 39.4511 24.827 42.0953 24.5957 43.4209C24.5115 43.9038 24.1468 45.2547 23.7854 46.4228C22.914 49.2404 20.9486 55.9827 19.2455 61.9987C18.8264 63.4784 18.1866 65.7086 17.8236 66.9547C17.4608 68.2007 16.8343 70.3672 16.4316 71.769C14.4328 78.7286 14.0148 79.7713 12.7606 80.9276C9.49274 83.9397 4.94346 83.3608 2.45727 79.6164L1.41623 78.0483V41.7747V5.50082L2.34739 4.15988C4.18194 1.51765 4.49544 1.4596 17.1008 1.4242C24.3841 1.40381 28.0515 1.49726 28.8535 1.7241ZM8.32625 7.83493C6.48065 9.74907 5.2394 11.2557 5.2394 11.5825C5.2394 11.7102 6.01479 12.6244 6.96237 13.6139C7.91023 14.6034 8.80684 15.6359 8.95466 15.9083C9.10278 16.1808 9.53833 16.4039 9.92207 16.4039C11.1554 16.4039 10.7881 15.3037 8.92889 13.4303C8.00142 12.4958 7.23792 11.6185 7.23226 11.4805C7.22659 11.3426 7.50838 10.9473 7.85897 10.6021C9.60602 8.88078 10.6408 7.48802 10.5629 6.96325C10.4162 5.97461 9.94246 6.15897 8.32625 7.83493ZM18.5851 6.98761C18.4183 7.4158 17.5743 9.04079 16.7092 10.5984C13.8517 15.7446 13.6438 16.4039 14.8783 16.4039C15.2213 16.4039 15.6191 16.0131 15.959 15.3419C17.8405 11.6258 19.7677 8.01023 19.9892 7.78056C20.3984 7.35661 20.2925 6.56932 19.8008 6.38072C19.0591 6.0961 18.9017 6.17483 18.5851 6.98761ZM23.5529 6.39771C23.1771 6.77323 23.3816 7.2895 24.3045 8.29711C24.8219 8.86181 25.3255 9.32399 25.4237 9.32399C25.522 9.32399 26.0677 9.80202 26.6364 10.386L27.6703 11.448L25.5172 13.4621C23.2689 15.5654 22.8514 16.4039 24.0528 16.4039C24.5033 16.4039 25.311 15.8571 26.3891 14.822C27.2954 13.952 28.3962 12.9331 28.8354 12.5581C29.2936 12.1667 29.5955 11.6561 29.5434 11.3605C29.4451 10.8011 24.5503 6.21391 24.0485 6.2108C23.8797 6.20966 23.6566 6.29377 23.5529 6.39771ZM14.3841 22.4219C14.0808 22.8192 12.8761 29.9393 12.882 31.3001C12.884 31.7832 12.5683 34.0134 12.18 36.2561C11.792 38.499 11.4734 40.8181 11.472 41.4094C11.4709 42.0007 11.2132 43.9182 10.8994 45.6701C10.5859 47.4222 10.2146 49.9968 10.0747 51.3915C9.93481 52.7863 9.5474 55.7754 9.21351 58.0339C8.87962 60.2924 8.29057 64.4342 7.90457 67.2378C7.51857 70.0415 7.01448 73.6735 6.78452 75.309C6.23739 79.2001 6.24163 79.2737 7.00938 79.2737C7.54802 79.2737 7.72559 78.9996 8.15633 77.5038C8.4367 76.5304 8.97307 74.7143 9.34859 73.4682C9.72411 72.2221 10.3636 70.0557 10.7697 68.6538C11.651 65.6129 12.5365 62.6299 13.7546 58.6003C15.4642 52.9446 15.9346 51.3675 16.7114 48.6884C17.1405 47.2087 17.7933 45.0731 18.1623 43.9423C18.531 42.8118 18.8329 41.6849 18.8329 41.4383C18.8329 41.1913 19.1353 40.0775 19.5049 38.9626C19.8742 37.8479 20.5434 35.7579 20.9917 34.3187L21.8064 31.7014L50.6926 31.6283C77.8308 31.5595 79.5787 31.5255 79.5787 31.0662C79.5787 30.7974 77.6787 28.663 75.3565 26.3226L71.134 22.0679H42.8942C20.6351 22.0679 14.5971 22.1429 14.3841 22.4219ZM36.5874 52.285C36.3059 52.3581 35.9556 52.7339 35.8086 53.1202C35.6537 53.5277 35.5415 60.001 35.5415 68.5306V83.2385H44.3206H53.0998V88.6192V94H54.2365C55.3948 94 55.5106 93.9609 57.4893 92.9029C58.1123 92.5699 62.5727 90.291 67.4012 87.8388L76.1803 83.3801L87.0834 83.2385L97.9865 83.0969L99.4025 82.3476C101.295 81.3456 102.637 79.9775 103.58 78.088L104.358 76.5267L104.354 64.9439C104.352 58.5734 104.256 53.221 104.142 53.0497C103.508 52.1009 102.975 52.0865 69.8979 52.1196C51.8585 52.1378 36.8689 52.2122 36.5874 52.285Z" fill="#567CF3"/>
<path fill-rule="evenodd" clip-rule="evenodd" d="M4.89899 0.395906C3.24314 0.851854 2.19871 1.69663 1.04128 3.51674L0.141846 4.93131V41.8096C0.141846 75.8071 0.179228 78.7663 0.619033 79.6889C0.881557 80.2394 1.20015 80.6897 1.32703 80.6897C1.4539 80.6897 1.55783 80.8596 1.55783 81.0672C1.55783 81.6937 3.72712 83.2354 5.45604 83.8375C6.6888 84.2668 7.4557 84.36 8.63777 84.2235C9.49444 84.1249 14.0584 83.9847 18.7802 83.9125L27.365 83.7811L27.2761 83.1558C27.1878 82.535 27.1374 82.5294 20.2489 82.3813C16.4328 82.2991 13.5017 82.1989 13.7353 82.1587C14.2774 82.0646 15.7217 79.7991 15.9921 78.6187C16.106 78.1223 16.4886 76.7604 16.8423 75.5922C17.746 72.6076 18.9209 68.5573 20.9492 61.4323C21.3703 59.9526 22.0174 57.7224 22.3867 56.4763C22.7563 55.2303 23.3691 53.1275 23.7489 51.8036C24.1287 50.4796 24.771 48.2495 25.1759 46.8476C25.5812 45.4458 26.0402 43.7891 26.1963 43.1661C26.6698 41.2749 27.6658 39.8461 29.1506 38.928L30.5411 38.0685L62.5263 37.994L94.5117 37.9198L95.8221 38.5604C97.3643 39.3146 98.3768 40.4089 99.0128 42.0092C99.5206 43.287 100.677 43.8341 100.677 42.7965C100.677 41.6558 99.7803 39.7737 98.7605 38.774C96.9294 36.9788 95.3386 36.5109 91.0666 36.5109H87.3666V27.2934V18.0759L86.3845 16.5404C85.6074 15.3258 85.0472 14.8259 83.7021 14.1471L82.002 13.2887H58.2055H34.4087V9.31266C34.4087 4.78858 34.1193 3.85941 32.1066 1.92574C30.1741 0.069096 29.4397 -0.0249255 17.0901 0.00367745C9.14526 0.0223685 5.87319 0.127435 4.89899 0.395906ZM28.8535 1.7241C29.4947 1.90563 30.493 2.50091 31.0718 3.04692C32.8282 4.70362 32.9927 5.32326 32.9927 10.2784V14.6869L57.5601 14.7665L82.1275 14.8463L83.1493 15.5543C84.7343 16.6526 85.5646 17.8264 85.9135 19.4622C86.1075 20.371 86.2338 24.0273 86.2338 28.7329V36.5027L58.2681 36.5778L30.3024 36.6525L28.9679 37.292C28.2339 37.6437 27.3118 38.2529 26.919 38.6457C26.1136 39.4511 24.827 42.0953 24.5957 43.4209C24.5115 43.9038 24.1468 45.2547 23.7854 46.4228C22.914 49.2404 20.9486 55.9827 19.2455 61.9987C18.8264 63.4784 18.1866 65.7086 17.8236 66.9547C17.4608 68.2007 16.8343 70.3672 16.4316 71.769C14.4328 78.7286 14.0148 79.7713 12.7606 80.9276C9.49274 83.9397 4.94346 83.3608 2.45727 79.6164L1.41623 78.0483V41.7747V5.50082L2.34739 4.15988C4.18194 1.51765 4.49544 1.4596 17.1008 1.4242C24.3841 1.40381 28.0515 1.49726 28.8535 1.7241ZM8.32625 7.83493C6.48065 9.74907 5.2394 11.2557 5.2394 11.5825C5.2394 11.7102 6.01479 12.6244 6.96237 13.6139C7.91023 14.6034 8.80683 15.6359 8.95466 15.9083C9.10278 16.1808 9.53833 16.4039 9.92207 16.4039C11.1554 16.4039 10.7881 15.3037 8.92889 13.4303C8.00142 12.4958 7.23792 11.6185 7.23226 11.4805C7.22659 11.3426 7.50838 10.9473 7.85897 10.6021C9.60602 8.88078 10.6408 7.48802 10.5629 6.96325C10.4162 5.97461 9.94246 6.15897 8.32625 7.83493ZM18.5851 6.98761C18.4183 7.4158 17.5743 9.04079 16.7092 10.5984C13.8517 15.7446 13.6438 16.4039 14.8783 16.4039C15.2213 16.4039 15.6191 16.0131 15.959 15.3419C17.8405 11.6258 19.7677 8.01023 19.9892 7.78056C20.3984 7.35661 20.2925 6.56933 19.8008 6.38072C19.0591 6.0961 18.9017 6.17483 18.5851 6.98761ZM23.5529 6.39771C23.1771 6.77323 23.3816 7.2895 24.3045 8.29711C24.8219 8.86181 25.3255 9.32399 25.4237 9.32399C25.522 9.32399 26.0677 9.80202 26.6364 10.386L27.6703 11.448L25.5172 13.4621C23.2689 15.5654 22.8514 16.4039 24.0528 16.4039C24.5033 16.4039 25.311 15.8571 26.3891 14.822C27.2954 13.952 28.3962 12.9331 28.8354 12.5581C29.2936 12.1667 29.5955 11.6561 29.5434 11.3605C29.4451 10.8011 24.5503 6.21391 24.0485 6.2108C23.8797 6.20966 23.6566 6.29377 23.5529 6.39771ZM14.3841 22.4219C14.0808 22.8192 12.8761 29.9393 12.882 31.3001C12.884 31.7832 12.5683 34.0134 12.18 36.2561C11.792 38.499 11.4734 40.8181 11.472 41.4094C11.4709 42.0007 11.2132 43.9182 10.8994 45.6701C10.5859 47.4222 10.2146 49.9968 10.0747 51.3915C9.93481 52.7863 9.5474 55.7754 9.21351 58.0339C8.87962 60.2924 8.29057 64.4342 7.90457 67.2378C7.51857 70.0415 7.01448 73.6735 6.78452 75.309C6.23739 79.2001 6.24163 79.2737 7.00938 79.2737C7.54802 79.2737 7.72559 78.9996 8.15633 77.5038C8.4367 76.5304 8.97307 74.7143 9.34859 73.4682C9.72411 72.2221 10.3636 70.0557 10.7697 68.6538C11.651 65.6129 12.5365 62.6299 13.7546 58.6003C15.4642 52.9446 15.9346 51.3675 16.7114 48.6884C17.1405 47.2087 17.7933 45.0731 18.1623 43.9423C18.531 42.8118 18.8329 41.685 18.8329 41.4383C18.8329 41.1913 19.1353 40.0775 19.5049 38.9626C19.8742 37.8479 20.5434 35.7579 20.9917 34.3187L21.8064 31.7014L50.6926 31.6283C77.8308 31.5595 79.5787 31.5255 79.5787 31.0662C79.5787 30.7974 77.6787 28.663 75.3565 26.3226L71.134 22.0679H42.8942C20.6351 22.0679 14.5971 22.1429 14.3841 22.4219ZM74.1272 26.8324C75.9572 28.6726 77.4547 30.265 77.4547 30.3709C77.4547 30.4771 64.7213 30.5638 49.1582 30.5638H20.8614L20.2896 32.3338C19.975 33.3074 18.9345 36.78 17.9776 40.0509C15.6245 48.0943 14.9123 50.5099 14.3031 52.5116C13.4119 55.4407 12.103 59.8504 11.9489 60.4411C11.3887 62.5917 8.89661 70.6105 8.74538 70.7486C8.64286 70.8427 8.65278 70.3459 8.76775 69.645C8.88245 68.9441 9.07842 67.5423 9.20303 66.5299C9.32763 65.5174 9.70061 62.7775 10.0319 60.4411C10.363 58.1047 11.0115 53.4532 11.4729 50.1044C11.9342 46.7556 12.4437 43.1236 12.6045 42.0333C12.7657 40.943 13.2185 37.6933 13.611 34.8118C14.0032 31.9302 14.5104 28.2818 14.7378 26.7044C14.9652 25.1267 15.1513 23.7569 15.1513 23.66C15.1513 23.5632 27.6723 23.4844 42.9754 23.485L70.7996 23.4864L74.1272 26.8324ZM36.5874 52.285C36.3059 52.3581 35.9555 52.7339 35.8086 53.1202C35.6537 53.5277 35.5415 60.001 35.5415 68.5306V83.2385H44.3206H53.0998V88.6192V94H54.2365C55.3948 94 55.5106 93.9609 57.4893 92.9029C58.1123 92.5699 62.5727 90.291 67.4012 87.8388L76.1803 83.3801L87.0834 83.2385L97.9865 83.0969L99.4025 82.3476C101.295 81.3456 102.637 79.9775 103.58 78.088L104.358 76.5267L104.354 64.9439C104.352 58.5734 104.256 53.221 104.142 53.0497C103.508 52.1009 102.975 52.0865 69.8979 52.1196C51.8585 52.1378 36.8689 52.2122 36.5874 52.285Z" fill="#FFC746"/>
<path fill-rule="evenodd" clip-rule="evenodd" d="M4.899 0.395906C3.24314 0.851854 2.19871 1.69663 1.04128 3.51674L0.141846 4.93131V41.8096C0.141846 75.8071 0.179228 78.7663 0.619033 79.6889C0.881557 80.2394 1.20015 80.6897 1.32703 80.6897C1.4539 80.6897 1.55783 80.8596 1.55783 81.0672C1.55783 81.6937 3.72712 83.2354 5.45604 83.8375C6.6888 84.2668 7.4557 84.36 8.63777 84.2235C9.49444 84.1249 14.0584 83.9847 18.7802 83.9125L27.365 83.7811L27.2761 83.1558C27.1878 82.535 27.1374 82.5294 20.2489 82.3813C16.4328 82.2991 13.5017 82.1989 13.7353 82.1587C14.2774 82.0647 15.7217 79.7991 15.9921 78.6187C16.106 78.1223 16.4886 76.7604 16.8423 75.5922C17.746 72.6076 18.9209 68.5573 20.9492 61.4323C21.3703 59.9526 22.0174 57.7224 22.3867 56.4763C22.7563 55.2303 23.3691 53.1275 23.7489 51.8036C24.1287 50.4796 24.771 48.2495 25.1759 46.8476C25.5812 45.4458 26.0402 43.7891 26.1963 43.1661C26.6698 41.2749 27.6658 39.8461 29.1506 38.928L30.5411 38.0685L62.5263 37.994L94.5117 37.9198L95.8221 38.5604C97.3643 39.3146 98.3768 40.4089 99.0128 42.0092C99.5206 43.287 100.677 43.8341 100.677 42.7965C100.677 41.6558 99.7803 39.7736 98.7605 38.774C96.9294 36.9788 95.3386 36.5109 91.0666 36.5109H87.3666V27.2934V18.0759L86.3845 16.5404C85.6074 15.3258 85.0472 14.8259 83.7021 14.1471L82.002 13.2887H58.2055H34.4087V9.31266C34.4087 4.78858 34.1193 3.85941 32.1066 1.92574C30.1741 0.069096 29.4397 -0.0249255 17.0901 0.00367745C9.14526 0.0223685 5.87319 0.127435 4.899 0.395906ZM28.8535 1.7241C29.4947 1.90563 30.493 2.50091 31.0718 3.04692C32.8282 4.70362 32.9927 5.32326 32.9927 10.2784V14.6869L57.5601 14.7665L82.1275 14.8463L83.1493 15.5543C84.7343 16.6526 85.5647 17.8264 85.9136 19.4622C86.1075 20.371 86.2338 24.0273 86.2338 28.7329V36.5027L58.2681 36.5778L30.3024 36.6525L28.9679 37.292C28.2339 37.6437 27.3118 38.2529 26.919 38.6457C26.1136 39.4511 24.827 42.0953 24.5957 43.4209C24.5115 43.9038 24.1468 45.2547 23.7854 46.4228C22.914 49.2404 20.9486 55.9827 19.2455 61.9987C18.8264 63.4784 18.1866 65.7086 17.8236 66.9547C17.4608 68.2007 16.8343 70.3672 16.4316 71.769C14.4328 78.7286 14.0148 79.7713 12.7606 80.9276C9.49274 83.9397 4.94346 83.3608 2.45727 79.6164L1.41623 78.0483V41.7747V5.50082L2.34739 4.15988C4.18194 1.51765 4.49544 1.4596 17.1008 1.4242C24.3841 1.40381 28.0515 1.49726 28.8535 1.7241ZM8.32625 7.83493C6.48065 9.74907 5.2394 11.2557 5.2394 11.5825C5.2394 11.7102 6.01479 12.6244 6.96237 13.6139C7.91023 14.6034 8.80684 15.6359 8.95466 15.9083C9.10278 16.1808 9.53833 16.4039 9.92207 16.4039C11.1554 16.4039 10.7881 15.3037 8.92889 13.4303C8.00142 12.4958 7.23792 11.6185 7.23226 11.4805C7.22659 11.3426 7.50838 10.9473 7.85897 10.6021C9.60602 8.88078 10.6408 7.48802 10.5629 6.96325C10.4162 5.97461 9.94246 6.15897 8.32625 7.83493ZM18.5851 6.98761C18.4183 7.4158 17.5743 9.04079 16.7092 10.5984C13.8517 15.7446 13.6438 16.4039 14.8783 16.4039C15.2213 16.4039 15.6191 16.0131 15.959 15.3419C17.8405 11.6258 19.7677 8.01023 19.9892 7.78056C20.3984 7.35661 20.2925 6.56932 19.8008 6.38072C19.0591 6.0961 18.9017 6.17483 18.5851 6.98761ZM23.5529 6.39771C23.1771 6.77323 23.3816 7.2895 24.3045 8.29711C24.8219 8.86181 25.3255 9.32399 25.4237 9.32399C25.522 9.32399 26.0677 9.80202 26.6364 10.386L27.6703 11.448L25.5172 13.4621C23.2689 15.5654 22.8514 16.4039 24.0528 16.4039C24.5033 16.4039 25.311 15.8571 26.3891 14.822C27.2954 13.952 28.3962 12.9331 28.8354 12.5581C29.2936 12.1667 29.5955 11.6561 29.5434 11.3605C29.4451 10.8011 24.5503 6.21391 24.0485 6.2108C23.8797 6.20966 23.6566 6.29377 23.5529 6.39771ZM14.3841 22.4219C14.0808 22.8192 12.8761 29.9393 12.882 31.3001C12.884 31.7832 12.5683 34.0134 12.18 36.2561C11.792 38.499 11.4734 40.8181 11.472 41.4094C11.4709 42.0007 11.2132 43.9182 10.8994 45.6701C10.5859 47.4222 10.2146 49.9968 10.0747 51.3915C9.93481 52.7863 9.5474 55.7754 9.21351 58.0339C8.87962 60.2924 8.29057 64.4342 7.90457 67.2378C7.51857 70.0415 7.01448 73.6735 6.78452 75.309C6.23739 79.2001 6.24163 79.2737 7.00938 79.2737C7.54802 79.2737 7.72559 78.9996 8.15633 77.5038C8.4367 76.5304 8.97307 74.7143 9.34859 73.4682C9.72411 72.2221 10.3636 70.0557 10.7697 68.6538C11.651 65.6129 12.5365 62.6299 13.7546 58.6003C15.4642 52.9446 15.9346 51.3675 16.7114 48.6884C17.1405 47.2087 17.7933 45.0731 18.1623 43.9423C18.531 42.8118 18.8329 41.6849 18.8329 41.4383C18.8329 41.1913 19.1353 40.0775 19.5049 38.9626C19.8742 37.8479 20.5434 35.7579 20.9917 34.3187L21.8064 31.7014L50.6926 31.6283C77.8308 31.5595 79.5787 31.5255 79.5787 31.0662C79.5787 30.7974 77.6787 28.663 75.3565 26.3226L71.134 22.0679H42.8942C20.6351 22.0679 14.5971 22.1429 14.3841 22.4219ZM74.1272 26.8324C75.9572 28.6726 77.4547 30.265 77.4547 30.3709C77.4547 30.4771 64.7213 30.5638 49.1582 30.5638H20.8614L20.2896 32.3338C19.975 33.3074 18.9345 36.78 17.9776 40.0509C15.6245 48.0943 14.9123 50.5099 14.3031 52.5116C13.4119 55.4407 12.103 59.8504 11.9489 60.4411C11.3887 62.5917 8.89661 70.6104 8.74538 70.7486C8.64286 70.8427 8.65278 70.3459 8.76775 69.645C8.88245 68.9441 9.07842 67.5423 9.20303 66.5299C9.32764 65.5174 9.70061 62.7775 10.0319 60.4411C10.363 58.1047 11.0115 53.4532 11.4729 50.1044C11.9342 46.7556 12.4437 43.1236 12.6045 42.0333C12.7657 40.943 13.2185 37.6933 13.611 34.8118C14.0032 31.9302 14.5104 28.2818 14.7378 26.7044C14.9652 25.1267 15.1513 23.7569 15.1513 23.66C15.1513 23.5632 27.6723 23.4844 42.9754 23.485L70.7996 23.4864L74.1272 26.8324ZM36.5874 52.285C36.3059 52.3581 35.9556 52.7339 35.8086 53.1202C35.6537 53.5277 35.5415 60.001 35.5415 68.5306V83.2385H44.3206H53.0998V88.6192V94H54.2365C55.3948 94 55.5106 93.9609 57.4893 92.9029C58.1123 92.5699 62.5727 90.291 67.4012 87.8388L76.1803 83.3801L87.0834 83.2385L97.9865 83.0969L99.4025 82.3476C101.295 81.3456 102.637 79.9775 103.58 78.088L104.358 76.5267L104.354 64.9439C104.352 58.5734 104.256 53.221 104.142 53.0497C103.508 52.1009 102.975 52.0865 69.8979 52.1196C51.8585 52.1378 36.8689 52.2122 36.5874 52.285ZM103.084 64.9723V76.3002L102.294 77.6445C101.242 79.4346 100.284 80.3156 98.4113 81.2156L96.8538 81.9641L86.0922 82.1057L75.3307 82.2473L64.9295 87.5683L54.5282 92.8896L54.4512 87.5683L54.3741 82.2473L45.5242 82.1725L36.6743 82.0978V68.2483C36.6743 60.6309 36.7519 54.1966 36.8468 53.9497C37.0028 53.5424 40.1132 53.5073 70.0517 53.5724L103.084 53.6444V64.9723ZM47.8127 61.5801C46.092 62.4377 45.3189 63.2221 45.5642 63.8613C45.7307 64.2951 45.7893 64.2951 46.3772 63.8636C47.6816 62.9058 49.8787 62.0041 50.9143 62.0015C52.0706 61.9984 54.2161 62.961 55.5438 64.0779C57.2868 65.5449 58.777 66.1056 60.899 66.094C62.9859 66.0827 63.9782 65.6791 65.9852 64.0264C67.2384 62.9947 69.5266 62.0044 70.658 62.0044C71.8466 62.0044 73.8505 62.9599 76.237 64.6647C79.2451 66.8139 82.2422 66.7074 85.4078 64.339C87.6445 62.6656 89.0514 61.9984 90.336 62.0015C91.4297 62.0041 93.6049 62.8843 94.9388 63.8636C95.5281 64.2963 95.5853 64.2951 95.7569 63.8483C96.1945 62.7078 92.9034 60.8659 90.4283 60.8659C88.5241 60.8659 87.2766 61.3975 84.749 63.2867C81.5472 65.6797 79.8325 65.6644 76.2324 63.2105C73.3348 61.2349 72.4571 60.8659 70.658 60.8659C68.8554 60.8659 67.8977 61.2675 65.051 63.217C61.4326 65.6953 60.0593 65.695 56.4386 63.2153C55.1886 62.3592 53.7386 61.4802 53.217 61.2624C51.6982 60.6277 49.4601 60.7594 47.8127 61.5801ZM48.9113 71.2734C47.6139 71.9701 45.4534 74.1663 45.4534 74.7885C45.4534 75.6046 46.1631 75.4013 47.1203 74.3113C49.0767 72.0831 51.0151 71.4037 52.7928 72.3232C53.2317 72.5501 54.5865 73.8327 55.8037 75.1733C60.3601 80.1919 62.4897 80.2508 66.8345 75.478C69.3541 72.7101 70.4595 71.9106 71.7676 71.9106C72.9813 71.9106 73.9536 72.4637 75.4605 74.0119C76.1549 74.7253 76.8878 75.309 77.0888 75.309C78.3573 75.309 75.9948 72.2088 74.0082 71.266C72.8516 70.7172 71.0783 70.632 69.9262 71.0701C69.5034 71.2309 67.8065 72.7429 66.1552 74.4305C64.062 76.5692 62.8862 77.557 62.2725 77.6918C60.6962 78.0381 59.2871 77.1939 56.6539 74.3251C55.3263 72.8789 53.8049 71.4889 53.2731 71.2366C52.0083 70.6365 50.067 70.6529 48.9113 71.2734Z" fill="#B19750"/>
<path fill-rule="evenodd" clip-rule="evenodd" d="M4.899 0.395906C3.24314 0.851854 2.19871 1.69663 1.04128 3.51674L0.141846 4.93131V41.8096C0.141846 75.8071 0.179228 78.7663 0.619033 79.6889C0.881557 80.2394 1.20015 80.6897 1.32703 80.6897C1.4539 80.6897 1.55783 80.8596 1.55783 81.0672C1.55783 81.6937 3.72712 83.2354 5.45604 83.8375C6.6888 84.2668 7.4557 84.36 8.63777 84.2235C9.49444 84.1249 14.0584 83.9847 18.7802 83.9125L27.365 83.7811L27.2761 83.1558C27.1878 82.535 27.1374 82.5294 20.2489 82.3813C16.4328 82.2991 13.5017 82.2 13.7353 82.1609C14.1865 82.0853 16.0009 79.2987 16.0009 78.6816C16.0009 78.4808 16.3356 77.2254 16.7446 75.8924C17.663 72.8984 18.71 69.2978 20.9492 61.4323C21.3703 59.9526 22.0174 57.7224 22.3867 56.4763C22.7563 55.2303 23.3691 53.1275 23.7489 51.8036C24.1287 50.4796 24.771 48.2495 25.1759 46.8476C25.5812 45.4458 26.0402 43.7891 26.1963 43.1661C26.6698 41.2749 27.6658 39.8461 29.1506 38.928L30.5411 38.0685L62.5263 37.994L94.5117 37.9198L95.8221 38.5604C97.3643 39.3146 98.3768 40.4089 99.0128 42.0092C99.5206 43.287 100.677 43.8341 100.677 42.7965C100.677 41.6558 99.7803 39.7736 98.7605 38.774C96.9294 36.9788 95.3386 36.5109 91.0666 36.5109H87.3666V27.2934V18.0759L86.3845 16.5404C85.6074 15.3258 85.0472 14.8259 83.7021 14.1471L82.002 13.2887H58.2055H34.4087V9.31266C34.4087 4.78858 34.1193 3.85941 32.1066 1.92574C30.1741 0.069096 29.4397 -0.0249255 17.0901 0.00367745C9.14526 0.0223685 5.87319 0.127435 4.899 0.395906ZM28.8535 1.7241C29.4947 1.90563 30.493 2.50091 31.0718 3.04692C32.8282 4.70362 32.9927 5.32326 32.9927 10.2784V14.6869L57.5601 14.7665L82.1275 14.8463L83.1493 15.5543C84.7343 16.6526 85.5647 17.8264 85.9136 19.4622C86.1075 20.371 86.2338 24.0273 86.2338 28.7329V36.5027L58.2681 36.5778L30.3024 36.6525L28.9679 37.292C28.2339 37.6437 27.3118 38.2529 26.919 38.6457C26.1136 39.4511 24.827 42.0953 24.5957 43.4209C24.5115 43.9038 24.1468 45.2547 23.7854 46.4228C22.914 49.2404 20.9486 55.9827 19.2455 61.9987C18.8264 63.4784 18.1866 65.7086 17.8236 66.9547C17.4608 68.2007 16.8343 70.3672 16.4316 71.769C14.4328 78.7286 14.0148 79.7713 12.7606 80.9276C9.49274 83.9397 4.94346 83.3608 2.45727 79.6164L1.41623 78.0483V41.7747V5.50082L2.34739 4.15988C4.18194 1.51765 4.49544 1.4596 17.1008 1.4242C24.3841 1.40381 28.0515 1.49726 28.8535 1.7241ZM8.32625 7.83493C6.50869 9.7199 5.2394 11.2548 5.2394 11.568C5.2394 11.6881 6.01621 12.6023 6.96577 13.5994C7.91533 14.5968 8.81193 15.6359 8.95806 15.9083C9.10448 16.1808 9.53833 16.4039 9.92207 16.4039C11.1554 16.4039 10.7881 15.3037 8.92889 13.4303C8.00142 12.4958 7.23792 11.6185 7.23226 11.4805C7.22659 11.3426 7.50838 10.9473 7.85897 10.6021C9.60602 8.88078 10.6408 7.48802 10.5629 6.96325C10.4162 5.97461 9.94246 6.15897 8.32625 7.83493ZM18.5851 6.98761C18.4183 7.4158 17.5743 9.04079 16.7092 10.5984C13.8764 15.6999 13.6489 16.4039 14.8321 16.4039C15.3583 16.4039 15.6511 15.9347 18.1917 11.0232C19.0376 9.3877 19.8464 7.92839 19.9892 7.78056C20.3984 7.35661 20.2925 6.56932 19.8008 6.38072C19.0591 6.0961 18.9017 6.17483 18.5851 6.98761ZM23.5529 6.39771C23.1771 6.77323 23.3816 7.2895 24.3045 8.29711C24.8219 8.86181 25.3255 9.32399 25.4237 9.32399C25.522 9.32399 26.0677 9.80202 26.6364 10.386L27.6703 11.448L25.5172 13.4621C23.2774 15.5574 22.8523 16.4039 24.04 16.4039C24.4747 16.4039 25.3087 15.8372 26.3764 14.8163C27.2897 13.9432 28.3962 12.9243 28.8354 12.5524C29.2948 12.1633 29.5955 11.6567 29.5434 11.3605C29.4451 10.8011 24.5503 6.21391 24.0485 6.2108C23.8797 6.20966 23.6566 6.29377 23.5529 6.39771ZM14.3841 22.4219C14.0808 22.8192 12.8761 29.9393 12.882 31.3001C12.884 31.7832 12.5683 34.0134 12.18 36.2561C11.792 38.499 11.4734 40.8181 11.472 41.4094C11.4709 42.0007 11.2132 43.9182 10.8994 45.6701C10.5859 47.4222 10.2146 49.9968 10.0747 51.3915C9.93481 52.7863 9.5474 55.7754 9.21351 58.0339C8.87962 60.2924 8.29057 64.4342 7.90457 67.2378C7.51857 70.0415 7.01448 73.6735 6.78452 75.309C6.23739 79.2001 6.24163 79.2737 7.00938 79.2737C7.54802 79.2737 7.72559 78.9996 8.15633 77.5038C8.4367 76.5304 8.97307 74.7143 9.34859 73.4682C9.72411 72.2221 10.3636 70.0557 10.7697 68.6538C11.651 65.6129 12.5365 62.6299 13.7546 58.6003C15.4642 52.9446 15.9346 51.3675 16.7114 48.6884C17.1405 47.2087 17.7933 45.0731 18.1623 43.9423C18.531 42.8118 18.8329 41.6849 18.8329 41.4383C18.8329 41.1913 19.1353 40.0775 19.5049 38.9626C19.8742 37.8479 20.5434 35.7579 20.9917 34.3187L21.8064 31.7014L50.6926 31.6283C77.8308 31.5595 79.5787 31.5255 79.5787 31.0662C79.5787 30.7974 77.6787 28.663 75.3565 26.3226L71.134 22.0679H42.8942C20.6351 22.0679 14.5971 22.1429 14.3841 22.4219ZM74.1272 26.8324C75.9572 28.6726 77.4547 30.265 77.4547 30.3709C77.4547 30.4771 64.7213 30.5638 49.1582 30.5638H20.8614L20.2896 32.3338C19.975 33.3074 18.9345 36.78 17.9776 40.0509C15.6245 48.0943 14.9123 50.5099 14.3031 52.5116C13.4119 55.4407 12.103 59.8504 11.9489 60.4411C11.3887 62.5917 8.89661 70.6104 8.74538 70.7486C8.64286 70.8427 8.65278 70.3459 8.76775 69.645C8.88245 68.9441 9.07842 67.5423 9.20303 66.5299C9.32764 65.5174 9.70061 62.7775 10.0319 60.4411C10.363 58.1047 11.0115 53.4532 11.4729 50.1044C11.9342 46.7556 12.4437 43.1236 12.6045 42.0333C12.7657 40.943 13.2185 37.6933 13.611 34.8118C14.0032 31.9302 14.5104 28.2818 14.7378 26.7044C14.9652 25.1267 15.1513 23.7569 15.1513 23.66C15.1513 23.5632 27.6723 23.4844 42.9754 23.485L70.7996 23.4864L74.1272 26.8324ZM36.5874 52.285C36.3059 52.3581 35.9556 52.7339 35.8086 53.1202C35.6537 53.5277 35.5415 60.001 35.5415 68.5306V83.2385H44.3206H53.0998V88.6192V94H54.2365C55.3948 94 55.51 93.9612 57.4893 92.9032C58.1123 92.5701 62.5727 90.2912 67.4012 87.8388L76.1803 83.3801L87.0834 83.2385L97.9865 83.0969L99.4025 82.3476C101.295 81.3456 102.637 79.9775 103.58 78.088L104.358 76.5267L104.354 64.9439C104.352 58.5734 104.256 53.221 104.142 53.0497C103.508 52.1009 102.975 52.0865 69.8979 52.1196C51.8585 52.1378 36.8689 52.2122 36.5874 52.285ZM103.158 64.821L103.232 75.9974L102.505 77.4839C102.105 78.3015 101.218 79.4632 100.534 80.0656C98.3167 82.0171 97.6937 82.1057 86.1877 82.1057H76.0113L65.4409 87.4865C59.6272 90.4459 54.727 92.8672 54.5514 92.8672C54.3263 92.8672 54.2325 91.2875 54.2325 87.4865V82.1057H45.4588H36.6848L36.6089 68.2086C36.567 60.5652 36.6349 54.1289 36.7598 53.906C36.9552 53.5571 41.5977 53.5104 70.0355 53.5724L103.084 53.6444L103.158 64.821ZM48.9931 61.2431C47.7496 61.6504 45.4534 63.0726 45.4534 63.4356C45.4534 64.0289 46.0932 63.8956 47.6009 62.9876C48.9469 62.1771 49.5241 61.9987 50.7988 61.9987C52.4963 61.9987 54.0949 62.6314 55.5069 63.8624C57.0787 65.2325 58.8863 65.9635 60.7022 65.9635C62.6475 65.9635 63.8488 65.5228 65.6497 64.1479C67.7003 62.5826 69.0619 61.9987 70.6608 61.9987C72.2796 61.9987 73.2371 62.4088 75.4171 64.0352C77.4712 65.5673 78.549 65.9646 80.6316 65.9569C82.5599 65.9496 83.5222 65.5239 86.679 63.281C88.0763 62.2881 88.4836 62.1445 90.1507 62.057C91.9046 61.965 92.1592 62.0307 93.7159 62.978C94.8221 63.6509 95.4879 63.9026 95.6728 63.7177C96.0234 63.3671 95.0682 62.5382 93.3138 61.6705C92.4294 61.2329 91.5194 61.0387 90.3402 61.0355C88.451 61.0307 87.4969 61.4264 85.2285 63.1558C81.6899 65.853 79.325 65.7833 75.4766 62.869C73.5953 61.4442 71.4053 60.739 69.7271 61.018C68.2398 61.2649 67.2296 61.7645 65.4047 63.1558C61.9604 65.7811 59.5317 65.7811 56.0875 63.1558C55.301 62.556 54.2362 61.8526 53.7217 61.592C52.4492 60.9483 50.3632 60.7943 48.9931 61.2431ZM49.135 71.3663C47.9875 71.8851 45.4534 74.2314 45.4534 74.7749C45.4534 75.4628 46.1405 75.1654 47.1951 74.0213C48.6943 72.3949 49.6139 71.9106 51.2029 71.9106C52.8364 71.9106 53.8825 72.6384 56.0609 75.2908C59.8719 79.931 63.2088 79.9024 66.9526 75.1974C68.8889 72.7639 70.129 71.9106 71.729 71.9106C73.2982 71.9106 74.2192 72.4005 75.7298 74.0394C76.5791 74.9606 77.0387 75.2719 77.2454 75.0651C77.6351 74.6755 76.3692 73.0032 74.8533 71.9052C71.8984 69.7645 69.4179 70.677 65.5092 75.3427C62.5149 78.9169 60.1168 78.6833 56.638 74.4781C55.3073 72.8698 54.3705 72.031 53.3198 71.5073C51.5634 70.6323 50.8149 70.607 49.135 71.3663Z" fill="#765F22"/>
<path fill-rule="evenodd" clip-rule="evenodd" d="M4.8517 0.4078C3.32952 0.826083 2.22788 1.74279 0.971897 3.63767L0.141846 4.88996V41.7892C0.141846 75.806 0.179228 78.7663 0.619033 79.6889C0.881557 80.2394 1.20015 80.6897 1.32703 80.6897C1.4539 80.6897 1.5601 80.8492 1.56293 81.0437C1.57199 81.6707 3.77272 83.2515 5.45038 83.8355C6.68852 84.2668 7.45429 84.36 8.63777 84.2235C9.49444 84.1249 14.0584 83.9847 18.7802 83.9125L27.365 83.7811L27.2761 83.1558C27.1878 82.535 27.1374 82.5294 20.2489 82.3813C16.4328 82.2991 13.5017 82.2 13.7353 82.1609C14.1865 82.0853 16.0009 79.2987 16.0009 78.6816C16.0009 78.4808 16.3356 77.2254 16.7446 75.8924C17.663 72.8984 18.71 69.2978 20.9492 61.4323C21.3703 59.9526 22.0174 57.7224 22.3867 56.4763C22.7563 55.2303 23.3691 53.1275 23.7489 51.8036C24.1287 50.4796 24.771 48.2495 25.1759 46.8476C25.5812 45.4458 26.0402 43.7891 26.1963 43.1661C26.6698 41.2749 27.6658 39.8461 29.1506 38.928L30.5411 38.0685L62.5263 37.994L94.5117 37.9198L95.8221 38.5604C97.3643 39.3146 98.3768 40.4089 99.0128 42.0092C99.5206 43.287 100.677 43.8341 100.677 42.7965C100.677 41.6558 99.7803 39.7736 98.7605 38.774C96.9294 36.9788 95.3386 36.5109 91.0666 36.5109H87.3666V27.2934V18.0759L86.3845 16.5404C85.6074 15.3258 85.0472 14.8259 83.7021 14.1471L82.002 13.2887H58.2055H34.4087V9.31266C34.4087 4.78858 34.1193 3.85941 32.1066 1.92574C30.1741 0.069096 29.4397 -0.0249255 17.0901 0.00367745C8.96741 0.0226517 5.88311 0.124603 4.8517 0.4078ZM28.8535 1.7241C29.4947 1.90563 30.493 2.50091 31.0718 3.04692C32.8282 4.70362 32.9927 5.32326 32.9927 10.2784V14.6869L57.5601 14.7665L82.1275 14.8463L83.1493 15.5543C84.7343 16.6526 85.5647 17.8264 85.9136 19.4622C86.1075 20.371 86.2338 24.0273 86.2338 28.7329V36.5027L58.2681 36.5778L30.3024 36.6525L28.9679 37.292C28.2339 37.6437 27.3118 38.2529 26.919 38.6457C26.1136 39.4511 24.827 42.0953 24.5957 43.4209C24.5115 43.9038 24.1468 45.2547 23.7854 46.4228C23.1066 48.6179 21.7934 53.0919 20.6683 57.0427C19.4273 61.4006 18.4783 64.7072 17.8236 66.9547C17.4608 68.2007 16.8343 70.3672 16.4316 71.769C14.4328 78.7286 14.0148 79.7713 12.7606 80.9276C9.49274 83.9397 4.94346 83.3608 2.45727 79.6164L1.41623 78.0483V41.7747V5.50082L2.34739 4.15988C4.18194 1.51765 4.49544 1.4596 17.1008 1.4242C24.3841 1.40381 28.0515 1.49726 28.8535 1.7241ZM8.32625 7.83493C6.50869 9.7199 5.2394 11.2548 5.2394 11.568C5.2394 11.6881 6.01621 12.6023 6.96577 13.5994C7.91533 14.5968 8.81193 15.6359 8.95806 15.9083C9.10448 16.1808 9.53833 16.4039 9.92207 16.4039C11.1554 16.4039 10.7881 15.3037 8.92889 13.4303C8.00142 12.4958 7.23792 11.6185 7.23226 11.4805C7.22659 11.3426 7.50838 10.9473 7.85897 10.6021C9.60602 8.88078 10.6408 7.48802 10.5629 6.96325C10.4162 5.97461 9.94246 6.15897 8.32625 7.83493ZM18.5851 6.98761C18.4183 7.4158 17.5743 9.04079 16.7092 10.5984C13.8764 15.6999 13.6489 16.4039 14.8321 16.4039C15.3583 16.4039 15.6511 15.9347 18.1917 11.0232C19.0376 9.3877 19.8464 7.92839 19.9892 7.78056C20.3984 7.35661 20.2925 6.56932 19.8008 6.38072C19.0591 6.0961 18.9017 6.17483 18.5851 6.98761ZM23.5529 6.39771C23.1771 6.77323 23.3816 7.2895 24.3045 8.29711C24.8219 8.86181 25.3255 9.32399 25.4237 9.32399C25.522 9.32399 26.0677 9.80202 26.6364 10.386L27.6703 11.448L25.5172 13.4621C23.2754 15.5591 22.852 16.4039 24.0429 16.4039C24.8871 16.4039 29.7082 11.9133 29.5547 11.2698C29.4324 10.7575 24.4866 6.21363 24.0485 6.2108C23.8797 6.20966 23.6566 6.29377 23.5529 6.39771ZM14.3813 22.4219C14.2312 22.6167 13.8398 24.6237 13.5116 26.8822C12.6022 33.1369 12.0194 37.2821 11.7195 39.6261C11.57 40.7943 11.1843 43.4496 10.8623 45.5271C10.54 47.6043 10.1832 50.2806 10.0693 51.4742C9.9552 52.6676 9.57968 55.556 9.23446 57.8923C8.88953 60.2287 8.29113 64.4342 7.90514 67.2378C7.51885 70.0415 7.01448 73.6735 6.78452 75.309C6.23739 79.201 6.24163 79.2743 7.00938 79.2712C7.54774 79.2692 7.72446 78.9951 8.14897 77.5012C8.42537 76.5293 8.96203 74.7143 9.34151 73.4682C9.72071 72.2221 10.3636 70.0557 10.7697 68.6538C11.1761 67.252 11.8135 65.0855 12.1865 63.8395C12.5595 62.5934 13.2621 60.2358 13.7475 58.6003C14.2329 56.9649 14.923 54.671 15.2807 53.5028C15.6387 52.3346 16.2824 50.1681 16.7114 48.6884C17.1405 47.2087 17.7933 45.0731 18.1623 43.9423C18.531 42.8118 18.8329 41.6849 18.8329 41.4383C18.8329 41.1913 19.1353 40.0775 19.5049 38.9626C19.8742 37.8479 20.5434 35.7579 20.9917 34.3187L21.8064 31.7014L50.6926 31.6283C77.8308 31.5595 79.5787 31.5255 79.5787 31.0662C79.5787 30.7974 77.6787 28.663 75.3565 26.3226L71.134 22.0679H42.8942C20.6366 22.0679 14.5965 22.1429 14.3813 22.4219ZM74.1272 26.8324C75.9572 28.6726 77.4547 30.265 77.4547 30.3709C77.4547 30.4771 64.7213 30.5638 49.1582 30.5638H20.8614L20.2896 32.3338C19.975 33.3074 18.9345 36.78 17.9776 40.0509C15.6245 48.0943 14.9123 50.5099 14.3031 52.5116C13.4119 55.4407 12.103 59.8504 11.9489 60.4411C11.3887 62.5917 8.89661 70.6104 8.74538 70.7486C8.64286 70.8427 8.65278 70.3459 8.76775 69.645C8.88245 68.9441 9.07842 67.5423 9.20303 66.5299C9.32764 65.5174 9.70061 62.7775 10.0319 60.4411C10.363 58.1047 11.0115 53.4532 11.4729 50.1044C11.9342 46.7556 12.4437 43.1236 12.6045 42.0333C12.7657 40.943 13.2185 37.6933 13.611 34.8118C14.0032 31.9302 14.5104 28.2818 14.7378 26.7044C14.9652 25.1267 15.1513 23.7569 15.1513 23.66C15.1513 23.5632 27.6723 23.4844 42.9754 23.485L70.7996 23.4864L74.1272 26.8324ZM36.5874 52.285C36.3059 52.3581 35.9556 52.7339 35.8086 53.1202C35.6537 53.5277 35.5415 60.001 35.5415 68.5306V83.2385H44.3206H53.0998V88.6192V94H54.2365C55.3948 94 55.51 93.9612 57.4893 92.9032C58.1123 92.5701 62.5727 90.2912 67.4012 87.8388L76.1803 83.3801L87.0834 83.2385L97.9865 83.0969L99.4025 82.3425C101.244 81.3609 102.515 80.069 103.535 78.1409L104.358 76.5834L104.354 64.9723C104.352 58.5862 104.256 53.221 104.142 53.0497C103.508 52.1009 102.975 52.0865 69.8979 52.1196C51.8585 52.1378 36.8689 52.2122 36.5874 52.285ZM103.076 53.6769C103.485 54.0853 103.525 55.3101 103.451 65.0756L103.367 76.017L102.569 77.6422C102.098 78.6011 101.276 79.6736 100.562 80.2581C98.3547 82.0669 98.0624 82.1057 86.6159 82.1057H76.3075L65.4367 87.6281C59.4578 90.6654 54.4937 93.1504 54.4053 93.1504C54.3169 93.1504 54.2102 90.6971 54.168 87.6989L54.0909 82.2473L45.241 82.1725L36.3911 82.0978V67.9558C36.3911 54.7862 36.4251 53.7942 36.8867 53.5254C37.2152 53.334 48.3721 53.234 70.0007 53.2281C99.6568 53.2204 102.66 53.2612 103.076 53.6769ZM48.427 61.5977C47.1011 62.0706 45.5038 63.272 45.8018 63.5724C45.9153 63.6868 46.5117 63.4475 47.1271 63.0403C49.8192 61.2587 52.4846 61.436 55.3458 63.5869C59.504 66.7125 62.038 66.7352 66.0572 63.6829C69.3343 61.1941 71.8522 61.189 75.1976 63.6642C79.3527 66.7389 81.8038 66.7185 85.9855 63.5753C88.8166 61.447 91.439 61.2556 93.9954 62.9905C95.0665 63.7171 95.5794 63.8718 95.5794 63.4679C95.5794 63.085 93.9323 61.9919 92.7012 61.5575C90.1553 60.6595 87.7668 61.2386 85.0291 63.4184C84.2384 64.0479 82.923 64.7531 82.085 64.9969C80.722 65.3931 80.4204 65.394 79.0823 65.0048C78.2638 64.767 76.8158 63.9938 75.8646 63.2867C71.9873 60.4054 69.2026 60.4346 65.2815 63.3968C64.4274 64.0422 63.0573 64.7653 62.2371 65.0037C60.8922 65.3948 60.596 65.3937 59.2129 64.9915C58.3607 64.7437 57.0356 64.0369 56.2297 63.3997C53.5059 61.2468 51.0208 60.6728 48.427 61.5977ZM48.9934 71.5291C47.9025 72.1015 45.7366 74.1835 45.7366 74.6599C45.7366 75.224 45.8904 75.128 47.3868 73.6319C49.101 71.9174 50.5858 71.3785 52.2337 71.8724C53.4144 72.2258 54.6214 73.2923 56.8983 75.9932C59.8622 79.5094 62.8811 79.5547 65.9292 76.1294C68.5754 73.1555 69.6787 72.1734 70.7288 71.8574C72.3164 71.3796 73.8292 71.9398 75.5213 73.6319C77.0178 75.128 77.1715 75.224 77.1715 74.6599C77.1715 74.162 74.9748 72.078 73.8581 71.5167C72.571 70.8696 70.7328 70.9477 69.3932 71.7064C68.7756 72.0564 67.5012 73.2561 66.5613 74.3724C64.2945 77.0651 63.5149 77.6366 61.8953 77.792C59.8146 77.992 58.8506 77.3562 55.8405 73.7987C55.0895 72.9109 53.9796 71.9318 53.3739 71.6229C52.0604 70.9525 50.1698 70.9123 48.9934 71.5291Z" fill="#2A2A2A"/>
</svg>
